<?xml version="1.0" encoding="utf-8"?>
<!-- Generator: Adobe Illustrator 26.1.0, SVG Export Plug-In . SVG Version: 6.00 Build 0)  -->
<!DOCTYPE svg PUBLIC "-//W3C//DTD SVG 1.1//EN" "http://www.w3.org/Graphics/SVG/1.1/DTD/svg11.dtd" [
	<!ENTITY st0 "display:none;">
	<!ENTITY st1 "display:inline;">
	<!ENTITY st2 "display:inline;fill:#E9E1F4;">
	<!ENTITY st3 "display:inline;fill:#CCB7EA;">
	<!ENTITY st4 "display:inline;fill:#8566B2;">
	<!ENTITY st5 "fill:url(#_x33_1_00000011021059807392709690000009962725296009086395_);">
	<!ENTITY st6 "fill:url(#_x33_0_00000036944034658925934460000014768112684066158500_);">
	<!ENTITY st7 "fill:url(#_x32_9_00000060021769770678601660000014151567731193009582_);">
	<!ENTITY st8 "fill:url(#_x32_8_00000106116278971973599340000016567818183891249040_);">
	<!ENTITY st9 "fill:url(#_x32_7_00000002365378235912943490000012003155566170172842_);">
	<!ENTITY st10 "fill:url(#_x32_5_00000136402515495068242450000004356874735388175524_);">
	<!ENTITY st11 "fill:url(#_x32_4_00000070076626300537723450000006662807327332451754_);">
	<!ENTITY st12 "fill:url(#_x32_3_00000174594756235276566410000017718454821694962097_);">
	<!ENTITY st13 "fill:url(#_x32_2_00000170272878163875308540000012108069063142991291_);">
	<!ENTITY st14 "fill:url(#_x32_0_00000019660389766000376150000011518036672817190062_);">
	<!ENTITY st15 "fill:url(#_x31_9_00000139979101887113712560000013986443901754793360_);">
	<!ENTITY st16 "fill:url(#_x31_8_00000142174193412097313280000006380504059046864783_);">
	<!ENTITY st17 "fill:url(#_x31_7_00000082361763341050452010000015642533971829178039_);">
	<!ENTITY st18 "fill:url(#_x31_6_00000025422593768689136380000005130379823872830348_);">
	<!ENTITY st19 "display:none;fill:url(#_x31_5_00000121239317094730856940000013251309854283390081_);">
	<!ENTITY st20 "fill:#33005F;">
	<!ENTITY st21 "fill:#4B007F;">
	<!ENTITY st22 "opacity:0.5;fill:url(#SVGID_1_);">
	<!ENTITY st23 "display:inline;fill:url(#_x31__00000028315035412782595980000002959752318780787882_);">
	<!ENTITY st24 "display:inline;fill:url(#_x31_9_00000101104993691704887380000004013707841738725809_);">
	<!ENTITY st25 "fill:url(#SVGID_00000135685152855481381630000005027512091653603231_);">
	<!ENTITY st26 "fill:url(#SVGID_00000120521597700551560460000016605001477165830784_);">
	<!ENTITY st27 "display:inline;fill:url(#SVGID_00000137117584292398986820000012221679927353611936_);">
	<!ENTITY st28 "display:inline;fill:url(#SVGID_00000047745638455122940800000001844445190899668612_);">
	<!ENTITY st29 "display:inline;fill:url(#SVGID_00000031894814154311337050000012907421383341995419_);">
	<!ENTITY st30 "display:inline;fill:url(#SVGID_00000008869399193840650640000000131818371182862989_);">
	<!ENTITY st31 "display:inline;fill:url(#SVGID_00000019661641095809526450000014672411258240676231_);">
	<!ENTITY st32 "fill:url(#SVGID_00000060013010915040379160000016521251653736240278_);">
	<!ENTITY st33 "fill:url(#SVGID_00000031183494357321078030000006378158103349619364_);">
	<!ENTITY st34 "fill:url(#SVGID_00000021081447353164113870000010666582567986499731_);">
	<!ENTITY st35 "fill:url(#SVGID_00000119088303357663420920000016661246812865367473_);">
	
		<!ENTITY st36 "display:inline;fill:none;stroke:url(#SVGID_00000099642094085386173070000010771337002800067205_);stroke-miterlimit:10;">
	
		<!ENTITY st37 "display:inline;fill:none;stroke:url(#SVGID_00000035528242275051888570000000252287306505491610_);stroke-miterlimit:10;">
	<!ENTITY st38 "fill:url(#SVGID_00000093875282445630058390000017462558804841798576_);">
	
		<!ENTITY st39 "fill:none;stroke:url(#SVGID_00000008834667829112138920000007851701407618827697_);stroke-width:2;stroke-miterlimit:10;">
	<!ENTITY st40 "display:inline;opacity:0.92;">
	<!ENTITY st41 "fill:#D7D4E4;">
	<!ENTITY st42 "display:inline;opacity:0.67;">
	<!ENTITY st43 "display:inline;opacity:0.43;">
	<!ENTITY st44 "display:inline;opacity:0.65;">
	<!ENTITY st45 "opacity:0.5;">
]>
<svg version="1.1" xmlns="http://www.w3.org/2000/svg" xmlns:xlink="http://www.w3.org/1999/xlink" x="0px" y="0px"
	 viewBox="0 0 1920 1080" style="enable-background:new 0 0 1920 1080;" xml:space="preserve">
<g id="Layer_8" style="&st0;">
	<rect style="&st1;" width="1920" height="1080"/>
</g>
<g id="nuvem-frente" style="&st0;">
	<path style="&st2;" d="M1,794c0,0,118.2,9.6,91.2,104.6c73,16,110,34,121,115c0,0,95-52,186,41c27-28,100.9,25,82.8,25.4
		c-39,0.9-481,0-481,0V794z"/>
	<path style="&st2;" d="M1323,1080c0,0-12.8-105.6,95.2-45.6c10-16.9,23-26.9,50.3-18.6c-2.3-37.2,21.7-71.4,76.7-62.4
		c3-39.9,46-52.5,90-34.9c0,0,60-51,98,11.9c4-50.9,29.8-122.4,186.8-121.4l-0.8,270.6L1323,1080z"/>
	<polygon style="&st2;" points="0,0.5 0.1,0 0,0 	"/>
</g>
<g id="nuvem-meio" style="&st0;">
	<path style="&st3;" d="M0,630.3c0,0,94-17.6,105,46.9c0,0,84-6.7,65,59.5c23,2.5,56.8,31,29.4,75.4c4.6,0,21.1,12.4,15.6,17.6
		c0,0,72-28.5,111,28.5c-1-15.9,102-83,172.5,0c18.5-21.8,106.5-5,85.5,50.3c0,0,34,8.4,31,30.2c21-4.2,31-5,53,8.4
		c9.1-18.2,81.6-48.3,137.3,0c5.7-4.4,26.7-10.1,37.7-5c0.1-10.9,84-57.8,131,0c0,0,23-1.7,32,8.4c0,0,5,4.2,6,13.4
		c15-16.8,97-61.2,130-24.3c0,0,20-31.8,64-24.3c5-14.2,68-26.8,88,2.5c12-21,21-35.2,62-37.7c0-22.6,8-46.9,22-55.3
		c14-8.4,41-23.5,75,4.2c15-5,11-6.7,33-5c4-16.8,53.5-71.4,100-18.4c0,0,30-16.8,62,0c0,0-9-25.1,20-40.2c9-4.7,25-8.4,25-8.4
		s-11-46.9,31-60.3c0,0,40-12.6,72,18.4c4-11.7,30-43.6,74-41.9c0-7.5,8-48.8,50-44.9V1080H0L0,630.3z"/>
	<polygon style="&st3;" points="0,0 0,0 0,0 	"/>
</g>
<g id="nuvem-fundo" style="&st0;">
	<path style="&st4;" d="M1920,542c0,0-93-21-104,56c0,0-84-8-65,71c-23,3-56.8,37-29.4,90c-4.6,0-21.1,14.8-15.6,21
		c0,0-72-34-111,34c1-19-102-99-172.5,0c-18.5-26-106.5-6-85.5,60c0,0-34,10-31,36c-21-5-31-6-53,10c-9.1-21.8-81.6-57.6-137.3,0
		c-5.7-5.3-26.7-12-37.7-6c-0.1-13-84-69-131,0c0,0-23-2-32,10c0,0-5,5-6,16c-15-20-97-73-130-29c0,0-20-38-64-29c-5-17-68-32-88,3
		c-12-25-21-42-62-45c0-27-8-56-22-66s-41-28-75,5c-15-6-11-8-33-6c-4-20-53.5-85.2-100-22c0,0-30-20-62,0c0,0,9-30-20-48
		c-9-5.6-25-10-25-10s11-56-31-72c0,0-40-15-72,22c-4-14-30-52-74-50c0-9-9-58.7-51-54l0,541h1920V542z"/>
	<polyline style="&st4;" points="0,0 0,0 0,0 0,0 	"/>
</g>
<g id="planeta" style="&st0;">
	<g id="_x34_" style="&st1;">
		<g id="_x31_4">
			
				<linearGradient id="_x33_1_00000065073893763872565330000016628146283781026960_" gradientUnits="userSpaceOnUse" x1="1413.6218" y1="-918.8401" x2="1639.2938" y2="-813.898" gradientTransform="matrix(0.9493 0.3144 -0.3144 0.9493 -45.9042 584.6732)">
				<stop  offset="0" style="stop-color:#9F00AA"/>
				<stop  offset="0.4127" style="stop-color:#6B00AA"/>
				<stop  offset="0.6554" style="stop-color:#560089"/>
				<stop  offset="1" style="stop-color:#350055"/>
			</linearGradient>
			<path id="_x33_1" style="fill:url(#_x33_1_00000065073893763872565330000016628146283781026960_);" d="M1764.8,267
				c-2.4,7.3-5.6,14.2-9.4,20.5l0,0c-2.7,4.4-5.6,8.6-8.9,12.5c-11,13.2-25.1,23.4-40.7,29.6c-21.6,8.6-46.2,10-69.9,2.1
				c-17.5-5.8-32.5-15.9-44-28.8c-7.2-8.1-13.1-17.3-17.4-27.1c-5-11.4-7.9-23.7-8.5-36.4c-0.5-12,1-24.2,5-36.3l0.1-0.4
				c1.4-4.2,3.1-8.3,4.9-12.2c5-10.4,11.7-19.7,19.5-27.6c0,0,0,0,0,0c6.8-6.9,14.5-12.7,22.9-17.3c5.6-3.1,11.5-5.7,17.6-7.7
				c20.1-6.6,42.4-7.1,64,0.1c9.1,3,17.5,7.2,25.1,12.3c4.9,3.3,9.5,7,13.7,11.1c8.9,8.6,16.1,18.7,21.4,29.8
				c6.7,14.1,10.1,29.7,9.8,45.7c-0.2,8.9-1.5,17.8-4.1,26.7l0,0C1765.5,264.8,1765.2,265.9,1764.8,267z"/>
			<g id="_x32_6">
				
					<linearGradient id="_x33_0_00000060713892505777699200000003449766811018375330_" gradientUnits="userSpaceOnUse" x1="1315.9761" y1="-951.9178" x2="1536.0758" y2="-809.8281" gradientTransform="matrix(0.9493 0.3144 -0.3144 0.9493 -45.9042 584.6732)">
					<stop  offset="9.523810e-02" style="stop-color:#9F00AA"/>
					<stop  offset="0.5238" style="stop-color:#6B00AA"/>
					<stop  offset="0.6692" style="stop-color:#560089"/>
					<stop  offset="0.8757" style="stop-color:#350055"/>
				</linearGradient>
				<path id="_x33_0" style="fill:url(#_x33_0_00000060713892505777699200000003449766811018375330_);" d="M1746.5,300.1
					c-11,13.2-25.1,23.4-40.7,29.6c-20.3-4.8-16.4-6.8-29.4-14.5c-14.7-8.6-40.6-13.4-63.1-13.4c-7,0-14.2,0.7-21.4,1.2
					c-7.2-8.1-13.1-17.3-17.4-27.1c21.7-0.5,49.6,1.5,76.2,11.2C1683.3,299.2,1718.5,303.7,1746.5,300.1z"/>
				
					<linearGradient id="_x32_9_00000025419915849174023790000002040145200067003278_" gradientUnits="userSpaceOnUse" x1="1331.6044" y1="-976.1264" x2="1551.7041" y2="-834.0367" gradientTransform="matrix(0.9493 0.3144 -0.3144 0.9493 -45.9042 584.6732)">
					<stop  offset="9.523810e-02" style="stop-color:#9F00AA"/>
					<stop  offset="0.5238" style="stop-color:#6B00AA"/>
					<stop  offset="0.6692" style="stop-color:#560089"/>
					<stop  offset="0.8757" style="stop-color:#350055"/>
				</linearGradient>
				<path id="_x32_9" style="fill:url(#_x32_9_00000025419915849174023790000002040145200067003278_);" d="M1764.8,267
					c-2.4,7.3-5.6,14.2-9.4,20.5l0,0c-19.4,3.3-69-5-84.7-8c-15.2-2.9-77.8-30.7-104.7-40.1c-0.2-3.4-0.1-6.9,0.1-10.3
					c0.2-4.4,0.8-8.7,1.6-13.1c0.8-4.3,1.9-8.6,3.3-12.9c20.2,16.5,70.9,42.6,102.7,55.6c29.4,12.1,70.5,8.2,92.2,4.8
					C1765.5,264.8,1765.2,265.9,1764.8,267z"/>
				
					<linearGradient id="_x32_8_00000072260477034660237000000011431219898877984409_" gradientUnits="userSpaceOnUse" x1="1353.1531" y1="-1009.5059" x2="1573.2529" y2="-867.4162" gradientTransform="matrix(0.9493 0.3144 -0.3144 0.9493 -45.9042 584.6732)">
					<stop  offset="9.523810e-02" style="stop-color:#9F00AA"/>
					<stop  offset="0.5238" style="stop-color:#6B00AA"/>
					<stop  offset="0.6692" style="stop-color:#560089"/>
					<stop  offset="0.8757" style="stop-color:#350055"/>
				</linearGradient>
				<path id="_x32_8" style="fill:url(#_x32_8_00000072260477034660237000000011431219898877984409_);" d="M1770,237
					c-16,8.2-37.8,15-46.1,15.9c-35.3,2.7-78.8-24.3-125-47.1c-10.7-5.3-18-10.4-22.8-15.2c5-10.4,11.7-19.7,19.5-27.6
					c-5.8,44.9,91.9,69.1,115.6,73.7c19.3,3.7,39.2-27.3,49.1-45.4C1766.8,205.4,1770.3,221,1770,237z"/>
				
					<linearGradient id="_x32_7_00000052800763936849953840000017502965151562813850_" gradientUnits="userSpaceOnUse" x1="1370.0558" y1="-1035.6885" x2="1590.1556" y2="-893.5988" gradientTransform="matrix(0.9493 0.3144 -0.3144 0.9493 -45.9042 584.6732)">
					<stop  offset="9.523810e-02" style="stop-color:#9F00AA"/>
					<stop  offset="0.5238" style="stop-color:#6B00AA"/>
					<stop  offset="0.6692" style="stop-color:#560089"/>
					<stop  offset="0.8757" style="stop-color:#350055"/>
				</linearGradient>
				<path id="_x32_7" style="fill:url(#_x32_7_00000052800763936849953840000017502965151562813850_);" d="M1738.8,161.5
					c-6.9,20.7-59.6,14.6-99.9-1.2c-14.8-5.8-19.9-10.7-20.5-14.6c5.6-3.1,11.5-5.7,17.6-7.7c2.5,2.7,5.8,6.7,8.9,11.8
					c5.6,9.4,55.9,16,63.8,14.9c14.6,1.1,16.4-14.3,16.4-14.3C1730,153.7,1734.6,157.4,1738.8,161.5z"/>
			</g>
			
				<linearGradient id="_x32_5_00000183235118165089482090000005014816850579076483_" gradientUnits="userSpaceOnUse" x1="1452.7295" y1="-900.5999" x2="1434.9296" y2="-908.8033" gradientTransform="matrix(0.9493 0.3144 -0.3144 0.9493 -45.9042 584.6732)">
				<stop  offset="9.523810e-02" style="stop-color:#9F00AA"/>
				<stop  offset="0.5238" style="stop-color:#6B00AA"/>
				<stop  offset="0.6692" style="stop-color:#560089"/>
				<stop  offset="0.8757" style="stop-color:#350055"/>
			</linearGradient>
			<path id="_x32_5" style="fill:url(#_x32_5_00000183235118165089482090000005014816850579076483_);" d="M1621.3,175.7
				c3.9,3.2-14.7,15.1-20.6,13.2s-1.2-19.1,1.6-20.1c2.2-0.7,6.1-2.4,12-0.4C1620.2,170.4,1619.5,174.3,1621.3,175.7z"/>
			
				<linearGradient id="_x32_4_00000070807222482999272540000001504973734159047845_" gradientUnits="userSpaceOnUse" x1="1520.4474" y1="-926.9846" x2="1491.6307" y2="-942.0917" gradientTransform="matrix(0.9493 0.3144 -0.3144 0.9493 -45.9042 584.6732)">
				<stop  offset="9.523810e-02" style="stop-color:#9F00AA"/>
				<stop  offset="0.5238" style="stop-color:#6B00AA"/>
				<stop  offset="0.7206" style="stop-color:#560089"/>
				<stop  offset="1" style="stop-color:#350055"/>
			</linearGradient>
			<path id="_x32_4" style="fill:url(#_x32_4_00000070807222482999272540000001504973734159047845_);" d="M1677.2,169.2
				c-1.1,3.4-6.4,4.1-8.6,3.4c-2.2-0.7-3.6-4.3,0-7.5c2.7-2.4,6.8-5.2,9-4.5C1683.7,162.6,1678.3,165.8,1677.2,169.2z"/>
			
				<linearGradient id="_x32_3_00000109741660630563334660000011127827176167450779_" gradientUnits="userSpaceOnUse" x1="1465.5699" y1="-816.5598" x2="1443.2814" y2="-822.751" gradientTransform="matrix(0.9493 0.3144 -0.3144 0.9493 -45.9042 584.6732)">
				<stop  offset="9.523810e-02" style="stop-color:#9F00AA"/>
				<stop  offset="0.5238" style="stop-color:#6B00AA"/>
				<stop  offset="0.6692" style="stop-color:#560089"/>
				<stop  offset="0.8757" style="stop-color:#350055"/>
			</linearGradient>
			<path id="_x32_3" style="fill:url(#_x32_3_00000109741660630563334660000011127827176167450779_);" d="M1598.9,265.8
				c-0.8,2.5-4.5,3.5-8.3,2.3s-6.1-4.3-5.3-6.7c0.8-2.5,4.5-3.5,8.3-2.3C1597.4,260.3,1599.8,263.3,1598.9,265.8z"/>
			
				<radialGradient id="_x32_2_00000010299464059302272980000010906421666211625620_" cx="1630.0238" cy="-854.4518" r="38.5412" gradientTransform="matrix(0.9493 0.3144 -0.3144 0.9493 -45.9042 584.6732)" gradientUnits="userSpaceOnUse">
				<stop  offset="9.523810e-02" style="stop-color:#9F00AA"/>
				<stop  offset="0.5238" style="stop-color:#6B00AA"/>
				<stop  offset="0.6692" style="stop-color:#560089"/>
				<stop  offset="0.8757" style="stop-color:#350055"/>
			</radialGradient>
			<path id="_x32_2" style="fill:url(#_x32_2_00000010299464059302272980000010906421666211625620_);" d="M1753.2,260.6
				c1.4,2.9-21.1,31.4-12.4,7.2c0.7-1.8,6.4-7.9,5.6-9.4c-0.6-1.2,2.3-1.8,4.1-1.1C1752.4,257.9,1752.6,259.5,1753.2,260.6z"/>
			
				<radialGradient id="_x32_0_00000152229439747268003200000013603539597314333584_" cx="1536.3204" cy="-957.5215" r="14.0102" gradientTransform="matrix(0.9493 0.3144 -0.3144 0.9493 -45.9042 584.6732)" gradientUnits="userSpaceOnUse">
				<stop  offset="9.523810e-02" style="stop-color:#9F00AA"/>
				<stop  offset="0.5238" style="stop-color:#6B00AA"/>
				<stop  offset="0.6692" style="stop-color:#560089"/>
				<stop  offset="0.8757" style="stop-color:#350055"/>
			</radialGradient>
			<path id="_x32_0" style="fill:url(#_x32_0_00000152229439747268003200000013603539597314333584_);" d="M1714.1,155.8
				c-0.7,2.2-4.1,3-7.5,1.9s-5.6-3.8-4.9-6c0.7-2.2,6.5-4.7,9.9-3.6C1715.1,149.3,1714.8,153.7,1714.1,155.8z"/>
			
				<linearGradient id="_x31_9_00000096016829446737129170000004297468184219126942_" gradientUnits="userSpaceOnUse" x1="1542.5004" y1="-741.4203" x2="1525.01" y2="-783.9853" gradientTransform="matrix(0.9493 0.3144 -0.3144 0.9493 -45.9042 584.6732)">
				<stop  offset="9.523810e-02" style="stop-color:#9F00AA"/>
				<stop  offset="0.5238" style="stop-color:#6B00AA"/>
				<stop  offset="0.6692" style="stop-color:#560089"/>
				<stop  offset="0.8757" style="stop-color:#350055"/>
			</linearGradient>
			<path id="_x31_9" style="fill:url(#_x31_9_00000096016829446737129170000004297468184219126942_);" d="M1661,335.1
				c-0.7,2.3-8.4,1-14.6-1.1c-6.2-2.1-9.4-3-9.4-5.6c0-3.8,5.8-0.6,12,1.5C1655.2,332,1662.3,331.1,1661,335.1z"/>
			
				<linearGradient id="_x31_8_00000032632372865476513820000001908745576248769185_" gradientUnits="userSpaceOnUse" x1="1519.9779" y1="-916.2059" x2="1498.2822" y2="-929.7158" gradientTransform="matrix(0.9493 0.3144 -0.3144 0.9493 -45.9042 584.6732)">
				<stop  offset="9.523810e-02" style="stop-color:#9F00AA"/>
				<stop  offset="0.5238" style="stop-color:#6B00AA"/>
				<stop  offset="0.7206" style="stop-color:#560089"/>
				<stop  offset="1" style="stop-color:#350055"/>
			</linearGradient>
			<path id="_x31_8" style="fill:url(#_x31_8_00000032632372865476513820000001908745576248769185_);" d="M1677.9,182
				c-1.1,3.4-1.4,3.7-3.6,2.9c-2.2-0.7-7.3-4.3-3.8-7.5c2.7-2.4,2.3-5.7,4-4.1C1678.3,177.1,1679.1,178.6,1677.9,182z"/>
			
				<radialGradient id="_x31_7_00000038403354441435181310000007300711441617299605_" cx="1521.5649" cy="-929.2962" r="17.3365" gradientTransform="matrix(0.9493 0.3144 -0.3144 0.9493 -45.9042 584.6732)" gradientUnits="userSpaceOnUse">
				<stop  offset="9.523810e-02" style="stop-color:#9F00AA"/>
				<stop  offset="0.5238" style="stop-color:#6B00AA"/>
				<stop  offset="0.7206" style="stop-color:#560089"/>
				<stop  offset="1" style="stop-color:#350055"/>
			</radialGradient>
			<path id="_x31_7" style="fill:url(#_x31_7_00000038403354441435181310000007300711441617299605_);" d="M1685.4,174.2
				c-1.1,3.4-2.5,3.5-4.7,2.8c-2.2-0.7-6-4.2-2.4-7.4c2.7-2.4,4.6-6,6.7-5.3C1691.2,166.4,1686.5,170.8,1685.4,174.2z"/>
			
				<radialGradient id="_x31_6_00000173143349003104270070000011447525090013693062_" cx="1532.5721" cy="-827.3479" r="105.3558" gradientTransform="matrix(0.9493 0.3144 -0.3144 0.9493 -45.9042 584.6732)" gradientUnits="userSpaceOnUse">
				<stop  offset="9.523810e-02" style="stop-color:#9F00AA"/>
				<stop  offset="0.5238" style="stop-color:#6B00AA"/>
				<stop  offset="0.6692" style="stop-color:#560089"/>
				<stop  offset="0.8757" style="stop-color:#350055"/>
			</radialGradient>
			<path id="_x31_6" style="fill:url(#_x31_6_00000173143349003104270070000011447525090013693062_);" d="M1647.8,213.5
				c4.5,2.8,3.6,28.4-5.4,34.1c-5.3,3.3-31.2-3-30.1-14.9c0.2-2.3,3.3-17.2,8.6-20.5C1626.1,208.9,1642.8,210.3,1647.8,213.5z"/>
			
				<linearGradient id="_x31_5_00000034072684985895827780000007819261022969149827_" gradientUnits="userSpaceOnUse" x1="1551.9078" y1="-945.3882" x2="1542.9752" y2="-948.8621" gradientTransform="matrix(0.9493 0.3144 -0.3144 0.9493 -45.9042 584.6732)">
				<stop  offset="0" style="stop-color:#9F00AA"/>
				<stop  offset="0.4127" style="stop-color:#6B00AA"/>
				<stop  offset="0.6554" style="stop-color:#560089"/>
				<stop  offset="1" style="stop-color:#350055"/>
			</linearGradient>
			<path id="_x31_5" style="display:none;fill:url(#_x31_5_00000034072684985895827780000007819261022969149827_);" d="
				M1730.9,178.4c-6.1-1.5-6.1-1.7-8.3-3.1c0-0.6,0.1-1,0.2-1.6C1723.6,174.4,1727.5,177.5,1730.9,178.4z"/>
		</g>
		<g id="_x31_3" style="&st0;">
			
				<image style="display:inline;overflow:visible;" width="108" height="107" xlink:href="C0FC8FE4.png"  transform="matrix(1 0 0 1 1682 124)">
			</image>
		</g>
		<path id="_x31_2" style="&st20;" d="M1772.2,203.2c-0.2,0.7-0.2,1.5,0.2,2.2c0.8,1.3,2.2,3.1,3.3,1.4c1.7-2.5,2.6-2.9,1.6-4.8
			c-0.6-1.2-2.3-0.9-3.5-0.5C1773,201.8,1772.4,202.4,1772.2,203.2L1772.2,203.2z"/>
		<path id="_x31_0" style="&st21;" d="M1559.9,256.6c-0.4-0.1-0.9,0.1-1.2,0.4c-0.7,0.6-1.5,1.7-0.5,2.2c1.6,0.7,1.9,1.3,2.8,0.4
			c0.6-0.5,0.3-1.5,0-2.2C1560.8,257,1560.4,256.7,1559.9,256.6L1559.9,256.6z"/>
		<path id="_x39_" style="&st20;" d="M1593.1,300.4c-0.7-0.4-1.5-0.4-2.2-0.1c-1.4,0.6-3.4,1.7-1.9,3.1c2.2,2.1,2.4,3,4.5,2.3
			c1.2-0.4,1.2-2.1,1.1-3.3C1594.3,301.5,1593.8,300.8,1593.1,300.4L1593.1,300.4z"/>
		<path id="_x37_" style="&st21;" d="M1745.5,161.4c0.1-0.4,0.1-0.9-0.2-1.3c-0.5-0.8-1.5-1.8-2.1-0.8c-1,1.4-1.6,1.6-0.9,2.7
			c0.4,0.7,1.5,0.5,2.2,0.3C1745,162.2,1745.4,161.9,1745.5,161.4L1745.5,161.4z"/>
		<g id="_x36_">
			
				<radialGradient id="SVGID_1_" cx="1478.0138" cy="-889.5862" r="46.3028" gradientTransform="matrix(0.9493 0.3144 -0.3144 0.9493 -45.9042 584.6732)" gradientUnits="userSpaceOnUse">
				<stop  offset="0" style="stop-color:#F7D4FF"/>
				<stop  offset="1" style="stop-color:#350055;stop-opacity:0"/>
			</radialGradient>
			<circle style="&st22;" cx="1636.8" cy="204.8" r="59.9"/>
		</g>
	</g>
	<polyline id="_x33_" style="&st4;" points="0,1080 0,1080 0,1080 0,1080 	"/>
	<polygon id="_x32_" style="&st4;" points="1920,0 1920,0 1920,0 	"/>
	
		<radialGradient id="_x31__00000121237289800245965800000016528263292761953442_" cx="1566.8011" cy="-871.4683" r="14.0102" gradientTransform="matrix(1.5783 0 0 1.4146 -749.7395 1473.8213)" gradientUnits="userSpaceOnUse">
		<stop  offset="9.523810e-02" style="stop-color:#9F00AA"/>
		<stop  offset="0.5238" style="stop-color:#6B00AA"/>
		<stop  offset="0.6692" style="stop-color:#560089"/>
		<stop  offset="0.8757" style="stop-color:#350055"/>
	</radialGradient>
	<path id="_x31_" style="display:inline;fill:url(#_x31__00000121237289800245965800000016528263292761953442_);" d="M1722.7,237
		c0,3.2-4.6,5.9-10.3,5.9c-5.7,0-10.3-2.6-10.3-5.9c0-3.2,7.4-9.2,13.1-9.2C1720.9,227.8,1722.7,233.8,1722.7,237z"/>
	
		<linearGradient id="_x31_9_00000126300244961405747240000013895542453733193363_" gradientUnits="userSpaceOnUse" x1="1671.0361" y1="335.2213" x2="1668.5778" y2="323.02">
		<stop  offset="9.523810e-02" style="stop-color:#9F00AA"/>
		<stop  offset="0.5238" style="stop-color:#6B00AA"/>
		<stop  offset="0.6692" style="stop-color:#560089"/>
		<stop  offset="0.8757" style="stop-color:#350055"/>
	</linearGradient>
	
		<path id="_x31_9_00000036973658960897633590000000154865709696991649_" style="display:inline;fill:url(#_x31_9_00000126300244961405747240000013895542453733193363_);" d="
		M1681.3,331.4c-0.7,2.3-8.4,1-14.6-1.1c-6.2-2.1-9.4-3-9.4-5.6c0-3.8,9.1-6.2,15.4-4.2C1678.8,322.6,1682.6,327.3,1681.3,331.4z"/>
</g>
<g id="foguete" style="&st0;">
	<g style="&st1;">
		
			<linearGradient id="SVGID_00000084500773379695630200000015334718810781603007_" gradientUnits="userSpaceOnUse" x1="1037.7133" y1="647.6111" x2="904.0112" y2="645.3353">
			<stop  offset="0" style="stop-color:#8566B2"/>
			<stop  offset="7.111470e-02" style="stop-color:#896AB4"/>
			<stop  offset="0.1485" style="stop-color:#9378BB"/>
			<stop  offset="0.2288" style="stop-color:#A58DC7"/>
			<stop  offset="0.3111" style="stop-color:#BEACD7"/>
			<stop  offset="0.3942" style="stop-color:#DDD2EC"/>
			<stop  offset="0.4218" style="stop-color:#E9E1F4"/>
			<stop  offset="0.5228" style="stop-color:#DDD2EC"/>
			<stop  offset="0.7181" style="stop-color:#BCAAD6"/>
			<stop  offset="0.9859" style="stop-color:#886AB4"/>
			<stop  offset="1" style="stop-color:#8566B2"/>
		</linearGradient>
		<path style="fill:url(#SVGID_00000084500773379695630200000015334718810781603007_);" d="M1046.2,634.4l-12.2,135.7
			c0,0-16.7,31.5-63.6,31.5c-46.9,0-54.6-31.6-54.6-31.6l-12.2-135.7c-0.8-27.8,11.8-57.6,26.6-82.7c1.2-2,2.3-3.9,3.5-5.8
			c19.4-31.5,41.1-54.4,41.1-54.4l0,0.1c0,0,21.5,22.7,40.9,54c1.5,2.4,2.9,4.8,4.4,7.3C1034.8,577.7,1047,607,1046.2,634.4z"/>
		
			<linearGradient id="SVGID_00000175296959487662372800000005563051168740703640_" gradientUnits="userSpaceOnUse" x1="954.8246" y1="520.4067" x2="973.1841" y2="529.9637">
			<stop  offset="3.888407e-02" style="stop-color:#5C20C2"/>
			<stop  offset="0.2448" style="stop-color:#9054E7"/>
			<stop  offset="0.3599" style="stop-color:#7F45D8"/>
			<stop  offset="0.5086" style="stop-color:#7138CB"/>
			<stop  offset="0.6908" style="stop-color:#6830C3"/>
			<stop  offset="1" style="stop-color:#662EC1"/>
		</linearGradient>
		<path style="fill:url(#SVGID_00000175296959487662372800000005563051168740703640_);" d="M1015.9,545.5
			c-2.6,3.5-13.7,15.3-41.8,15.3c-27.3,0-37.5-11.1-40.2-15c19.4-31.5,41.1-54.4,41.1-54.4l0,0.1
			C975,491.5,996.5,514.2,1015.9,545.5z"/>
	</g>
	
		<linearGradient id="SVGID_00000156566973047141572140000013641188409048168370_" gradientUnits="userSpaceOnUse" x1="926.0896" y1="646.5093" x2="935.1021" y2="638.8292">
		<stop  offset="0" style="stop-color:#94F4FF"/>
		<stop  offset="1" style="stop-color:#3FB6FF"/>
	</linearGradient>
	<path style="display:inline;fill:url(#SVGID_00000156566973047141572140000013641188409048168370_);" d="M948.3,640.8
		c0,14.1-6.9,25.5-15.5,25.5c-5.3,0-10.1-4.5-12.8-11.2c-1.2-2.9-2-6.3-2.4-9.9c-0.2-1.4-0.2-2.9-0.2-4.4c0-14.1,6.9-25.5,15.5-25.5
		c0.5,0,0.9,0,1.3,0.1c2.1,0.3,4.1,1.3,5.8,2.8c0.3,0.3,0.7,0.6,1,0.9c2.8,2.8,5,7,6.2,12.1C947.9,634.1,948.3,637.4,948.3,640.8z"
		/>
	
		<linearGradient id="SVGID_00000150788492277439661070000015499034204064922808_" gradientUnits="userSpaceOnUse" x1="894.3617" y1="592.8494" x2="944.9717" y2="654.7761">
		<stop  offset="0" style="stop-color:#D4F4FF"/>
		<stop  offset="1" style="stop-color:#FFFFFF;stop-opacity:0"/>
	</linearGradient>
	<path style="display:inline;fill:url(#SVGID_00000150788492277439661070000015499034204064922808_);" d="M947.2,631.1L920,655
		c-1.2-2.9-2-6.3-2.4-9.9c-0.2-1.4-0.2-2.9-0.2-4.4c0-14.1,6.9-25.5,15.5-25.5c0.5,0,0.9,0,1.3,0.1c2.1,0.3,4.1,1.3,5.8,2.8
		c0.3,0.3,0.7,0.6,1,0.9C943.7,621.9,945.9,626.1,947.2,631.1z"/>
	
		<linearGradient id="SVGID_00000116935571175489215470000003007867920424368043_" gradientUnits="userSpaceOnUse" x1="1064.6956" y1="845.922" x2="1016.4348" y2="708.9655">
		<stop  offset="0" style="stop-color:#C094FF"/>
		<stop  offset="0.537" style="stop-color:#D4E6FF"/>
		<stop  offset="1" style="stop-color:#A28AC5"/>
	</linearGradient>
	<path style="display:inline;fill:url(#SVGID_00000116935571175489215470000003007867920424368043_);" d="M1010.3,706.3
		c0,0,15.5,8.1,24.7,29.6c9.3,21.4,27.2,76.9,27.2,76.9s8.8,25,2,59.7"/>
	
		<linearGradient id="SVGID_00000079483654815175466100000003893763497695490730_" gradientUnits="userSpaceOnUse" x1="1033.3037" y1="710.5171" x2="1070.7482" y2="710.5171">
		<stop  offset="0" style="stop-color:#9F00AA"/>
		<stop  offset="0.4127" style="stop-color:#6B00AA"/>
		<stop  offset="0.6554" style="stop-color:#560089"/>
		<stop  offset="1" style="stop-color:#350055"/>
	</linearGradient>
	<path style="display:inline;fill:url(#SVGID_00000079483654815175466100000003893763497695490730_);" d="M1044.3,663.3
		c0,0,25,37,26,50s0,44.4,0,44.4l-37-19.4L1044.3,663.3z"/>
	
		<linearGradient id="SVGID_00000142148394700391457800000003941152620560040862_" gradientUnits="userSpaceOnUse" x1="879.9507" y1="717.0418" x2="916.669" y2="717.0418">
		<stop  offset="0" style="stop-color:#9F00AA"/>
		<stop  offset="0.4127" style="stop-color:#6B00AA"/>
		<stop  offset="0.6554" style="stop-color:#560089"/>
		<stop  offset="1" style="stop-color:#350055"/>
	</linearGradient>
	<path style="display:inline;fill:url(#SVGID_00000142148394700391457800000003941152620560040862_);" d="M906.2,663.2l10.5,89.9
		L880,770.9l0.4-45.5C880.4,725.5,889.8,691.3,906.2,663.2z"/>
	<g style="&st1;">
		
			<linearGradient id="SVGID_00000111190494430585383470000011213105710878422695_" gradientUnits="userSpaceOnUse" x1="877.8206" y1="826.7305" x2="940.4293" y2="688.6">
			<stop  offset="0" style="stop-color:#5208AB"/>
			<stop  offset="1" style="stop-color:#30075C"/>
		</linearGradient>
		<path style="fill:url(#SVGID_00000111190494430585383470000011213105710878422695_);" d="M935.4,701.3l-15,16
			c-4.1,3.7-7.1,8.3-8.9,13.5l-30.4,86.1c-0.6,1.6-0.8,3.2-0.8,4.9l0.9,46.5l-10-5v-45c0,0,10.1-48.6,27-86c8.1-18,19-30,28-36
			L935.4,701.3z"/>
		
			<linearGradient id="SVGID_00000031911745979000775390000002429724199743274926_" gradientUnits="userSpaceOnUse" x1="933.6453" y1="764.4496" x2="878.0801" y2="809.4496">
			<stop  offset="0" style="stop-color:#5208AB"/>
			<stop  offset="1" style="stop-color:#30075C"/>
		</linearGradient>
		<path style="fill:url(#SVGID_00000031911745979000775390000002429724199743274926_);" d="M881.4,868.3l53.9-83v-83.2
			c0,0-17.9,9.9-26.9,35s-25.9,72.1-28.1,82.2C878.2,829.4,879.6,866.3,881.4,868.3z"/>
	</g>
	<g style="&st1;">
		
			<linearGradient id="SVGID_00000050649724449244884180000007318436122970726784_" gradientUnits="userSpaceOnUse" x1="-3587.647" y1="830.9469" x2="-3525.0381" y2="692.8165" gradientTransform="matrix(-1 0 0 1 -2519.8599 0)">
			<stop  offset="0" style="stop-color:#5208AB"/>
			<stop  offset="1" style="stop-color:#30075C"/>
		</linearGradient>
		<path style="fill:url(#SVGID_00000050649724449244884180000007318436122970726784_);" d="M1010.2,705.5l15,16
			c4.1,3.7,7.1,8.3,8.9,13.5l30.4,86.1c0.6,1.6,0.8,3.2,0.8,4.9l-0.9,46.5l10-5v-45c0,0-10.1-48.6-27-86c-8.1-18-19-30-28-36
			L1010.2,705.5z"/>
		
			<linearGradient id="SVGID_00000038415577600429917440000014449406022447763337_" gradientUnits="userSpaceOnUse" x1="-3531.822" y1="768.6661" x2="-3587.3872" y2="813.6661" gradientTransform="matrix(-1 0 0 1 -2519.8599 0)">
			<stop  offset="0" style="stop-color:#5208AB"/>
			<stop  offset="1" style="stop-color:#30075C"/>
		</linearGradient>
		<path style="fill:url(#SVGID_00000038415577600429917440000014449406022447763337_);" d="M1064.2,872.5l-53.9-83v-83.2
			c0,0,17.9,9.9,26.9,35c9.1,25.2,25.9,72.1,28.1,82.2C1067.4,833.6,1066,870.5,1064.2,872.5z"/>
	</g>
	
		<linearGradient id="SVGID_00000001654769484755765720000003966329065349310087_" gradientUnits="userSpaceOnUse" x1="1077.6545" y1="866.6796" x2="1008.119" y2="707.6052">
		<stop  offset="0" style="stop-color:#6F00FF"/>
		<stop  offset="3.339173e-02" style="stop-color:#7104FF"/>
		<stop  offset="6.973821e-02" style="stop-color:#7812FE"/>
		<stop  offset="0.1075" style="stop-color:#8427FD"/>
		<stop  offset="0.1462" style="stop-color:#9546FC"/>
		<stop  offset="0.1857" style="stop-color:#AA6DFA"/>
		<stop  offset="0.2257" style="stop-color:#C49DF7"/>
		<stop  offset="0.2656" style="stop-color:#E2D5F5"/>
		<stop  offset="0.2736" style="stop-color:#E9E1F4"/>
		<stop  offset="0.3" style="stop-color:#DED2EF"/>
		<stop  offset="0.351" style="stop-color:#C2AAE0"/>
		<stop  offset="0.4215" style="stop-color:#9469C9"/>
		<stop  offset="0.5081" style="stop-color:#5610AA"/>
		<stop  offset="0.5159" style="stop-color:#5008A7"/>
		<stop  offset="0.5724" style="stop-color:#7B44BE"/>
		<stop  offset="0.7023" style="stop-color:#E5D8F8"/>
		<stop  offset="0.7169" style="stop-color:#F1E9FF"/>
		<stop  offset="0.8589" style="stop-color:#A376DF"/>
		<stop  offset="1" style="stop-color:#5300BF"/>
	</linearGradient>
	
		<path style="display:inline;fill:none;stroke:url(#SVGID_00000001654769484755765720000003966329065349310087_);stroke-miterlimit:10;" d="
		M1010.8,706.8c0,0,15.4,7.2,24.7,28.6s27.3,78.4,27.3,78.4s9,22,1.9,58.3"/>
	
		<linearGradient id="SVGID_00000092430606670428038860000012250186256025733760_" gradientUnits="userSpaceOnUse" x1="-3334.9778" y1="861.8417" x2="-3404.5134" y2="702.7673" gradientTransform="matrix(-1 0 0 1 -2466.4397 0)">
		<stop  offset="0" style="stop-color:#6F00FF"/>
		<stop  offset="3.339173e-02" style="stop-color:#7104FF"/>
		<stop  offset="6.973821e-02" style="stop-color:#7812FE"/>
		<stop  offset="0.1075" style="stop-color:#8427FD"/>
		<stop  offset="0.1462" style="stop-color:#9546FC"/>
		<stop  offset="0.1857" style="stop-color:#AA6DFA"/>
		<stop  offset="0.2257" style="stop-color:#C49DF7"/>
		<stop  offset="0.2656" style="stop-color:#E2D5F5"/>
		<stop  offset="0.2736" style="stop-color:#E9E1F4"/>
		<stop  offset="0.3" style="stop-color:#DED2EF"/>
		<stop  offset="0.351" style="stop-color:#C2AAE0"/>
		<stop  offset="0.4215" style="stop-color:#9469C9"/>
		<stop  offset="0.5081" style="stop-color:#5610AA"/>
		<stop  offset="0.5159" style="stop-color:#5008A7"/>
		<stop  offset="0.5724" style="stop-color:#7B44BE"/>
		<stop  offset="0.7023" style="stop-color:#E5D8F8"/>
		<stop  offset="0.7169" style="stop-color:#F1E9FF"/>
		<stop  offset="0.8589" style="stop-color:#A376DF"/>
		<stop  offset="1" style="stop-color:#5300BF"/>
	</linearGradient>
	
		<path style="display:inline;fill:none;stroke:url(#SVGID_00000092430606670428038860000012250186256025733760_);stroke-miterlimit:10;" d="
		M935.4,702c0,0-15.4,7.2-24.7,28.6S883.4,809,883.4,809s-9,22-1.9,58.3"/>
	<g style="&st1;">
		
			<linearGradient id="SVGID_00000090991083999912397590000013746858176647669438_" gradientUnits="userSpaceOnUse" x1="927.4105" y1="631.2838" x2="950.8887" y2="654.2403">
			<stop  offset="0" style="stop-color:#743AA9"/>
			<stop  offset="1" style="stop-color:#291537"/>
		</linearGradient>
		<path style="fill:url(#SVGID_00000090991083999912397590000013746858176647669438_);" d="M936.5,615H931c0,0,8-1,14,15
			c0,0,10,29-11,37c3,0,10.1-0.9,10.1-0.9s10.2-4.1,7.9-27.1s-14-24-14-24H936.5z"/>
		
			<linearGradient id="SVGID_00000074435007288242964280000015649528955266529679_" gradientUnits="userSpaceOnUse" x1="916.3835" y1="652.4732" x2="947.9931" y2="629.4479">
			<stop  offset="0" style="stop-color:#743AA9"/>
			<stop  offset="1" style="stop-color:#291537"/>
		</linearGradient>
		
			<path style="fill:none;stroke:url(#SVGID_00000074435007288242964280000015649528955266529679_);stroke-width:2;stroke-miterlimit:10;" d="
			M946.5,639.3c1.2,13.8-3.6,25.8-12,26.7c-8.4,0.9-16-8.5-17-23.5c-0.9-13.8,4.6-26.1,13-27S945.3,625.5,946.5,639.3z"/>
	</g>
</g>
<g id="Layer_6" style="&st0;">
	<g style="&st40;">
		<g>
			<path style="&st41;" d="M104.5,89.8c4,5.2,4.1,12.5,0,17.7C100.5,102.3,100.5,95,104.5,89.8L104.5,89.8z"/>
		</g>
		<g>
			<path style="&st41;" d="M111.6,98c-4.4,4-11,4.1-15.4,0C100.6,94,107.2,94,111.6,98L111.6,98z"/>
		</g>
	</g>
	<g style="&st40;">
		<g>
			<path style="&st41;" d="M272.8,102c4.1,12,4.1,28.5,0,40.4C268.7,130.4,268.8,114,272.8,102L272.8,102z"/>
		</g>
		<g>
			<path style="&st41;" d="M289,120.8c-10.4,4.1-24.7,4.1-35.1,0C264.3,116.8,278.6,116.8,289,120.8L289,120.8z"/>
		</g>
	</g>
	<g style="&st40;">
		<g>
			<path style="&st41;" d="M318,117.6c4,5.2,4.1,12.5,0,17.7C313.9,130.1,313.9,122.8,318,117.6L318,117.6z"/>
		</g>
		<g>
			<path style="&st41;" d="M325.1,125.9c-4.4,4-11,4.1-15.4,0C314.1,121.8,320.7,121.8,325.1,125.9L325.1,125.9z"/>
		</g>
	</g>
	<g style="&st40;">
		<g>
			<path style="&st41;" d="M241.3,188.8c4,5.2,4.1,12.5,0,17.7C237.2,201.3,237.2,194,241.3,188.8L241.3,188.8z"/>
		</g>
		<g>
			<path style="&st41;" d="M248.4,197.1c-4.4,4-11,4.1-15.4,0C237.4,193,244,193.1,248.4,197.1L248.4,197.1z"/>
		</g>
	</g>
	<g style="&st42;">
		<g>
			<path style="&st41;" d="M326,396.2c4.1,12,4.1,28.5,0,40.4C321.9,424.7,322,408.2,326,396.2L326,396.2z"/>
		</g>
		<g>
			<path style="&st41;" d="M342.2,415.1c-10.4,4.1-24.7,4.1-35.1,0C317.5,411,331.8,411.1,342.2,415.1L342.2,415.1z"/>
		</g>
	</g>
	<g style="&st40;">
		<g>
			<path style="&st41;" d="M481.4,245.7c4,5.2,4.1,12.5,0,17.7C477.3,258.2,477.4,250.9,481.4,245.7L481.4,245.7z"/>
		</g>
		<g>
			<path style="&st41;" d="M488.5,254c-4.4,4-11,4.1-15.4,0C477.5,249.9,484.1,250,488.5,254L488.5,254z"/>
		</g>
	</g>
	<g style="&st42;">
		<g>
			<path style="&st41;" d="M1286.1,436.4c4.1,12.6,4.1,29.9,0,42.5C1282,466.3,1282,449,1286.1,436.4L1286.1,436.4z"/>
		</g>
		<g>
			<path style="&st41;" d="M1303.1,456.3c-10.9,4.1-25.9,4.1-36.8,0C1277.1,452.2,1292.2,452.2,1303.1,456.3L1303.1,456.3z"/>
		</g>
	</g>
	<g style="&st42;">
		<g>
			<path style="&st41;" d="M362.9,337c4,5.2,4.1,12.5,0,17.7C358.8,349.5,358.8,342.2,362.9,337L362.9,337z"/>
		</g>
		<g>
			<path style="&st41;" d="M370,345.3c-4.4,4-11,4.1-15.4,0C359,341.2,365.6,341.3,370,345.3L370,345.3z"/>
		</g>
	</g>
	<g style="&st42;">
		<g>
			<path style="&st41;" d="M124.3,378.9c4,5.2,4.1,12.5,0,17.7C120.2,391.4,120.2,384.1,124.3,378.9L124.3,378.9z"/>
		</g>
		<g>
			<path style="&st41;" d="M131.4,387.2c-4.4,4-11,4.1-15.4,0C120.4,383.1,127,383.1,131.4,387.2L131.4,387.2z"/>
		</g>
	</g>
	<g style="&st42;">
		<g>
			<path style="&st41;" d="M221.3,491.8c4.1,12,4.1,28.5,0,40.4C217.2,520.3,217.2,503.8,221.3,491.8L221.3,491.8z"/>
		</g>
		<g>
			<path style="&st41;" d="M237.4,510.7c-10.4,4.1-24.7,4.1-35.1,0C212.7,506.6,227.1,506.6,237.4,510.7L237.4,510.7z"/>
		</g>
	</g>
	<g style="&st40;">
		<g>
			<path style="&st41;" d="M510.2,149.9c4.1,12,4.1,28.5,0,40.4C506.1,178.3,506.2,161.9,510.2,149.9L510.2,149.9z"/>
		</g>
		<g>
			<path style="&st41;" d="M526.4,168.7c-10.4,4.1-24.7,4.1-35.1,0C501.7,164.7,516,164.7,526.4,168.7L526.4,168.7z"/>
		</g>
	</g>
	<g style="&st40;">
		<g>
			<path style="&st41;" d="M537.4,92.4c4,5.2,4.1,12.5,0,17.7C533.3,104.9,533.4,97.6,537.4,92.4L537.4,92.4z"/>
		</g>
		<g>
			<path style="&st41;" d="M544.5,100.6c-4.4,4-11,4.1-15.4,0C533.5,96.6,540.1,96.6,544.5,100.6L544.5,100.6z"/>
		</g>
	</g>
	<g style="&st40;">
		<g>
			<path style="&st41;" d="M1231.8,87.3c4.1,12.6,4.1,29.9,0,42.5C1227.7,117.2,1227.8,99.9,1231.8,87.3L1231.8,87.3z"/>
		</g>
		<g>
			<path style="&st41;" d="M1248.8,107.2c-10.9,4.1-25.9,4.1-36.8,0C1222.9,103.1,1237.9,103.1,1248.8,107.2L1248.8,107.2z"/>
		</g>
	</g>
	<g style="&st40;">
		<g>
			<path style="&st41;" d="M164,274.3c4,5.2,4.1,12.5,0,17.7C160,286.9,160,279.6,164,274.3L164,274.3z"/>
		</g>
		<g>
			<path style="&st41;" d="M171.1,282.6c-4.4,4-11,4.1-15.4,0C160.1,278.6,166.8,278.6,171.1,282.6L171.1,282.6z"/>
		</g>
	</g>
	<g style="&st43;">
		<g>
			<path style="&st41;" d="M136.2,865.1c4.1,12,4.1,28.5,0,40.5C132.1,893.5,132.1,877.1,136.2,865.1L136.2,865.1z"/>
		</g>
		<g>
			<path style="&st41;" d="M152.4,883.9c-10.4,4.1-24.7,4.1-35.1,0C127.7,879.9,142,879.9,152.4,883.9L152.4,883.9z"/>
		</g>
	</g>
	<g style="&st42;">
		<g>
			<path style="&st41;" d="M506.8,556.3c4.1,12,4.1,28.5,0,40.4C502.7,584.7,502.7,568.3,506.8,556.3L506.8,556.3z"/>
		</g>
		<g>
			<path style="&st41;" d="M523,575.1c-10.4,4.1-24.7,4.1-35.1,0C498.3,571.1,512.6,571.1,523,575.1L523,575.1z"/>
		</g>
	</g>
	<g style="&st42;">
		<g>
			<path style="&st41;" d="M618.6,284.6c4,5.2,4.1,12.5,0,17.7C614.5,297.1,614.6,289.8,618.6,284.6L618.6,284.6z"/>
		</g>
		<g>
			<path style="&st41;" d="M625.7,292.8c-4.4,4-11,4.1-15.4,0C614.7,288.8,621.3,288.8,625.7,292.8L625.7,292.8z"/>
		</g>
	</g>
	<g style="&st42;">
		<g>
			<path style="&st41;" d="M1780.2,517.8c2.4,9.1,2.9,18.2,3,27.5c-0.1,9.3-0.6,18.4-3,27.5c-2.4-9.1-2.9-18.2-3-27.5
				C1777.3,536,1777.9,526.8,1780.2,517.8L1780.2,517.8z"/>
		</g>
		<g>
			<path style="&st41;" d="M1802.2,543.4c-14.1,4.1-33.5,4.1-47.7,0C1768.7,539.3,1788.1,539.4,1802.2,543.4L1802.2,543.4z"/>
		</g>
	</g>
	<g style="&st44;">
		<g>
			<path style="&st41;" d="M1806.8,621.1c2.4,9.1,2.9,18.2,3,27.5c-0.1,9.3-0.6,18.4-3,27.5c-2.4-9.1-2.9-18.2-3-27.5
				C1803.9,639.3,1804.5,630.1,1806.8,621.1L1806.8,621.1z"/>
		</g>
		<g>
			<path style="&st41;" d="M1828.8,646.7c-14.1,4.1-33.5,4.1-47.7,0C1795.3,642.6,1814.7,642.7,1828.8,646.7L1828.8,646.7z"/>
		</g>
	</g>
	<g style="&st40;">
		<g>
			<path style="&st41;" d="M563.2,118.8c4.1,12,4.1,28.5,0,40.4C559.1,147.2,559.1,130.8,563.2,118.8L563.2,118.8z"/>
		</g>
		<g>
			<path style="&st41;" d="M579.4,137.7c-10.4,4.1-24.7,4.1-35.1,0C554.7,133.6,569,133.6,579.4,137.7L579.4,137.7z"/>
		</g>
	</g>
	<g style="&st40;">
		<g>
			<path style="&st41;" d="M143.9,75.6c4.1,12,4.1,28.5,0,40.4C139.8,104.1,139.9,87.6,143.9,75.6L143.9,75.6z"/>
		</g>
		<g>
			<path style="&st41;" d="M160.1,94.5c-10.4,4.1-24.7,4.1-35.1,0C135.4,90.4,149.7,90.5,160.1,94.5L160.1,94.5z"/>
		</g>
	</g>
	<g style="&st40;">
		<g>
			<path style="&st41;" d="M1078.1,114.4c4.1,12.6,4.1,29.9,0,42.5C1074.1,144.2,1074.1,127,1078.1,114.4L1078.1,114.4z"/>
		</g>
		<g>
			<path style="&st41;" d="M1095.1,134.2c-10.9,4.1-25.9,4.1-36.8,0C1069.2,130.1,1084.2,130.1,1095.1,134.2L1095.1,134.2z"/>
		</g>
	</g>
	<g style="&st42;">
		<g>
			<path style="&st41;" d="M1138.4,439.9c-4-5.5-4.1-13.1,0-18.6C1142.5,426.8,1142.4,434.4,1138.4,439.9L1138.4,439.9z"/>
		</g>
		<g>
			<path style="&st41;" d="M1145.8,431.2c-4.7,4-11.5,4.1-16.1,0C1134.3,427.2,1141.2,427.2,1145.8,431.2L1145.8,431.2z"/>
		</g>
	</g>
	<g style="&st42;">
		<g>
			<path style="&st41;" d="M1362.6,410.7c-4-5.5-4.1-13.1,0-18.6C1366.6,397.5,1366.6,405.2,1362.6,410.7L1362.6,410.7z"/>
		</g>
		<g>
			<path style="&st41;" d="M1370,402c-4.7,4-11.5,4.1-16.1,0C1358.5,397.9,1365.3,397.9,1370,402L1370,402z"/>
		</g>
	</g>
	<g style="&st42;">
		<g>
			<path style="&st41;" d="M1282,335.9c-4-5.5-4.1-13.1,0-18.6C1286.1,322.7,1286.1,330.4,1282,335.9L1282,335.9z"/>
		</g>
		<g>
			<path style="&st41;" d="M1289.5,327.2c-4.7,4-11.5,4.1-16.1,0C1278,323.1,1284.8,323.2,1289.5,327.2L1289.5,327.2z"/>
		</g>
	</g>
	<g style="&st42;">
		<g>
			<path style="&st41;" d="M1840.2,432.7c-4-7.1-4.1-17,0-24.1C1844.2,415.7,1844.2,425.6,1840.2,432.7L1840.2,432.7z"/>
		</g>
		<g>
			<path style="&st41;" d="M1849.8,421.5c-6.1,4-14.8,4.1-20.9,0C1835,417.4,1843.7,417.4,1849.8,421.5L1849.8,421.5z"/>
		</g>
	</g>
	<g style="&st40;">
		<g>
			<path style="&st41;" d="M1159.1,136.3c-4-5.5-4.1-13.1,0-18.6C1163.2,123.1,1163.2,130.8,1159.1,136.3L1159.1,136.3z"/>
		</g>
		<g>
			<path style="&st41;" d="M1166.6,127.6c-4.7,4-11.5,4.1-16.1,0C1155.1,123.5,1161.9,123.5,1166.6,127.6L1166.6,127.6z"/>
		</g>
	</g>
	<g style="&st42;">
		<g>
			<path style="&st41;" d="M1756.3,540.2c-4-7.1-4.1-17,0-24.1C1760.4,523.2,1760.3,533.1,1756.3,540.2L1756.3,540.2z"/>
		</g>
		<g>
			<path style="&st41;" d="M1765.9,528.9c-6.1,4-14.8,4.1-20.9,0C1751.1,524.9,1759.8,524.9,1765.9,528.9L1765.9,528.9z"/>
		</g>
	</g>
	<g style="&st40;">
		<g>
			<path style="&st41;" d="M1200.9,246.1c-4-5.5-4.1-13.1,0-18.6C1205,232.9,1204.9,240.6,1200.9,246.1L1200.9,246.1z"/>
		</g>
		<g>
			<path style="&st41;" d="M1208.3,237.4c-4.7,4-11.5,4.1-16.1,0C1196.8,233.3,1203.7,233.3,1208.3,237.4L1208.3,237.4z"/>
		</g>
	</g>
	<g style="&st40;">
		<g>
			<path style="&st41;" d="M1584.7,63.9c-4-7.1-4.1-17,0-24.1C1588.8,46.9,1588.7,56.8,1584.7,63.9L1584.7,63.9z"/>
		</g>
		<g>
			<path style="&st41;" d="M1594.3,52.7c-6.1,4-14.8,4.1-20.9,0C1579.6,48.6,1588.2,48.6,1594.3,52.7L1594.3,52.7z"/>
		</g>
	</g>
	<g style="&st42;">
		<g>
			<path style="&st41;" d="M85.8,486c4,5.2,4.1,12.5,0,17.7C81.7,498.6,81.8,491.3,85.8,486L85.8,486z"/>
		</g>
		<g>
			<path style="&st41;" d="M92.9,494.3c-4.4,4-11,4.1-15.4,0C81.9,490.3,88.5,490.3,92.9,494.3L92.9,494.3z"/>
		</g>
	</g>
	<g style="&st42;">
		<g>
			<path style="&st41;" d="M299.3,513.9c4,5.2,4.1,12.5,0,17.7C295.2,526.4,295.2,519.1,299.3,513.9L299.3,513.9z"/>
		</g>
		<g>
			<path style="&st41;" d="M306.4,522.2c-4.4,4-11,4.1-15.4,0C295.4,518.1,302,518.1,306.4,522.2L306.4,522.2z"/>
		</g>
	</g>
	<g style="&st44;">
		<g>
			<path style="&st41;" d="M222.6,585.1c4,5.2,4.1,12.5,0,17.7C218.5,597.6,218.5,590.3,222.6,585.1L222.6,585.1z"/>
		</g>
		<g>
			<path style="&st41;" d="M229.7,593.4c-4.4,4-11,4.1-15.4,0C218.7,589.3,225.3,589.3,229.7,593.4L229.7,593.4z"/>
		</g>
	</g>
	<g style="&st44;">
		<g>
			<path style="&st41;" d="M462.7,642c4,5.2,4.1,12.5,0,17.7C458.6,654.5,458.6,647.2,462.7,642L462.7,642z"/>
		</g>
		<g>
			<path style="&st41;" d="M469.8,650.3c-4.4,4-11,4.1-15.4,0C458.8,646.2,465.4,646.2,469.8,650.3L469.8,650.3z"/>
		</g>
	</g>
	<g style="&st44;">
		<g>
			<path style="&st41;" d="M344.2,733.3c4,5.2,4.1,12.5,0,17.7C340.1,745.8,340.1,738.5,344.2,733.3L344.2,733.3z"/>
		</g>
		<g>
			<path style="&st41;" d="M351.2,741.6c-4.4,4-11,4.1-15.4,0C340.3,737.5,346.9,737.5,351.2,741.6L351.2,741.6z"/>
		</g>
	</g>
	<g style="&st43;">
		<g>
			<path style="&st41;" d="M115.6,1026.7c4,7.1,4.1,17,0,24.1C111.6,1043.7,111.6,1033.8,115.6,1026.7L115.6,1026.7z"/>
		</g>
		<g>
			<path style="&st41;" d="M125.3,1037.9c-6.1,4-14.8,4.1-20.9,0C110.5,1033.8,119.2,1033.9,125.3,1037.9L125.3,1037.9z"/>
		</g>
	</g>
	<g style="&st42;">
		<g>
			<path style="&st41;" d="M518.7,488.7c4,5.2,4.1,12.5,0,17.7C514.6,501.2,514.6,493.9,518.7,488.7L518.7,488.7z"/>
		</g>
		<g>
			<path style="&st41;" d="M525.8,496.9c-4.4,4-11,4.1-15.4,0C514.8,492.9,521.4,492.9,525.8,496.9L525.8,496.9z"/>
		</g>
	</g>
	<g style="&st44;">
		<g>
			<path style="&st41;" d="M145.3,670.6c4,5.2,4.1,12.5,0,17.7C141.2,683.1,141.3,675.8,145.3,670.6L145.3,670.6z"/>
		</g>
		<g>
			<path style="&st41;" d="M152.4,678.9c-4.4,4-11,4.1-15.4,0C141.4,674.8,148,674.9,152.4,678.9L152.4,678.9z"/>
		</g>
	</g>
	<g style="&st44;">
		<g>
			<path style="&st41;" d="M599.9,680.8c4,5.2,4.1,12.5,0,17.7C595.8,693.4,595.8,686.1,599.9,680.8L599.9,680.8z"/>
		</g>
		<g>
			<path style="&st41;" d="M607,689.1c-4.4,4-11,4.1-15.4,0C596,685.1,602.6,685.1,607,689.1L607,689.1z"/>
		</g>
	</g>
	<g style="&st42;">
		<g>
			<path style="&st41;" d="M1048.8,509.3c4,5.5,4.1,13.1,0,18.6C1044.7,522.4,1044.7,514.8,1048.8,509.3L1048.8,509.3z"/>
		</g>
		<g>
			<path style="&st41;" d="M1056.2,518c-4.7,4-11.5,4.1-16.1,0C1044.7,513.9,1051.6,514,1056.2,518L1056.2,518z"/>
		</g>
	</g>
	<g style="&st42;">
		<g>
			<path style="&st41;" d="M1272.9,538.6c4,5.5,4.1,13.1,0,18.6C1268.9,551.7,1268.9,544,1272.9,538.6L1272.9,538.6z"/>
		</g>
		<g>
			<path style="&st41;" d="M1280.4,547.2c-4.7,4-11.5,4.1-16.1,0C1268.9,543.2,1275.7,543.2,1280.4,547.2L1280.4,547.2z"/>
		</g>
	</g>
	<g style="&st44;">
		<g>
			<path style="&st41;" d="M1192.4,613.4c4,5.5,4.1,13.1,0,18.6C1188.3,626.5,1188.3,618.8,1192.4,613.4L1192.4,613.4z"/>
		</g>
		<g>
			<path style="&st41;" d="M1199.8,622c-4.7,4-11.5,4.1-16.1,0C1188.4,618,1195.2,618,1199.8,622L1199.8,622z"/>
		</g>
	</g>
	<g style="&st43;">
		<g>
			<path style="&st41;" d="M1564.2,845.6c4,7.1,4.1,17,0,24.1C1560.1,862.6,1560.1,852.7,1564.2,845.6L1564.2,845.6z"/>
		</g>
		<g>
			<path style="&st41;" d="M1573.8,856.9c-6.1,4-14.8,4.1-20.9,0C1559,852.8,1567.7,852.8,1573.8,856.9L1573.8,856.9z"/>
		</g>
	</g>
	<g style="&st44;">
		<g>
			<path style="&st41;" d="M1320.1,769c4,5.5,4.1,13.1,0,18.6C1316,782.1,1316,774.5,1320.1,769L1320.1,769z"/>
		</g>
		<g>
			<path style="&st41;" d="M1327.5,777.7c-4.7,4-11.5,4.1-16.1,0C1316.1,773.6,1322.9,773.6,1327.5,777.7L1327.5,777.7z"/>
		</g>
	</g>
	<g style="&st44;">
		<g>
			<path style="&st41;" d="M1069.5,813c4,5.5,4.1,13.1,0,18.6C1065.5,826.1,1065.5,818.4,1069.5,813L1069.5,813z"/>
		</g>
		<g>
			<path style="&st41;" d="M1077,821.6c-4.7,4-11.5,4.1-16.1,0C1065.5,817.6,1072.3,817.6,1077,821.6L1077,821.6z"/>
		</g>
	</g>
	<g style="&st44;">
		<g>
			<path style="&st41;" d="M1640.3,637.2c4,7.1,4.1,17,0,24.1C1636.2,654.2,1636.2,644.3,1640.3,637.2L1640.3,637.2z"/>
		</g>
		<g>
			<path style="&st41;" d="M1649.9,648.4c-6.1,4-14.8,4.1-20.9,0C1635.1,644.3,1643.8,644.4,1649.9,648.4L1649.9,648.4z"/>
		</g>
	</g>
	<g style="&st44;">
		<g>
			<path style="&st41;" d="M1111.3,703.2c4,5.5,4.1,13.1,0,18.6C1107.2,716.3,1107.2,708.6,1111.3,703.2L1111.3,703.2z"/>
		</g>
		<g>
			<path style="&st41;" d="M1118.7,711.9c-4.7,4-11.5,4.1-16.1,0C1107.2,707.8,1114.1,707.8,1118.7,711.9L1118.7,711.9z"/>
		</g>
	</g>
	<g style="&st43;">
		<g>
			<path style="&st41;" d="M1750.7,898.4c4,7.1,4.1,17,0,24.1C1746.6,915.4,1746.6,905.5,1750.7,898.4L1750.7,898.4z"/>
		</g>
		<g>
			<path style="&st41;" d="M1760.3,909.7c-6.1,4-14.8,4.1-20.9,0C1745.6,905.6,1754.2,905.6,1760.3,909.7L1760.3,909.7z"/>
		</g>
	</g>
	<g style="&st43;">
		<g>
			<path style="&st41;" d="M156.1,886.1c-4-5.2-4.1-12.5,0-17.7C160.2,873.6,160.2,880.9,156.1,886.1L156.1,886.1z"/>
		</g>
		<g>
			<path style="&st41;" d="M163.2,877.8c-4.4,4-11,4.1-15.4,0C152.2,873.8,158.9,873.8,163.2,877.8L163.2,877.8z"/>
		</g>
	</g>
	<g style="&st40;">
		<g>
			<path style="&st41;" d="M373.6,213.5c-4-5.2-4.1-12.5,0-17.7C377.7,201,377.7,208.3,373.6,213.5L373.6,213.5z"/>
		</g>
		<g>
			<path style="&st41;" d="M380.7,205.2c-4.4,4-11,4.1-15.4,0C369.7,201.2,376.3,201.2,380.7,205.2L380.7,205.2z"/>
		</g>
	</g>
	<g style="&st42;">
		<g>
			<path style="&st41;" d="M320.7,537c-4-5.2-4.1-12.5,0-17.7C324.7,524.5,324.7,531.8,320.7,537L320.7,537z"/>
		</g>
		<g>
			<path style="&st41;" d="M327.7,528.7c-4.4,4-11,4.1-15.4,0C316.8,524.7,323.4,524.7,327.7,528.7L327.7,528.7z"/>
		</g>
	</g>
	<g style="&st42;">
		<g>
			<path style="&st41;" d="M1577.2,383.8c-4-2.7-4-7.8,0-10.4C1581.2,376,1581.2,381.2,1577.2,383.8L1577.2,383.8z"/>
		</g>
		<g>
			<path style="&st41;" d="M1581.4,379c-2.2,3.9-6.8,4-9,0C1574.6,375,1579.1,375,1581.4,379L1581.4,379z"/>
		</g>
	</g>
	<g style="&st40;">
		<g>
			<path style="&st41;" d="M1817.8,88c-4-7.1-4.1-17,0-24.1C1821.8,71,1821.8,80.9,1817.8,88L1817.8,88z"/>
		</g>
		<g>
			<path style="&st41;" d="M1827.4,76.7c-6.1,4-14.8,4.1-20.9,0C1812.6,72.6,1821.3,72.7,1827.4,76.7L1827.4,76.7z"/>
		</g>
	</g>
	<g style="&st40;">
		<g>
			<path style="&st41;" d="M1102.9,207.4c-4-5.5-4.1-13.1,0-18.6C1106.9,194.2,1106.9,201.9,1102.9,207.4L1102.9,207.4z"/>
		</g>
		<g>
			<path style="&st41;" d="M1110.3,198.7c-4.7,4-11.5,4.1-16.1,0C1098.8,194.6,1105.7,194.6,1110.3,198.7L1110.3,198.7z"/>
		</g>
	</g>
	<g style="&st42;">
		<g>
			<path style="&st41;" d="M1047.2,317.4c-4-5.5-4.1-13.1,0-18.6C1051.3,304.2,1051.3,311.9,1047.2,317.4L1047.2,317.4z"/>
		</g>
		<g>
			<path style="&st41;" d="M1054.7,308.7c-4.7,4-11.5,4.1-16.1,0C1043.2,304.6,1050,304.7,1054.7,308.7L1054.7,308.7z"/>
		</g>
	</g>
	<g style="&st40;">
		<g>
			<path style="&st41;" d="M704,109.9c-4-5.2-4.1-12.5,0-17.7C708.1,97.4,708.1,104.7,704,109.9L704,109.9z"/>
		</g>
		<g>
			<path style="&st41;" d="M711.1,101.6c-4.4,4-11,4.1-15.4,0C700.1,97.5,706.8,97.6,711.1,101.6L711.1,101.6z"/>
		</g>
	</g>
	<g style="&st44;">
		<g>
			<path style="&st41;" d="M697.1,631.4c-4-5.2-4.1-12.5,0-17.7C701.2,618.9,701.2,626.2,697.1,631.4L697.1,631.4z"/>
		</g>
		<g>
			<path style="&st41;" d="M704.2,623.1c-4.4,4-11,4.1-15.4,0C693.2,619.1,699.8,619.1,704.2,623.1L704.2,623.1z"/>
		</g>
	</g>
	<g style="&st44;">
		<g>
			<path style="&st41;" d="M711.9,605.2c4,5.2,4.1,12.5,0,17.7C707.8,617.7,707.9,610.4,711.9,605.2L711.9,605.2z"/>
		</g>
		<g>
			<path style="&st41;" d="M719,613.5c-4.4,4-11,4.1-15.4,0C708,609.4,714.6,609.4,719,613.5L719,613.5z"/>
		</g>
	</g>
	<g style="&st42;">
		<g>
			<path style="&st41;" d="M1582.1,397.7c-4-2.7-4-7.8,0-10.4C1586.1,389.9,1586.1,395,1582.1,397.7L1582.1,397.7z"/>
		</g>
		<g>
			<path style="&st41;" d="M1586.3,392.8c-2.2,3.9-6.8,4-9,0C1579.5,388.8,1584.1,388.8,1586.3,392.8L1586.3,392.8z"/>
		</g>
	</g>
	<g style="&st42;">
		<g>
			<path style="&st41;" d="M1590.8,382.2c4,2.7,4,7.8,0,10.4C1586.8,390,1586.9,384.9,1590.8,382.2L1590.8,382.2z"/>
		</g>
		<g>
			<path style="&st41;" d="M1595,387.1c-2.2,3.9-6.8,4-9,0C1588.2,383.1,1592.8,383.1,1595,387.1L1595,387.1z"/>
		</g>
	</g>
	<g style="&st40;">
		<g>
			<path style="&st41;" d="M213.2,208.6c-4-5.2-4.1-12.5,0-17.7C217.2,196.1,217.2,203.4,213.2,208.6L213.2,208.6z"/>
		</g>
		<g>
			<path style="&st41;" d="M220.3,200.4c-4.4,4-11,4.1-15.4,0C209.3,196.3,215.9,196.3,220.3,200.4L220.3,200.4z"/>
		</g>
	</g>
	<g style="&st40;">
		<g>
			<path style="&st41;" d="M227.9,182.4c4,5.2,4.1,12.5,0,17.7C223.9,194.9,223.9,187.6,227.9,182.4L227.9,182.4z"/>
		</g>
		<g>
			<path style="&st41;" d="M235,190.7c-4.4,4-11,4.1-15.4,0C224.1,186.6,230.7,186.6,235,190.7L235,190.7z"/>
		</g>
	</g>
	<g style="&st44;">
		<g>
			<path style="&st41;" d="M1320.5,809.5c-4-5.5-4.1-13.1,0-18.6C1324.6,796.3,1324.6,804,1320.5,809.5L1320.5,809.5z"/>
		</g>
		<g>
			<path style="&st41;" d="M1327.9,800.8c-4.7,4-11.5,4.1-16.1,0C1316.5,796.7,1323.3,796.7,1327.9,800.8L1327.9,800.8z"/>
		</g>
	</g>
	<g style="&st44;">
		<g>
			<path style="&st41;" d="M1336,781.9c4,5.5,4.1,13.1,0,18.6C1331.9,795.1,1332,787.4,1336,781.9L1336,781.9z"/>
		</g>
		<g>
			<path style="&st41;" d="M1343.5,790.6c-4.7,4-11.5,4.1-16.1,0C1332,786.5,1338.8,786.6,1343.5,790.6L1343.5,790.6z"/>
		</g>
	</g>
	<g style="&st42;">
		<g>
			<path style="&st41;" d="M179.6,472.4c4,5.2,4.1,12.5,0,17.7C175.5,485,175.5,477.7,179.6,472.4L179.6,472.4z"/>
		</g>
		<g>
			<path style="&st41;" d="M186.7,480.7c-4.4,4-11,4.1-15.4,0C175.7,476.7,182.3,476.7,186.7,480.7L186.7,480.7z"/>
		</g>
	</g>
	<g style="&st42;">
		<g>
			<path style="&st41;" d="M180,511c-4-5.2-4.1-12.5,0-17.7C184.1,498.5,184,505.8,180,511L180,511z"/>
		</g>
		<g>
			<path style="&st41;" d="M187.1,502.7c-4.4,4-11,4.1-15.4,0C176.1,498.7,182.7,498.7,187.1,502.7L187.1,502.7z"/>
		</g>
	</g>
	<g style="&st42;">
		<g>
			<path style="&st41;" d="M194.8,484.8c4,5.2,4.1,12.5,0,17.7C190.7,497.3,190.7,490,194.8,484.8L194.8,484.8z"/>
		</g>
		<g>
			<path style="&st41;" d="M201.8,493c-4.4,4-11,4.1-15.4,0C190.9,489,197.5,489,201.8,493L201.8,493z"/>
		</g>
	</g>
	<g style="&st40;">
		<g>
			<path style="&st41;" d="M481.5,111.9c4,5.2,4.1,12.5,0,17.7C477.4,124.4,477.4,117.1,481.5,111.9L481.5,111.9z"/>
		</g>
		<g>
			<path style="&st41;" d="M488.5,120.2c-4.4,4-11,4.1-15.4,0C477.6,116.1,484.2,116.2,488.5,120.2L488.5,120.2z"/>
		</g>
	</g>
	<g style="&st40;">
		<g>
			<path style="&st41;" d="M481.8,150.5c-4-5.2-4.1-12.5,0-17.7C485.9,137.9,485.9,145.2,481.8,150.5L481.8,150.5z"/>
		</g>
		<g>
			<path style="&st41;" d="M488.9,142.2c-4.4,4-11,4.1-15.4,0C478,138.1,484.6,138.2,488.9,142.2L488.9,142.2z"/>
		</g>
	</g>
	<g style="&st40;">
		<g>
			<path style="&st41;" d="M455.4,130.1c4,5.2,4.1,12.5,0,17.7C451.4,142.6,451.4,135.3,455.4,130.1L455.4,130.1z"/>
		</g>
		<g>
			<path style="&st41;" d="M462.5,138.4c-4.4,4-11,4.1-15.4,0C451.5,134.3,458.1,134.4,462.5,138.4L462.5,138.4z"/>
		</g>
	</g>
	<g style="&st40;">
		<g>
			<path style="&st41;" d="M725.4,246.1c4.1,12,4.1,28.5,0,40.4C721.3,274.6,721.3,258.1,725.4,246.1L725.4,246.1z"/>
		</g>
		<g>
			<path style="&st41;" d="M709.2,265c10.4-4.1,24.7-4.1,35.1,0C733.9,269.1,719.6,269,709.2,265L709.2,265z"/>
		</g>
	</g>
	<g style="&st40;">
		<g>
			<path style="&st41;" d="M927.1,228.8c4,5.2,4.1,12.5,0,17.7C923,241.3,923.1,234,927.1,228.8L927.1,228.8z"/>
		</g>
		<g>
			<path style="&st41;" d="M920,237c4.4-4,11-4.1,15.4,0C931,241.1,924.4,241.1,920,237L920,237z"/>
		</g>
	</g>
	<g style="&st42;">
		<g>
			<path style="&st41;" d="M830.1,341.7c4.1,12,4.1,28.5,0,40.4C826.1,370.1,826.1,353.7,830.1,341.7L830.1,341.7z"/>
		</g>
		<g>
			<path style="&st41;" d="M814,360.5c10.4-4.1,24.7-4.1,35.1,0C838.7,364.6,824.3,364.6,814,360.5L814,360.5z"/>
		</g>
	</g>
	<g style="&st42;">
		<g>
			<path style="&st41;" d="M544.6,406.1c4.1,12,4.1,28.5,0,40.4C540.5,434.6,540.6,418.1,544.6,406.1L544.6,406.1z"/>
		</g>
		<g>
			<path style="&st41;" d="M528.4,425c10.4-4.1,24.7-4.1,35.1,0C553.1,429.1,538.8,429.1,528.4,425L528.4,425z"/>
		</g>
	</g>
	<g style="&st42;">
		<g>
			<path style="&st41;" d="M965.6,335.9c4,5.2,4.1,12.5,0,17.7C961.5,348.4,961.5,341.1,965.6,335.9L965.6,335.9z"/>
		</g>
		<g>
			<path style="&st41;" d="M958.5,344.2c4.4-4,11-4.1,15.4,0C969.5,348.2,962.9,348.2,958.5,344.2L958.5,344.2z"/>
		</g>
	</g>
	<g style="&st43;">
		<g>
			<path style="&st41;" d="M249.1,856.8c4,5.2,4.1,12.5,0,17.7C245.1,869.3,245.1,862,249.1,856.8L249.1,856.8z"/>
		</g>
		<g>
			<path style="&st41;" d="M242,865c4.4-4,11-4.1,15.4,0C253,869.1,246.4,869.1,242,865L242,865z"/>
		</g>
	</g>
	<g style="&st42;">
		<g>
			<path style="&st41;" d="M828.8,435c4,5.2,4.1,12.5,0,17.7C824.8,447.5,824.8,440.2,828.8,435L828.8,435z"/>
		</g>
		<g>
			<path style="&st41;" d="M821.7,443.2c4.4-4,11-4.1,15.4,0C832.7,447.3,826.1,447.3,821.7,443.2L821.7,443.2z"/>
		</g>
	</g>
	<g style="&st42;">
		<g>
			<path style="&st41;" d="M588.7,491.9c4,5.2,4.1,12.5,0,17.7C584.6,504.4,584.7,497.1,588.7,491.9L588.7,491.9z"/>
		</g>
		<g>
			<path style="&st41;" d="M581.6,500.1c4.4-4,11-4.1,15.4,0C592.6,504.2,586,504.2,581.6,500.1L581.6,500.1z"/>
		</g>
	</g>
	<g style="&st44;">
		<g>
			<path style="&st41;" d="M707.2,583.2c4,5.2,4.1,12.5,0,17.7C703.2,595.7,703.2,588.4,707.2,583.2L707.2,583.2z"/>
		</g>
		<g>
			<path style="&st41;" d="M700.2,591.4c4.4-4,11-4.1,15.4,0C711.1,595.5,704.5,595.5,700.2,591.4L700.2,591.4z"/>
		</g>
	</g>
	<g style="&st42;">
		<g>
			<path style="&st41;" d="M532.7,338.5c4,5.2,4.1,12.5,0,17.7C528.6,351.1,528.7,343.8,532.7,338.5L532.7,338.5z"/>
		</g>
		<g>
			<path style="&st41;" d="M525.6,346.8c4.4-4,11-4.1,15.4,0C536.6,350.9,530,350.8,525.6,346.8L525.6,346.8z"/>
		</g>
	</g>
	<g style="&st42;">
		<g>
			<path style="&st41;" d="M906.1,520.5c4,5.2,4.1,12.5,0,17.7C902,533,902,525.7,906.1,520.5L906.1,520.5z"/>
		</g>
		<g>
			<path style="&st41;" d="M899,528.8c4.4-4,11-4.1,15.4,0C910,532.8,903.4,532.8,899,528.8L899,528.8z"/>
		</g>
	</g>
	<g style="&st43;">
		<g>
			<path style="&st41;" d="M227.7,879.9c-4-5.2-4.1-12.5,0-17.7C231.8,867.4,231.8,874.7,227.7,879.9L227.7,879.9z"/>
		</g>
		<g>
			<path style="&st41;" d="M220.6,871.6c4.4-4,11-4.1,15.4,0C231.6,875.7,225,875.6,220.6,871.6L220.6,871.6z"/>
		</g>
	</g>
	<g style="&st42;">
		<g>
			<path style="&st41;" d="M871.8,322.3c4,5.2,4.1,12.5,0,17.7C867.7,334.8,867.8,327.5,871.8,322.3L871.8,322.3z"/>
		</g>
		<g>
			<path style="&st41;" d="M864.7,330.6c4.4-4,11-4.1,15.4,0C875.7,334.6,869.1,334.6,864.7,330.6L864.7,330.6z"/>
		</g>
	</g>
	<g style="&st42;">
		<g>
			<path style="&st41;" d="M871.4,360.9c-4-5.2-4.1-12.5,0-17.7C875.5,348.3,875.5,355.6,871.4,360.9L871.4,360.9z"/>
		</g>
		<g>
			<path style="&st41;" d="M864.3,352.6c4.4-4,11-4.1,15.4,0C875.3,356.6,868.7,356.6,864.3,352.6L864.3,352.6z"/>
		</g>
	</g>
	<g style="&st42;">
		<g>
			<path style="&st41;" d="M856.6,334.6c4,5.2,4.1,12.5,0,17.7C852.6,347.1,852.6,339.8,856.6,334.6L856.6,334.6z"/>
		</g>
		<g>
			<path style="&st41;" d="M849.6,342.9c4.4-4,11-4.1,15.4,0C860.5,346.9,853.9,346.9,849.6,342.9L849.6,342.9z"/>
		</g>
	</g>
	<g style="&st43;">
		<g>
			<path style="&st41;" d="M436.3,885.8c4,5.2,4.1,12.5,0,17.7C432.2,898.3,432.3,891,436.3,885.8L436.3,885.8z"/>
		</g>
		<g>
			<path style="&st41;" d="M443.4,894.1c-4.4,4-11,4.1-15.4,0C432.4,890,439,890,443.4,894.1L443.4,894.1z"/>
		</g>
	</g>
	<g style="&st44;">
		<g>
			<path style="&st41;" d="M533.6,836.4c-4-5.2-4.1-12.5,0-17.7C537.6,823.8,537.6,831.1,533.6,836.4L533.6,836.4z"/>
		</g>
		<g>
			<path style="&st41;" d="M540.7,828.1c-4.4,4-11,4.1-15.4,0C529.7,824,536.3,824.1,540.7,828.1L540.7,828.1z"/>
		</g>
	</g>
	<g style="&st44;">
		<g>
			<path style="&st41;" d="M548.3,810.1c4,5.2,4.1,12.5,0,17.7C544.3,822.6,544.3,815.3,548.3,810.1L548.3,810.1z"/>
		</g>
		<g>
			<path style="&st41;" d="M555.4,818.4c-4.4,4-11,4.1-15.4,0C544.4,814.3,551,814.4,555.4,818.4L555.4,818.4z"/>
		</g>
	</g>
	<g style="&st44;">
		<g>
			<path style="&st41;" d="M543.7,788.1c4,5.2,4.1,12.5,0,17.7C539.6,800.6,539.6,793.3,543.7,788.1L543.7,788.1z"/>
		</g>
		<g>
			<path style="&st41;" d="M536.6,796.4c4.4-4,11-4.1,15.4,0C547.6,800.5,541,800.4,536.6,796.4L536.6,796.4z"/>
		</g>
	</g>
	<g style="&st44;">
		<g>
			<path style="&st41;" d="M1335.3,710.8c4,5.2,4.1,12.5,0,17.7C1331.2,723.3,1331.3,716,1335.3,710.8L1335.3,710.8z"/>
		</g>
		<g>
			<path style="&st41;" d="M1342.4,719.1c-4.4,4-11,4.1-15.4,0C1331.4,715,1338,715,1342.4,719.1L1342.4,719.1z"/>
		</g>
	</g>
	<g style="&st44;">
		<g>
			<path style="&st41;" d="M1432.6,661.4c-4-5.2-4.1-12.5,0-17.7C1436.6,648.8,1436.6,656.1,1432.6,661.4L1432.6,661.4z"/>
		</g>
		<g>
			<path style="&st41;" d="M1439.7,653.1c-4.4,4-11,4.1-15.4,0C1428.7,649,1435.3,649.1,1439.7,653.1L1439.7,653.1z"/>
		</g>
	</g>
	<g style="&st44;">
		<g>
			<path style="&st41;" d="M1447.3,635.1c4,5.2,4.1,12.5,0,17.7C1443.3,647.6,1443.3,640.3,1447.3,635.1L1447.3,635.1z"/>
		</g>
		<g>
			<path style="&st41;" d="M1454.4,643.4c-4.4,4-11,4.1-15.4,0C1443.4,639.3,1450,639.4,1454.4,643.4L1454.4,643.4z"/>
		</g>
	</g>
	<g style="&st44;">
		<g>
			<path style="&st41;" d="M1442.7,613.1c4,5.2,4.1,12.5,0,17.7C1438.6,625.6,1438.6,618.3,1442.7,613.1L1442.7,613.1z"/>
		</g>
		<g>
			<path style="&st41;" d="M1435.6,621.4c4.4-4,11-4.1,15.4,0C1446.6,625.5,1440,625.4,1435.6,621.4L1435.6,621.4z"/>
		</g>
	</g>
	<g style="&st44;">
		<g>
			<path style="&st41;" d="M1637.3,808.8c4,5.2,4.1,12.5,0,17.7C1633.2,821.3,1633.3,814,1637.3,808.8L1637.3,808.8z"/>
		</g>
		<g>
			<path style="&st41;" d="M1644.4,817.1c-4.4,4-11,4.1-15.4,0C1633.4,813,1640,813,1644.4,817.1L1644.4,817.1z"/>
		</g>
	</g>
	<g style="&st44;">
		<g>
			<path style="&st41;" d="M1734.6,759.4c-4-5.2-4.1-12.5,0-17.7C1738.6,746.8,1738.6,754.1,1734.6,759.4L1734.6,759.4z"/>
		</g>
		<g>
			<path style="&st41;" d="M1741.7,751.1c-4.4,4-11,4.1-15.4,0C1730.7,747,1737.3,747.1,1741.7,751.1L1741.7,751.1z"/>
		</g>
	</g>
	<g style="&st44;">
		<g>
			<path style="&st41;" d="M1749.3,733.1c4,5.2,4.1,12.5,0,17.7C1745.3,745.6,1745.3,738.3,1749.3,733.1L1749.3,733.1z"/>
		</g>
		<g>
			<path style="&st41;" d="M1756.4,741.4c-4.4,4-11,4.1-15.4,0C1745.4,737.3,1752,737.4,1756.4,741.4L1756.4,741.4z"/>
		</g>
	</g>
	<g style="&st44;">
		<g>
			<path style="&st41;" d="M1744.7,711.1c4,5.2,4.1,12.5,0,17.7C1740.6,723.6,1740.6,716.3,1744.7,711.1L1744.7,711.1z"/>
		</g>
		<g>
			<path style="&st41;" d="M1737.6,719.4c4.4-4,11-4.1,15.4,0C1748.6,723.5,1742,723.4,1737.6,719.4L1737.6,719.4z"/>
		</g>
	</g>
	<g style="&st43;">
		<g>
			<path style="&st41;" d="M1328.3,971.8c4,5.2,4.1,12.5,0,17.7C1324.2,984.3,1324.3,977,1328.3,971.8L1328.3,971.8z"/>
		</g>
		<g>
			<path style="&st41;" d="M1335.4,980.1c-4.4,4-11,4.1-15.4,0C1324.4,976,1331,976,1335.4,980.1L1335.4,980.1z"/>
		</g>
	</g>
	<g style="&st43;">
		<g>
			<path style="&st41;" d="M1425.6,922.4c-4-5.2-4.1-12.5,0-17.7C1429.6,909.8,1429.6,917.1,1425.6,922.4L1425.6,922.4z"/>
		</g>
		<g>
			<path style="&st41;" d="M1432.7,914.1c-4.4,4-11,4.1-15.4,0C1421.7,910,1428.3,910.1,1432.7,914.1L1432.7,914.1z"/>
		</g>
	</g>
	<g style="&st43;">
		<g>
			<path style="&st41;" d="M1440.3,896.1c4,5.2,4.1,12.5,0,17.7C1436.3,908.6,1436.3,901.3,1440.3,896.1L1440.3,896.1z"/>
		</g>
		<g>
			<path style="&st41;" d="M1447.4,904.4c-4.4,4-11,4.1-15.4,0C1436.4,900.3,1443,900.4,1447.4,904.4L1447.4,904.4z"/>
		</g>
	</g>
	<g style="&st43;">
		<g>
			<path style="&st41;" d="M1435.7,874.1c4,5.2,4.1,12.5,0,17.7C1431.6,886.6,1431.6,879.3,1435.7,874.1L1435.7,874.1z"/>
		</g>
		<g>
			<path style="&st41;" d="M1428.6,882.4c4.4-4,11-4.1,15.4,0C1439.6,886.5,1433,886.4,1428.6,882.4L1428.6,882.4z"/>
		</g>
	</g>
</g>
<g id="Layer_9">
	<g id="GLARE" style="&st45;">
		<image style="overflow:visible;" width="1051" height="527" xlink:href="C0FC8FE3.png"  transform="matrix(1 0 0 1 458 598)">
		</image>
	</g>
</g>
</svg>
