<?xml version="1.0" encoding="UTF-8"?><svg xmlns="http://www.w3.org/2000/svg" viewBox="0 0 1920 1080"><defs><style>.d{fill:#ccb7ea;}</style></defs><g id="a"/><g id="b"><g id="c"><path class="d" d="M0,630.31s94-17.6,105,46.94c0,0,84-6.71,65,59.51,23,2.51,56.75,31.01,29.38,75.43,4.62,0,21.1,12.38,15.62,17.6,0,0,72-28.5,111,28.5-1-15.92,102-82.98,172.52,0,18.48-21.79,106.48-5.03,85.48,50.29,0,0,34,8.38,31,30.17,21-4.19,31-5.03,53,8.38,9.07-18.24,81.58-48.29,137.28,0,5.67-4.43,26.72-10.06,37.72-5.03,.05-10.9,84-57.83,131,0,0,0,23-1.68,32,8.38,0,0,5,4.19,6,13.41,15-16.76,97-61.18,130-24.31,0,0,20-31.85,64-24.31,5-14.25,68-26.82,88,2.51,12-20.95,21-35.2,62-37.72,0-22.63,8-46.94,22-55.32s41-23.47,75,4.19c15-5.03,11-6.71,33-5.03,4-16.76,53.46-71.39,100-18.44,0,0,30-16.76,62,0,0,0-9-25.14,20-40.23,9.03-4.7,25-8.38,25-8.38,0,0-11-46.94,31-60.35,0,0,40-12.57,72,18.44,4-11.73,30-43.58,74-41.91,0-7.54,8-48.81,50-44.94v451.88H0v-449.69Z"/><polygon class="d" points="0 .05 .01 0 0 0 0 .05"/></g></g></svg>