<?xml version="1.0" encoding="UTF-8"?><svg id="a" xmlns="http://www.w3.org/2000/svg" viewBox="0 0 1920 1080.39"><defs><style>.b{fill:#e9e1f4;}</style></defs><path class="b" d="M1,794s118.18,9.55,91.18,104.55c73,16,110,34,121,115,0,0,95-52,186,41,27-28,100.94,25.04,82.82,25.45-39,.88-481,0-481,0v-286Z"/><path class="b" d="M1323,1080s-12.82-105.57,95.18-45.57c10-16.88,23-26.88,50.3-18.63-2.3-37.25,21.7-71.37,76.7-62.37,3-39.88,45.97-52.49,90-34.88,0,0,60-51,98,11.88,4-50.88,29.82-122.43,186.82-121.43l-.82,270.55-596.18,.45Z"/><polygon class="b" points="0 .51 .08 0 0 0 0 .51"/></svg>