<?xml version="1.0" encoding="utf-8"?>
<!-- Generator: Adobe Illustrator 26.1.0, SVG Export Plug-In . SVG Version: 6.00 Build 0)  -->
<svg version="1.1" xmlns="http://www.w3.org/2000/svg" xmlns:xlink="http://www.w3.org/1999/xlink" x="0px" y="0px"
	 viewBox="0 0 1920 1080" enable-background="new 0 0 1920 1080" xml:space="preserve">
<g id="nuvem-frente" display="none">
	<path display="inline" fill="#E9E1F4" d="M1,794c0,0,118.2,9.6,91.2,104.6c73,16,110,34,121,115c0,0,95-52,186,41
		c27-28,100.9,25,82.8,25.4c-39,0.9-481,0-481,0V794z"/>
	<path display="inline" fill="#E9E1F4" d="M1323,1080c0,0-12.8-105.6,95.2-45.6c10-16.9,23-26.9,50.3-18.6
		c-2.3-37.2,21.7-71.4,76.7-62.4c3-39.9,46-52.5,90-34.9c0,0,60-51,98,11.9c4-50.9,29.8-122.4,186.8-121.4l-0.8,270.6L1323,1080z"/>
	<polygon display="inline" fill="#E9E1F4" points="0,0.5 0.1,0 0,0 	"/>
</g>
<g id="nuvem-meio" display="none">
	<path display="inline" fill="#CCB7EA" d="M0,630.3c0,0,94-17.6,105,46.9c0,0,84-6.7,65,59.5c23,2.5,56.8,31,29.4,75.4
		c4.6,0,21.1,12.4,15.6,17.6c0,0,72-28.5,111,28.5c-1-15.9,102-83,172.5,0c18.5-21.8,106.5-5,85.5,50.3c0,0,34,8.4,31,30.2
		c21-4.2,31-5,53,8.4c9.1-18.2,81.6-48.3,137.3,0c5.7-4.4,26.7-10.1,37.7-5c0.1-10.9,84-57.8,131,0c0,0,23-1.7,32,8.4
		c0,0,5,4.2,6,13.4c15-16.8,97-61.2,130-24.3c0,0,20-31.8,64-24.3c5-14.2,68-26.8,88,2.5c12-21,21-35.2,62-37.7
		c0-22.6,8-46.9,22-55.3c14-8.4,41-23.5,75,4.2c15-5,11-6.7,33-5c4-16.8,53.5-71.4,100-18.4c0,0,30-16.8,62,0c0,0-9-25.1,20-40.2
		c9-4.7,25-8.4,25-8.4s-11-46.9,31-60.3c0,0,40-12.6,72,18.4c4-11.7,30-43.6,74-41.9c0-7.5,8-48.8,50-44.9V1080H0L0,630.3z"/>
	<polygon display="inline" fill="#CCB7EA" points="0,0 0,0 0,0 	"/>
</g>
<g id="nuvem-fundo" display="none">
	<path display="inline" fill="#8566B2" d="M1920,542c0,0-93-21-104,56c0,0-84-8-65,71c-23,3-56.8,37-29.4,90
		c-4.6,0-21.1,14.8-15.6,21c0,0-72-34-111,34c1-19-102-99-172.5,0c-18.5-26-106.5-6-85.5,60c0,0-34,10-31,36c-21-5-31-6-53,10
		c-9.1-21.8-81.6-57.6-137.3,0c-5.7-5.3-26.7-12-37.7-6c-0.1-13-84-69-131,0c0,0-23-2-32,10c0,0-5,5-6,16c-15-20-97-73-130-29
		c0,0-20-38-64-29c-5-17-68-32-88,3c-12-25-21-42-62-45c0-27-8-56-22-66s-41-28-75,5c-15-6-11-8-33-6c-4-20-53.5-85.2-100-22
		c0,0-30-20-62,0c0,0,9-30-20-48c-9-5.6-25-10-25-10s11-56-31-72c0,0-40-15-72,22c-4-14-30-52-74-50c0-9-9-58.7-51-54l0,541h1920
		V542z"/>
	<polyline display="inline" fill="#8566B2" points="0,0 0,0 0,0 0,0 	"/>
</g>
<g id="planeta">
	<g id="_x34_">
		<g id="_x31_4">
			
				<linearGradient id="_x33_1_00000094584094244779014080000008107534614152239291_" gradientUnits="userSpaceOnUse" x1="1413.6218" y1="-918.8401" x2="1639.2938" y2="-813.898" gradientTransform="matrix(0.9493 0.3144 -0.3144 0.9493 -45.9042 584.6732)">
				<stop  offset="0" style="stop-color:#9F00AA"/>
				<stop  offset="0.4127" style="stop-color:#6B00AA"/>
				<stop  offset="0.6554" style="stop-color:#560089"/>
				<stop  offset="1" style="stop-color:#350055"/>
			</linearGradient>
			<path id="_x33_1" fill="url(#_x33_1_00000094584094244779014080000008107534614152239291_)" d="M1764.8,267
				c-2.4,7.3-5.6,14.2-9.4,20.5l0,0c-2.7,4.4-5.6,8.6-8.9,12.5c-11,13.2-25.1,23.4-40.7,29.6c-21.6,8.6-46.2,10-69.9,2.1
				c-17.5-5.8-32.5-15.9-44-28.8c-7.2-8.1-13.1-17.3-17.4-27.1c-5-11.4-7.9-23.7-8.5-36.4c-0.5-12,1-24.2,5-36.3l0.1-0.4
				c1.4-4.2,3.1-8.3,4.9-12.2c5-10.4,11.7-19.7,19.5-27.6c0,0,0,0,0,0c6.8-6.9,14.5-12.7,22.9-17.3c5.6-3.1,11.5-5.7,17.6-7.7
				c20.1-6.6,42.4-7.1,64,0.1c9.1,3,17.5,7.2,25.1,12.3c4.9,3.3,9.5,7,13.7,11.1c8.9,8.6,16.1,18.7,21.4,29.8
				c6.7,14.1,10.1,29.7,9.8,45.7c-0.2,8.9-1.5,17.8-4.1,26.7l0,0C1765.5,264.8,1765.2,265.9,1764.8,267z"/>
			<g id="_x32_6">
				
					<linearGradient id="_x33_0_00000170272740933545597950000016911787173544825772_" gradientUnits="userSpaceOnUse" x1="1315.9761" y1="-951.9178" x2="1536.0758" y2="-809.8281" gradientTransform="matrix(0.9493 0.3144 -0.3144 0.9493 -45.9042 584.6732)">
					<stop  offset="9.523810e-02" style="stop-color:#9F00AA"/>
					<stop  offset="0.5238" style="stop-color:#6B00AA"/>
					<stop  offset="0.6692" style="stop-color:#560089"/>
					<stop  offset="0.8757" style="stop-color:#350055"/>
				</linearGradient>
				<path id="_x33_0" fill="url(#_x33_0_00000170272740933545597950000016911787173544825772_)" d="M1746.5,300.1
					c-11,13.2-25.1,23.4-40.7,29.6c-20.3-4.8-16.4-6.8-29.4-14.5c-14.7-8.6-40.6-13.4-63.1-13.4c-7,0-14.2,0.7-21.4,1.2
					c-7.2-8.1-13.1-17.3-17.4-27.1c21.7-0.5,49.6,1.5,76.2,11.2C1683.3,299.2,1718.5,303.7,1746.5,300.1z"/>
				
					<linearGradient id="_x32_9_00000165216434090667651230000008637585011515939259_" gradientUnits="userSpaceOnUse" x1="1331.6044" y1="-976.1264" x2="1551.7041" y2="-834.0367" gradientTransform="matrix(0.9493 0.3144 -0.3144 0.9493 -45.9042 584.6732)">
					<stop  offset="9.523810e-02" style="stop-color:#9F00AA"/>
					<stop  offset="0.5238" style="stop-color:#6B00AA"/>
					<stop  offset="0.6692" style="stop-color:#560089"/>
					<stop  offset="0.8757" style="stop-color:#350055"/>
				</linearGradient>
				<path id="_x32_9" fill="url(#_x32_9_00000165216434090667651230000008637585011515939259_)" d="M1764.8,267
					c-2.4,7.3-5.6,14.2-9.4,20.5l0,0c-19.4,3.3-69-5-84.7-8c-15.2-2.9-77.8-30.7-104.7-40.1c-0.2-3.4-0.1-6.9,0.1-10.3
					c0.2-4.4,0.8-8.7,1.6-13.1c0.8-4.3,1.9-8.6,3.3-12.9c20.2,16.5,70.9,42.6,102.7,55.6c29.4,12.1,70.5,8.2,92.2,4.8
					C1765.5,264.8,1765.2,265.9,1764.8,267z"/>
				
					<linearGradient id="_x32_8_00000183212589359503417790000012513354328692639923_" gradientUnits="userSpaceOnUse" x1="1353.1531" y1="-1009.5059" x2="1573.2529" y2="-867.4162" gradientTransform="matrix(0.9493 0.3144 -0.3144 0.9493 -45.9042 584.6732)">
					<stop  offset="9.523810e-02" style="stop-color:#9F00AA"/>
					<stop  offset="0.5238" style="stop-color:#6B00AA"/>
					<stop  offset="0.6692" style="stop-color:#560089"/>
					<stop  offset="0.8757" style="stop-color:#350055"/>
				</linearGradient>
				<path id="_x32_8" fill="url(#_x32_8_00000183212589359503417790000012513354328692639923_)" d="M1770,237
					c-16,8.2-37.8,15-46.1,15.9c-35.3,2.7-78.8-24.3-125-47.1c-10.7-5.3-18-10.4-22.8-15.2c5-10.4,11.7-19.7,19.5-27.6
					c-5.8,44.9,91.9,69.1,115.6,73.7c19.3,3.7,39.2-27.3,49.1-45.4C1766.8,205.4,1770.3,221,1770,237z"/>
				
					<linearGradient id="_x32_7_00000171680892451139200740000012468517740928085423_" gradientUnits="userSpaceOnUse" x1="1370.0558" y1="-1035.6885" x2="1590.1556" y2="-893.5988" gradientTransform="matrix(0.9493 0.3144 -0.3144 0.9493 -45.9042 584.6732)">
					<stop  offset="9.523810e-02" style="stop-color:#9F00AA"/>
					<stop  offset="0.5238" style="stop-color:#6B00AA"/>
					<stop  offset="0.6692" style="stop-color:#560089"/>
					<stop  offset="0.8757" style="stop-color:#350055"/>
				</linearGradient>
				<path id="_x32_7" fill="url(#_x32_7_00000171680892451139200740000012468517740928085423_)" d="M1738.8,161.5
					c-6.9,20.7-59.6,14.6-99.9-1.2c-14.8-5.8-19.9-10.7-20.5-14.6c5.6-3.1,11.5-5.7,17.6-7.7c2.5,2.7,5.8,6.7,8.9,11.8
					c5.6,9.4,55.9,16,63.8,14.9c14.6,1.1,16.4-14.3,16.4-14.3C1730,153.7,1734.6,157.4,1738.8,161.5z"/>
			</g>
			
				<linearGradient id="_x32_5_00000152942637233908885830000004341266255583637173_" gradientUnits="userSpaceOnUse" x1="1452.7295" y1="-900.5999" x2="1434.9296" y2="-908.8033" gradientTransform="matrix(0.9493 0.3144 -0.3144 0.9493 -45.9042 584.6732)">
				<stop  offset="9.523810e-02" style="stop-color:#9F00AA"/>
				<stop  offset="0.5238" style="stop-color:#6B00AA"/>
				<stop  offset="0.6692" style="stop-color:#560089"/>
				<stop  offset="0.8757" style="stop-color:#350055"/>
			</linearGradient>
			<path id="_x32_5" fill="url(#_x32_5_00000152942637233908885830000004341266255583637173_)" d="M1621.3,175.7
				c3.9,3.2-14.7,15.1-20.6,13.2s-1.2-19.1,1.6-20.1c2.2-0.7,6.1-2.4,12-0.4C1620.2,170.4,1619.5,174.3,1621.3,175.7z"/>
			
				<linearGradient id="_x32_4_00000054987500005737223610000008816658194699509138_" gradientUnits="userSpaceOnUse" x1="1520.4474" y1="-926.9846" x2="1491.6307" y2="-942.0917" gradientTransform="matrix(0.9493 0.3144 -0.3144 0.9493 -45.9042 584.6732)">
				<stop  offset="9.523810e-02" style="stop-color:#9F00AA"/>
				<stop  offset="0.5238" style="stop-color:#6B00AA"/>
				<stop  offset="0.7206" style="stop-color:#560089"/>
				<stop  offset="1" style="stop-color:#350055"/>
			</linearGradient>
			<path id="_x32_4" fill="url(#_x32_4_00000054987500005737223610000008816658194699509138_)" d="M1677.2,169.2
				c-1.1,3.4-6.4,4.1-8.6,3.4c-2.2-0.7-3.6-4.3,0-7.5c2.7-2.4,6.8-5.2,9-4.5C1683.7,162.6,1678.3,165.8,1677.2,169.2z"/>
			
				<linearGradient id="_x32_3_00000002346202737122839240000005351820425808039348_" gradientUnits="userSpaceOnUse" x1="1465.5699" y1="-816.5598" x2="1443.2814" y2="-822.751" gradientTransform="matrix(0.9493 0.3144 -0.3144 0.9493 -45.9042 584.6732)">
				<stop  offset="9.523810e-02" style="stop-color:#9F00AA"/>
				<stop  offset="0.5238" style="stop-color:#6B00AA"/>
				<stop  offset="0.6692" style="stop-color:#560089"/>
				<stop  offset="0.8757" style="stop-color:#350055"/>
			</linearGradient>
			<path id="_x32_3" fill="url(#_x32_3_00000002346202737122839240000005351820425808039348_)" d="M1598.9,265.8
				c-0.8,2.5-4.5,3.5-8.3,2.3s-6.1-4.3-5.3-6.7c0.8-2.5,4.5-3.5,8.3-2.3C1597.4,260.3,1599.8,263.3,1598.9,265.8z"/>
			
				<radialGradient id="_x32_2_00000182487419678387896910000009943627482445137300_" cx="1630.0238" cy="-854.4518" r="38.5412" gradientTransform="matrix(0.9493 0.3144 -0.3144 0.9493 -45.9042 584.6732)" gradientUnits="userSpaceOnUse">
				<stop  offset="9.523810e-02" style="stop-color:#9F00AA"/>
				<stop  offset="0.5238" style="stop-color:#6B00AA"/>
				<stop  offset="0.6692" style="stop-color:#560089"/>
				<stop  offset="0.8757" style="stop-color:#350055"/>
			</radialGradient>
			<path id="_x32_2" fill="url(#_x32_2_00000182487419678387896910000009943627482445137300_)" d="M1753.2,260.6
				c1.4,2.9-21.1,31.4-12.4,7.2c0.7-1.8,6.4-7.9,5.6-9.4c-0.6-1.2,2.3-1.8,4.1-1.1C1752.4,257.9,1752.6,259.5,1753.2,260.6z"/>
			
				<radialGradient id="_x32_0_00000032647790639772900640000016807476019919416505_" cx="1536.3204" cy="-957.5215" r="14.0102" gradientTransform="matrix(0.9493 0.3144 -0.3144 0.9493 -45.9042 584.6732)" gradientUnits="userSpaceOnUse">
				<stop  offset="9.523810e-02" style="stop-color:#9F00AA"/>
				<stop  offset="0.5238" style="stop-color:#6B00AA"/>
				<stop  offset="0.6692" style="stop-color:#560089"/>
				<stop  offset="0.8757" style="stop-color:#350055"/>
			</radialGradient>
			<path id="_x32_0" fill="url(#_x32_0_00000032647790639772900640000016807476019919416505_)" d="M1714.1,155.8
				c-0.7,2.2-4.1,3-7.5,1.9s-5.6-3.8-4.9-6c0.7-2.2,6.5-4.7,9.9-3.6C1715.1,149.3,1714.8,153.7,1714.1,155.8z"/>
			
				<linearGradient id="_x31_9_00000021109463087778258380000014828042994298198675_" gradientUnits="userSpaceOnUse" x1="1542.5004" y1="-741.4203" x2="1525.01" y2="-783.9853" gradientTransform="matrix(0.9493 0.3144 -0.3144 0.9493 -45.9042 584.6732)">
				<stop  offset="9.523810e-02" style="stop-color:#9F00AA"/>
				<stop  offset="0.5238" style="stop-color:#6B00AA"/>
				<stop  offset="0.6692" style="stop-color:#560089"/>
				<stop  offset="0.8757" style="stop-color:#350055"/>
			</linearGradient>
			<path id="_x31_9" fill="url(#_x31_9_00000021109463087778258380000014828042994298198675_)" d="M1661,335.1
				c-0.7,2.3-8.4,1-14.6-1.1c-6.2-2.1-9.4-3-9.4-5.6c0-3.8,5.8-0.6,12,1.5C1655.2,332,1662.3,331.1,1661,335.1z"/>
			
				<linearGradient id="_x31_8_00000141438992046029442590000017695587119314519444_" gradientUnits="userSpaceOnUse" x1="1519.9779" y1="-916.2059" x2="1498.2822" y2="-929.7158" gradientTransform="matrix(0.9493 0.3144 -0.3144 0.9493 -45.9042 584.6732)">
				<stop  offset="9.523810e-02" style="stop-color:#9F00AA"/>
				<stop  offset="0.5238" style="stop-color:#6B00AA"/>
				<stop  offset="0.7206" style="stop-color:#560089"/>
				<stop  offset="1" style="stop-color:#350055"/>
			</linearGradient>
			<path id="_x31_8" fill="url(#_x31_8_00000141438992046029442590000017695587119314519444_)" d="M1677.9,182
				c-1.1,3.4-1.4,3.7-3.6,2.9c-2.2-0.7-7.3-4.3-3.8-7.5c2.7-2.4,2.3-5.7,4-4.1C1678.3,177.1,1679.1,178.6,1677.9,182z"/>
			
				<radialGradient id="_x31_7_00000132768985016745603510000016691595063622363803_" cx="1521.5649" cy="-929.2962" r="17.3365" gradientTransform="matrix(0.9493 0.3144 -0.3144 0.9493 -45.9042 584.6732)" gradientUnits="userSpaceOnUse">
				<stop  offset="9.523810e-02" style="stop-color:#9F00AA"/>
				<stop  offset="0.5238" style="stop-color:#6B00AA"/>
				<stop  offset="0.7206" style="stop-color:#560089"/>
				<stop  offset="1" style="stop-color:#350055"/>
			</radialGradient>
			<path id="_x31_7" fill="url(#_x31_7_00000132768985016745603510000016691595063622363803_)" d="M1685.4,174.2
				c-1.1,3.4-2.5,3.5-4.7,2.8c-2.2-0.7-6-4.2-2.4-7.4c2.7-2.4,4.6-6,6.7-5.3C1691.2,166.4,1686.5,170.8,1685.4,174.2z"/>
			
				<radialGradient id="_x31_6_00000074440053757541758070000007037163229888413089_" cx="1532.5721" cy="-827.3479" r="105.3558" gradientTransform="matrix(0.9493 0.3144 -0.3144 0.9493 -45.9042 584.6732)" gradientUnits="userSpaceOnUse">
				<stop  offset="9.523810e-02" style="stop-color:#9F00AA"/>
				<stop  offset="0.5238" style="stop-color:#6B00AA"/>
				<stop  offset="0.6692" style="stop-color:#560089"/>
				<stop  offset="0.8757" style="stop-color:#350055"/>
			</radialGradient>
			<path id="_x31_6" fill="url(#_x31_6_00000074440053757541758070000007037163229888413089_)" d="M1647.8,213.5
				c4.5,2.8,3.6,28.4-5.4,34.1c-5.3,3.3-31.2-3-30.1-14.9c0.2-2.3,3.3-17.2,8.6-20.5C1626.1,208.9,1642.8,210.3,1647.8,213.5z"/>
			
				<linearGradient id="_x31_5_00000018200999374909669240000018441034944126245794_" gradientUnits="userSpaceOnUse" x1="1551.9078" y1="-945.3882" x2="1542.9752" y2="-948.8621" gradientTransform="matrix(0.9493 0.3144 -0.3144 0.9493 -45.9042 584.6732)">
				<stop  offset="0" style="stop-color:#9F00AA"/>
				<stop  offset="0.4127" style="stop-color:#6B00AA"/>
				<stop  offset="0.6554" style="stop-color:#560089"/>
				<stop  offset="1" style="stop-color:#350055"/>
			</linearGradient>
			<path id="_x31_5" display="none" fill="url(#_x31_5_00000018200999374909669240000018441034944126245794_)" d="M1730.9,178.4
				c-6.1-1.5-6.1-1.7-8.3-3.1c0-0.6,0.1-1,0.2-1.6C1723.6,174.4,1727.5,177.5,1730.9,178.4z"/>
		</g>
		<g id="_x31_3" display="none">
			
				<image display="inline" overflow="visible" width="108" height="107" xlink:href="A74D56DE.png"  transform="matrix(1 0 0 1 1682 124)">
			</image>
		</g>
		<path id="_x31_2" fill="#33005F" d="M1772.2,203.2c-0.2,0.7-0.2,1.5,0.2,2.2c0.8,1.3,2.2,3.1,3.3,1.4c1.7-2.5,2.6-2.9,1.6-4.8
			c-0.6-1.2-2.3-0.9-3.5-0.5C1773,201.8,1772.4,202.4,1772.2,203.2L1772.2,203.2z"/>
		<path id="_x31_0" fill="#4B007F" d="M1559.9,256.6c-0.4-0.1-0.9,0.1-1.2,0.4c-0.7,0.6-1.5,1.7-0.5,2.2c1.6,0.7,1.9,1.3,2.8,0.4
			c0.6-0.5,0.3-1.5,0-2.2C1560.8,257,1560.4,256.7,1559.9,256.6L1559.9,256.6z"/>
		<path id="_x39_" fill="#33005F" d="M1593.1,300.4c-0.7-0.4-1.5-0.4-2.2-0.1c-1.4,0.6-3.4,1.7-1.9,3.1c2.2,2.1,2.4,3,4.5,2.3
			c1.2-0.4,1.2-2.1,1.1-3.3C1594.3,301.5,1593.8,300.8,1593.1,300.4L1593.1,300.4z"/>
		<path id="_x37_" fill="#4B007F" d="M1745.5,161.4c0.1-0.4,0.1-0.9-0.2-1.3c-0.5-0.8-1.5-1.8-2.1-0.8c-1,1.4-1.6,1.6-0.9,2.7
			c0.4,0.7,1.5,0.5,2.2,0.3C1745,162.2,1745.4,161.9,1745.5,161.4L1745.5,161.4z"/>
		<g id="_x36_">
			
				<radialGradient id="SVGID_1_" cx="1478.0138" cy="-889.5862" r="46.3028" gradientTransform="matrix(0.9493 0.3144 -0.3144 0.9493 -45.9042 584.6732)" gradientUnits="userSpaceOnUse">
				<stop  offset="0" style="stop-color:#F7D4FF"/>
				<stop  offset="1" style="stop-color:#350055;stop-opacity:0"/>
			</radialGradient>
			<circle opacity="0.5" fill="url(#SVGID_1_)" cx="1636.8" cy="204.8" r="59.9"/>
		</g>
	</g>
	<polyline id="_x33_" fill="#8566B2" points="0,1080 0,1080 0,1080 0,1080 	"/>
	<polygon id="_x32_" fill="#8566B2" points="1920,0 1920,0 1920,0 	"/>
	
		<radialGradient id="_x31__00000160904191177924191620000010778544453670466945_" cx="1566.8011" cy="-871.4683" r="14.0102" gradientTransform="matrix(1.5783 0 0 1.4146 -749.7395 1473.8213)" gradientUnits="userSpaceOnUse">
		<stop  offset="9.523810e-02" style="stop-color:#9F00AA"/>
		<stop  offset="0.5238" style="stop-color:#6B00AA"/>
		<stop  offset="0.6692" style="stop-color:#560089"/>
		<stop  offset="0.8757" style="stop-color:#350055"/>
	</radialGradient>
	<path id="_x31_" fill="url(#_x31__00000160904191177924191620000010778544453670466945_)" d="M1722.7,237c0,3.2-4.6,5.9-10.3,5.9
		c-5.7,0-10.3-2.6-10.3-5.9c0-3.2,7.4-9.2,13.1-9.2C1720.9,227.8,1722.7,233.8,1722.7,237z"/>
	
		<linearGradient id="_x31_9_00000060017406204037942470000012873628704026388660_" gradientUnits="userSpaceOnUse" x1="1671.0361" y1="335.2213" x2="1668.5778" y2="323.02">
		<stop  offset="9.523810e-02" style="stop-color:#9F00AA"/>
		<stop  offset="0.5238" style="stop-color:#6B00AA"/>
		<stop  offset="0.6692" style="stop-color:#560089"/>
		<stop  offset="0.8757" style="stop-color:#350055"/>
	</linearGradient>
	
		<path id="_x31_9_00000036973658960897633590000000154865709696991649_" fill="url(#_x31_9_00000060017406204037942470000012873628704026388660_)" d="
		M1681.3,331.4c-0.7,2.3-8.4,1-14.6-1.1c-6.2-2.1-9.4-3-9.4-5.6c0-3.8,9.1-6.2,15.4-4.2C1678.8,322.6,1682.6,327.3,1681.3,331.4z"/>
</g>
</svg>
