<?xml version="1.0" encoding="UTF-8"?><svg id="a" xmlns="http://www.w3.org/2000/svg" viewBox="0 0 418.36 1887.28"><defs><style>.b{opacity:.65;}.c{opacity:.43;}.d{fill:#d7d4e4;}.e{opacity:.67;}</style></defs><g class="e"><path class="d" d="M355.16,1036.27c-12.61,4.05-29.87,4.08-42.48,0,12.6-4.08,29.87-4.05,42.48,0h0Z"/><path class="d" d="M335.34,1053.26c-4.05-10.9-4.08-25.92,0-36.82,4.08,10.9,4.05,25.91,0,36.82h0Z"/></g><g class="e"><path class="d" d="M322.54,900.96c-5.21,4.05-12.51,4.08-17.72,0,5.21-4.08,12.51-4.05,17.72,0h0Z"/><path class="d" d="M314.27,908.05c-4.03-4.38-4.06-10.99,0-15.36,4.06,4.37,4.03,10.98,0,15.36h0Z"/></g><g class="e"><path class="d" d="M348.23,1145.08c-12,4.05-28.45,4.08-40.45,0,11.99-4.08,28.45-4.05,40.45,0h0Z"/><path class="d" d="M329.35,1161.26c-4.05-10.36-4.08-24.69,0-35.06,4.08,10.36,4.05,24.69,0,35.06h0Z"/></g><g class="e"><path class="d" d="M399.75,1450c5.48-4.05,13.14-4.08,18.61,0-5.47,4.08-13.13,4.05-18.61,0h0Z"/><path class="d" d="M408.44,1457.44c-4.04-4.65-4.06-11.48,0-16.13,4.06,4.65,4.04,11.48,0,16.13h0Z"/></g><g class="e"><path class="d" d="M212.57,1297.42c5.48-4.05,13.14-4.08,18.61,0-5.47,4.08-13.13,4.05-18.61,0h0Z"/><path class="d" d="M221.25,1304.86c-4.04-4.65-4.06-11.48,0-16.13,4.06,4.65,4.04,11.48,0,16.13h0Z"/></g><g class="e"><path class="d" d="M287.36,1216.87c5.48-4.05,13.14-4.08,18.61,0-5.47,4.08-13.13,4.05-18.61,0h0Z"/><path class="d" d="M296.05,1224.31c-4.04-4.65-4.06-11.48,0-16.13,4.06,4.65,4.04,11.48,0,16.13h0Z"/></g><g class="e"><path class="d" d="M251.4,1506.48c7.09-4.05,17.01-4.08,24.09,0-7.09,4.08-17,4.05-24.09,0h0Z"/><path class="d" d="M262.65,1516.12c-4.05-6.12-4.07-14.76,0-20.88,4.07,6.11,4.05,14.76,0,20.88h0Z"/></g><g class="b"><path class="d" d="M366.01,589.65c-5.21,4.05-12.51,4.08-17.72,0,5.21-4.08,12.51-4.05,17.72,0h0Z"/><path class="d" d="M357.74,596.74c-4.03-4.38-4.06-10.99,0-15.36,4.06,4.37,4.03,10.98,0,15.36h0Z"/></g><g class="b"><path class="d" d="M282.95,1001.05c-5.21,4.05-12.51,4.08-17.72,0,5.21-4.08,12.51-4.05,17.72,0h0Z"/><path class="d" d="M274.67,1008.14c-4.03-4.38-4.06-10.99,0-15.36,4.06,4.37,4.03,10.98,0,15.36h0Z"/></g><g class="e"><path class="d" d="M339.24,872.1c-5.21,4.05-12.51,4.08-17.72,0,5.21-4.08,12.51-4.05,17.72,0h0Z"/><path class="d" d="M330.97,879.19c-4.03-4.38-4.06-10.99,0-15.36,4.06,4.37,4.03,10.98,0,15.36h0Z"/></g><g class="b"><path class="d" d="M327.17,726.85c-5.21,4.05-12.51,4.08-17.72,0,5.21-4.08,12.51-4.05,17.72,0h0Z"/><path class="d" d="M318.9,733.94c-4.03-4.38-4.06-10.99,0-15.36,4.06,4.37,4.03,10.98,0,15.36h0Z"/></g><g class="e"><path class="d" d="M310.37,872.28c-5.48,4.05-13.14,4.08-18.61,0,5.47-4.08,13.13-4.05,18.61,0h0Z"/><path class="d" d="M301.69,879.73c-4.04-4.65-4.06-11.48,0-16.13,4.06,4.65,4.04,11.48,0,16.13h0Z"/></g><g class="e"><path class="d" d="M253.03,1023.15c-5.48,4.05-13.14,4.08-18.61,0,5.47-4.08,13.13-4.05,18.61,0h0Z"/><path class="d" d="M244.35,1030.59c-4.04-4.65-4.06-11.48,0-16.13,4.06,4.65,4.04,11.48,0,16.13h0Z"/></g><g class="b"><path class="d" d="M394.67,1319.36c-5.48,4.05-13.14,4.08-18.61,0,5.47-4.08,13.13-4.05,18.61,0h0Z"/><path class="d" d="M385.98,1326.8c-4.04-4.65-4.06-11.48,0-16.13,4.06,4.65,4.04,11.48,0,16.13h0Z"/></g><g class="c"><path class="d" d="M162.39,1691.12c-7.09,4.05-17.01,4.08-24.09,0,7.09-4.08,17-4.05,24.09,0h0Z"/><path class="d" d="M151.15,1700.76c-4.05-6.12-4.07-14.76,0-20.88,4.07,6.11,4.05,14.76,0,20.88h0Z"/></g><g class="b"><path class="d" d="M239.03,1447.05c-5.48,4.05-13.14,4.08-18.61,0,5.47-4.08,13.13-4.05,18.61,0h0Z"/><path class="d" d="M230.34,1454.5c-4.04-4.65-4.06-11.48,0-16.13,4.06,4.65,4.04,11.48,0,16.13h0Z"/></g><g class="b"><path class="d" d="M195.06,1196.49c-5.48,4.05-13.14,4.08-18.61,0,5.47-4.08,13.13-4.05,18.61,0h0Z"/><path class="d" d="M186.38,1203.93c-4.04-4.65-4.06-11.48,0-16.13,4.06,4.65,4.04,11.48,0,16.13h0Z"/></g><g class="b"><path class="d" d="M370.86,1767.24c-7.09,4.05-17.01,4.08-24.09,0,7.09-4.08,17-4.05,24.09,0h0Z"/><path class="d" d="M359.62,1776.88c-4.05-6.12-4.07-14.76,0-20.88,4.07,6.11,4.05,14.76,0,20.88h0Z"/></g><g class="b"><path class="d" d="M304.85,1238.23c-5.48,4.05-13.14,4.08-18.61,0,5.47-4.08,13.13-4.05,18.61,0h0Z"/><path class="d" d="M296.16,1245.68c-4.04-4.65-4.06-11.48,0-16.13,4.06,4.65,4.04,11.48,0,16.13h0Z"/></g><g class="c"><path class="d" d="M109.59,1877.64c-7.09,4.05-17.01,4.08-24.09,0,7.09-4.08,17-4.05,24.09,0h0Z"/><path class="d" d="M98.34,1887.28c-4.05-6.12-4.07-14.76,0-20.88,4.07,6.11,4.05,14.76,0,20.88h0Z"/></g><g class="e"><path class="d" d="M239.42,1512.07c2.67-3.96,7.77-3.99,10.43,0-2.66,3.99-7.77,3.96-10.43,0h0Z"/><path class="d" d="M244.29,1516.25c-3.95-2.25-3.97-6.8,0-9.04,3.97,2.24,3.95,6.8,0,9.04h0Z"/></g><g class="b"><path class="d" d="M376.61,824.1c5.21-4.05,12.51-4.08,17.72,0-5.21,4.08-12.51,4.05-17.72,0h0Z"/><path class="d" d="M384.88,831.18c-4.03-4.38-4.06-10.99,0-15.36,4.06,4.37,4.03,10.98,0,15.36h0Z"/></g><g class="b"><path class="d" d="M402.84,838.87c-5.21,4.05-12.51,4.08-17.72,0,5.21-4.08,12.51-4.05,17.72,0h0Z"/><path class="d" d="M394.57,845.96c-4.03-4.38-4.06-10.99,0-15.36,4.06,4.37,4.03,10.98,0,15.36h0Z"/></g><g class="e"><path class="d" d="M225.58,1516.99c2.67-3.96,7.77-3.99,10.43,0-2.66,3.99-7.77,3.96-10.43,0h0Z"/><path class="d" d="M230.45,1521.16c-3.95-2.25-3.97-6.8,0-9.04,3.97,2.24,3.95,6.8,0,9.04h0Z"/></g><g class="e"><path class="d" d="M241.02,1525.69c-2.67,3.96-7.77,3.99-10.43,0,2.66-3.99,7.77-3.96,10.43,0h0Z"/><path class="d" d="M236.15,1529.86c-3.95-2.25-3.97-6.8,0-9.04,3.97,2.24,3.95,6.8,0,9.04h0Z"/></g><g class="b"><path class="d" d="M198.56,1447.47c5.48-4.05,13.14-4.08,18.61,0-5.47,4.08-13.13,4.05-18.61,0h0Z"/><path class="d" d="M207.25,1454.91c-4.04-4.65-4.06-11.48,0-16.13,4.06,4.65,4.04,11.48,0,16.13h0Z"/></g><g class="b"><path class="d" d="M226.11,1462.98c-5.48,4.05-13.14,4.08-18.61,0,5.47-4.08,13.13-4.05,18.61,0h0Z"/><path class="d" d="M217.42,1470.43c-4.04-4.65-4.06-11.48,0-16.13,4.06,4.65,4.04,11.48,0,16.13h0Z"/></g><g class="e"><path class="d" d="M309.66,838.29c-12,4.05-28.45,4.08-40.45,0,11.99-4.08,28.45-4.05,40.45,0h0Z"/><path class="d" d="M290.78,822.11c4.05,10.36,4.08,24.69,0,35.06-4.08-10.36-4.05-24.69,0-35.06h0Z"/></g><g class="e"><path class="d" d="M330.02,1367.58c-12,4.05-28.45,4.08-40.45,0,11.99-4.08,28.45-4.05,40.45,0h0Z"/><path class="d" d="M311.14,1351.4c4.05,10.36,4.08,24.69,0,35.06-4.08-10.36-4.05-24.69,0-35.06h0Z"/></g><g class="e"><path class="d" d="M315.42,973.73c-5.21,4.05-12.51,4.08-17.72,0,5.21-4.08,12.51-4.05,17.72,0h0Z"/><path class="d" d="M307.15,966.64c4.03,4.38,4.06,10.99,0,15.36-4.06-4.37-4.03-10.98,0-15.36h0Z"/></g><g class="e"><path class="d" d="M384.7,652.33c-5.21,4.05-12.51,4.08-17.72,0,5.21-4.08,12.51-4.05,17.72,0h0Z"/><path class="d" d="M376.43,645.24c4.03,4.38,4.06,10.99,0,15.36-4.06-4.37-4.03-10.98,0-15.36h0Z"/></g><g class="e"><path class="d" d="M336.03,942.13c-5.21,4.05-12.51,4.08-17.72,0,5.21-4.08,12.51-4.05,17.72,0h0Z"/><path class="d" d="M327.76,935.04c4.03,4.38,4.06,10.99,0,15.36-4.06-4.37-4.03-10.98,0-15.36h0Z"/></g><g class="b"><path class="d" d="M321.32,1345.54c-5.21,4.05-12.51,4.08-17.72,0,5.21-4.08,12.51-4.05,17.72,0h0Z"/><path class="d" d="M313.05,1338.45c4.03,4.38,4.06,10.99,0,15.36-4.06-4.37-4.03-10.98,0-15.36h0Z"/></g><g class="e"><path class="d" d="M312.79,540.87c-5.21,4.05-12.51,4.08-17.72,0,5.21-4.08,12.51-4.05,17.72,0h0Z"/><path class="d" d="M304.52,533.78c4.03,4.38,4.06,10.99,0,15.36-4.06-4.37-4.03-10.98,0-15.36h0Z"/></g><g class="e"><path class="d" d="M299.18,729.58c-5.21,4.05-12.51,4.08-17.72,0,5.21-4.08,12.51-4.05,17.72,0h0Z"/><path class="d" d="M290.91,722.49c4.03,4.38,4.06,10.99,0,15.36-4.06-4.37-4.03-10.98,0-15.36h0Z"/></g><g class="e"><path class="d" d="M329.01,879.96c-5.21,4.05-12.51,4.08-17.72,0,5.21-4.08,12.51-4.05,17.72,0h0Z"/><path class="d" d="M320.74,872.87c4.03,4.38,4.06,10.99,0,15.36-4.06-4.37-4.03-10.98,0-15.36h0Z"/></g><g class="e"><path class="d" d="M290.48,879.57c5.21-4.05,12.51-4.08,17.72,0-5.21,4.08-12.51,4.05-17.72,0h0Z"/><path class="d" d="M298.75,872.48c4.03,4.38,4.06,10.99,0,15.36-4.06-4.37-4.03-10.98,0-15.36h0Z"/></g><g class="e"><path class="d" d="M316.71,864.79c-5.21,4.05-12.51,4.08-17.72,0,5.21-4.08,12.51-4.05,17.72,0h0Z"/><path class="d" d="M308.44,857.7c4.03,4.38,4.06,10.99,0,15.36-4.06-4.37-4.03-10.98,0-15.36h0Z"/></g><g class="c"><path class="d" d="M122.22,563.28c-5.21,4.05-12.51,4.08-17.72,0,5.21-4.08,12.51-4.05,17.72,0h0Z"/><path class="d" d="M113.95,570.37c-4.03-4.38-4.06-10.99,0-15.36,4.06,4.37,4.03,10.98,0,15.36h0Z"/></g><g class="b"><path class="d" d="M171.66,660.52c5.21-4.05,12.51-4.08,17.72,0-5.21,4.08-12.51,4.05-17.72,0h0Z"/><path class="d" d="M179.93,667.61c-4.03-4.38-4.06-10.99,0-15.36,4.06,4.37,4.03,10.98,0,15.36h0Z"/></g><g class="b"><path class="d" d="M197.89,675.3c-5.21,4.05-12.51,4.08-17.72,0,5.21-4.08,12.51-4.05,17.72,0h0Z"/><path class="d" d="M189.62,682.39c-4.03-4.38-4.06-10.99,0-15.36,4.06,4.37,4.03,10.98,0,15.36h0Z"/></g><g class="b"><path class="d" d="M219.89,670.63c-5.21,4.05-12.51,4.08-17.72,0,5.21-4.08,12.51-4.05,17.72,0h0Z"/><path class="d" d="M211.62,663.54c4.03,4.38,4.06,10.99,0,15.36-4.06-4.37-4.03-10.98,0-15.36h0Z"/></g><g class="b"><path class="d" d="M297.22,1462.28c-5.21,4.05-12.51,4.08-17.72,0,5.21-4.08,12.51-4.05,17.72,0h0Z"/><path class="d" d="M288.95,1469.37c-4.03-4.38-4.06-10.99,0-15.36,4.06,4.37,4.03,10.98,0,15.36h0Z"/></g><g class="b"><path class="d" d="M346.66,1559.52c5.21-4.05,12.51-4.08,17.72,0-5.21,4.08-12.51,4.05-17.72,0h0Z"/><path class="d" d="M354.93,1566.61c-4.03-4.38-4.06-10.99,0-15.36,4.06,4.37,4.03,10.98,0,15.36h0Z"/></g><g class="b"><path class="d" d="M372.89,1574.3c-5.21,4.05-12.51,4.08-17.72,0,5.21-4.08,12.51-4.05,17.72,0h0Z"/><path class="d" d="M364.62,1581.39c-4.03-4.38-4.06-10.99,0-15.36,4.06,4.37,4.03,10.98,0,15.36h0Z"/></g><g class="b"><path class="d" d="M394.89,1569.63c-5.21,4.05-12.51,4.08-17.72,0,5.21-4.08,12.51-4.05,17.72,0h0Z"/><path class="d" d="M386.62,1562.54c4.03,4.38,4.06,10.99,0,15.36-4.06-4.37-4.03-10.98,0-15.36h0Z"/></g><g class="b"><path class="d" d="M199.22,1764.28c-5.21,4.05-12.51,4.08-17.72,0,5.21-4.08,12.51-4.05,17.72,0h0Z"/><path class="d" d="M190.95,1771.37c-4.03-4.38-4.06-10.99,0-15.36,4.06,4.37,4.03,10.98,0,15.36h0Z"/></g><g class="b"><path class="d" d="M248.66,1861.52c5.21-4.05,12.51-4.08,17.72,0-5.21,4.08-12.51,4.05-17.72,0h0Z"/><path class="d" d="M256.93,1868.61c-4.03-4.38-4.06-10.99,0-15.36,4.06,4.37,4.03,10.98,0,15.36h0Z"/></g><g class="b"><path class="d" d="M274.89,1876.3c-5.21,4.05-12.51,4.08-17.72,0,5.21-4.08,12.51-4.05,17.72,0h0Z"/><path class="d" d="M266.62,1883.39c-4.03-4.38-4.06-10.99,0-15.36,4.06,4.37,4.03,10.98,0,15.36h0Z"/></g><g class="b"><path class="d" d="M296.89,1871.63c-5.21,4.05-12.51,4.08-17.72,0,5.21-4.08,12.51-4.05,17.72,0h0Z"/><path class="d" d="M288.62,1864.54c4.03,4.38,4.06,10.99,0,15.36-4.06-4.37-4.03-10.98,0-15.36h0Z"/></g><g class="c"><path class="d" d="M36.22,1455.28c-5.21,4.05-12.51,4.08-17.72,0,5.21-4.08,12.51-4.05,17.72,0h0Z"/><path class="d" d="M27.95,1462.37c-4.03-4.38-4.06-10.99,0-15.36,4.06,4.37,4.03,10.98,0,15.36h0Z"/></g><g class="c"><path class="d" d="M85.66,1552.52c5.21-4.05,12.51-4.08,17.72,0-5.21,4.08-12.51,4.05-17.72,0h0Z"/><path class="d" d="M93.93,1559.61c-4.03-4.38-4.06-10.99,0-15.36,4.06,4.37,4.03,10.98,0,15.36h0Z"/></g><g class="c"><path class="d" d="M111.89,1567.3c-5.21,4.05-12.51,4.08-17.72,0,5.21-4.08,12.51-4.05,17.72,0h0Z"/><path class="d" d="M103.62,1574.39c-4.03-4.38-4.06-10.99,0-15.36,4.06,4.37,4.03,10.98,0,15.36h0Z"/></g><g class="c"><path class="d" d="M133.89,1562.63c-5.21,4.05-12.51,4.08-17.72,0,5.21-4.08,12.51-4.05,17.72,0h0Z"/><path class="d" d="M125.62,1555.54c4.03,4.38,4.06,10.99,0,15.36-4.06-4.37-4.03-10.98,0-15.36h0Z"/></g><g class="e"><path class="d" d="M172.58,1269.01c12.02-3.99,28.47-3.94,40.45,.2-12.01,4.02-28.47,3.91-40.45-.2h0Z"/><path class="d" d="M191.54,1252.92c4,10.38,3.96,24.71-.18,35.06-4.03-10.38-3.93-24.71,.18-35.06h0Z"/></g><g class="e"><path class="d" d="M59.75,853.89c12.63-3.99,29.89-3.93,42.48,.21-12.62,4.02-29.89,3.9-42.48-.21h0Z"/><path class="d" d="M79.66,837c4,10.92,3.95,25.94-.18,36.82-4.03-10.92-3.92-25.93,.18-36.82h0Z"/></g><g class="e"><path class="d" d="M113.54,1231.85c5.23-4.02,12.53-4.02,17.72,.09-5.23,4.05-12.53,3.99-17.72-.09h0Z"/><path class="d" d="M121.85,1224.81c4.01,4.4,4.01,11.01-.08,15.36-4.04-4.39-3.98-11,.08-15.36h0Z"/></g><g class="e"><path class="d" d="M101.58,1389.05c12.02-3.99,28.47-3.94,40.45,.2-12.01,4.02-28.47,3.91-40.45-.2h0Z"/><path class="d" d="M120.53,1372.96c4,10.38,3.96,24.71-.18,35.06-4.03-10.38-3.93-24.71,.18-35.06h0Z"/></g><g class="e"><path class="d" d="M167.47,1103.84c12.02-3.99,28.47-3.94,40.45,.2-12.01,4.02-28.47,3.91-40.45-.2h0Z"/><path class="d" d="M186.43,1087.76c4,10.38,3.96,24.71-.18,35.06-4.03-10.38-3.93-24.71,.18-35.06h0Z"/></g><g class="e"><path class="d" d="M62.36,975.87c5.23-4.02,12.53-4.02,17.72,.09-5.23,4.05-12.53,3.99-17.72-.09h0Z"/><path class="d" d="M70.67,968.82c4.01,4.4,4.01,11.01-.08,15.36-4.04-4.39-3.98-11,.08-15.36h0Z"/></g><g class="e"><path class="d" d="M62.51,1001.59c-5.5,4.02-13.16,4.01-18.61-.09,5.49-4.05,13.15-3.98,18.61,.09h0Z"/><path class="d" d="M53.85,994.1c4.02,4.67,4,11.5-.08,16.13-4.04-4.67-3.98-11.5,.08-16.13h0Z"/></g><g class="e"><path class="d" d="M200.41,762.48c-5.5,4.02-13.16,4.01-18.61-.09,5.49-4.05,13.15-3.98,18.61,.09h0Z"/><path class="d" d="M191.77,755c4.02,4.67,4,11.5-.08,16.13-4.04-4.67-3.98-11.5,.08-16.13h0Z"/></g><g class="e"><path class="d" d="M125.22,842.66c-5.5,4.02-13.16,4.01-18.61-.09,5.49-4.05,13.15-3.98,18.61,.09h0Z"/><path class="d" d="M116.57,835.18c4.02,4.67,4,11.5-.08,16.13-4.04-4.67-3.98-11.5,.08-16.13h0Z"/></g><g class="e"><path class="d" d="M124.06,1311.15c5.23-4.02,12.53-4.02,17.72,.09-5.23,4.05-12.53,3.99-17.72-.09h0Z"/><path class="d" d="M132.36,1304.1c4.01,4.4,4.01,11.01-.08,15.36-4.04-4.39-3.98-11,.08-15.36h0Z"/></g><g class="b"><path class="d" d="M194.89,1388.19c5.23-4.02,12.53-4.02,17.72,.09-5.23,4.05-12.53,3.99-17.72-.09h0Z"/><path class="d" d="M203.2,1381.14c4.01,4.4,4.01,11.01-.08,15.36-4.04-4.39-3.98-11,.08-15.36h0Z"/></g><g class="b"><path class="d" d="M35.59,1627.76c5.23-4.02,12.53-4.02,17.72,.09-5.23,4.05-12.53,3.99-17.72-.09h0Z"/><path class="d" d="M43.89,1620.71c4.01,4.4,4.01,11.01-.08,15.36-4.04-4.39-3.98-11,.08-15.36h0Z"/></g><g class="b"><path class="d" d="M126.28,1746.74c5.23-4.02,12.53-4.02,17.72,.09-5.23,4.05-12.53,3.99-17.72-.09h0Z"/><path class="d" d="M134.6,1739.69c4.01,4.4,4.01,11.01-.08,15.36-4.04-4.39-3.98-11,.08-15.36h0Z"/></g><g class="e"><path class="d" d="M99.93,1091.6c5.23-4.02,12.53-4.02,17.72,.09-5.23,4.05-12.53,3.99-17.72-.09h0Z"/><path class="d" d="M108.24,1084.56c4.01,4.4,4.01,11.01-.08,15.36-4.04-4.39-3.98-11,.08-15.36h0Z"/></g><g class="b"><path class="d" d="M75.11,1490.75c5.23-4.02,12.53-4.02,17.72,.09-5.23,4.05-12.53,3.99-17.72-.09h0Z"/><path class="d" d="M83.42,1483.7c4.01,4.4,4.01,11.01-.08,15.36-4.04-4.39-3.98-11,.08-15.36h0Z"/></g><g class="e"><path class="d" d="M123.22,561.61c5.5-4.02,13.16-4.01,18.61,.09-5.49,4.05-13.15,3.98-18.61-.09h0Z"/><path class="d" d="M131.94,554.21c4.02,4.67,4,11.5-.08,16.13-4.04-4.67-3.98-11.5,.08-16.13h0Z"/></g><g class="e"><path class="d" d="M161.82,867.52c5.5-4.02,13.16-4.01,18.61,.09-5.49,4.05-13.15,3.98-18.61-.09h0Z"/><path class="d" d="M170.53,860.12c4.02,4.67,4,11.5-.08,16.13-4.04-4.67-3.98-11.5,.08-16.13h0Z"/></g><g class="b"><path class="d" d="M10.57,897.91c5.5-4.02,13.16-4.01,18.61,.09-5.49,4.05-13.15,3.98-18.61-.09h0Z"/><path class="d" d="M19.3,890.52c4.02,4.67,4,11.5-.08,16.13-4.04-4.67-3.98-11.5,.08-16.13h0Z"/></g><g class="c"><path class="d" d="M244.7,527.32c7.11-4.01,17.03-3.99,24.09,.12-7.11,4.04-17.02,3.97-24.09-.12h0Z"/><path class="d" d="M255.99,517.73c4.02,6.14,4,14.78-.1,20.88-4.04-6.13-3.98-14.78,.1-20.88h0Z"/></g><g class="b"><path class="d" d="M166.84,771c5.5-4.02,13.16-4.01,18.61,.09-5.49,4.05-13.15,3.98-18.61-.09h0Z"/><path class="d" d="M175.57,763.6c4.02,4.67,4,11.5-.08,16.13-4.04-4.67-3.98-11.5,.08-16.13h0Z"/></g><g class="b"><path class="d" d="M209.56,1021.78c5.5-4.02,13.16-4.01,18.61,.09-5.49,4.05-13.15,3.98-18.61-.09h0Z"/><path class="d" d="M218.28,1014.38c4.02,4.67,4,11.5-.08,16.13-4.04-4.67-3.98-11.5,.08-16.13h0Z"/></g><g class="b"><path class="d" d="M99.98,979.49c5.5-4.02,13.16-4.01,18.61,.09-5.49,4.05-13.15,3.98-18.61-.09h0Z"/><path class="d" d="M108.71,972.08c4.02,4.67,4,11.5-.08,16.13-4.04-4.67-3.98-11.5,.08-16.13h0Z"/></g><g class="e"><path class="d" d="M147.28,1289.86c-5.23,4.02-12.53,4.02-17.72-.09,5.23-4.05,12.53-3.99,17.72,.09h0Z"/><path class="d" d="M139.04,1282.73c4.01,4.4,4.01,11.01-.08,15.36-4.04-4.39-3.98-11,.08-15.36h0Z"/></g><g class="e"><path class="d" d="M166.41,17.77c-2.69,3.95-7.79,3.95-10.43-.05,2.68-3.98,7.79-3.92,10.43,.05h0Z"/><path class="d" d="M161.56,13.57c3.94,2.27,3.94,6.82-.05,9.04-3.96-2.26-3.92-6.82,.05-9.04h0Z"/></g><g class="e"><path class="d" d="M97.32,547.4c-5.5,4.02-13.16,4.01-18.61-.09,5.49-4.05,13.15-3.98,18.61,.09h0Z"/><path class="d" d="M88.67,539.91c4.02,4.67,4,11.5-.08,16.13-4.04-4.67-3.98-11.5,.08-16.13h0Z"/></g><g class="b"><path class="d" d="M26.16,1393.26c-5.23,4.02-12.53,4.02-17.72-.09,5.23-4.05,12.53-3.99,17.72,.09h0Z"/><path class="d" d="M17.92,1386.14c4.01,4.4,4.01,11.01-.08,15.36-4.04-4.39-3.98-11,.08-15.36h0Z"/></g><g class="b"><path class="d" d="M0,1378.36c5.23-4.02,12.53-4.02,17.72,.09-5.23,4.05-12.53,3.99-17.72-.09H0Z"/><path class="d" d="M8.31,1371.31c4.01,4.4,4.01,11.01-.08,15.36-4.04-4.39-3.98-11,.08-15.36h0Z"/></g><g class="e"><path class="d" d="M180.27,12.92c-2.69,3.95-7.79,3.95-10.43-.05,2.68-3.98,7.79-3.92,10.43,.05h0Z"/><path class="d" d="M175.42,8.73c3.94,2.27,3.94,6.82-.05,9.04-3.96-2.26-3.92-6.82,.05-9.04h0Z"/></g><g class="e"><path class="d" d="M164.87,4.15c2.69-3.95,7.79-3.95,10.43,.05-2.68,3.98-7.79,3.92-10.43-.05h0Z"/><path class="d" d="M169.77,0c3.94,2.27,3.94,6.82-.05,9.04-3.96-2.26-3.92-6.82,.05-9.04h0Z"/></g><g class="b"><path class="d" d="M207.32,770.78c-5.5,4.02-13.16,4.01-18.61-.09,5.49-4.05,13.15-3.98,18.61,.09h0Z"/><path class="d" d="M198.66,763.3c4.02,4.67,4,11.5-.08,16.13-4.04-4.67-3.98-11.5,.08-16.13h0Z"/></g><g class="b"><path class="d" d="M179.84,755.14c5.5-4.02,13.16-4.01,18.61,.09-5.49,4.05-13.15,3.98-18.61-.09h0Z"/><path class="d" d="M188.57,747.73c4.02,4.67,4,11.5-.08,16.13-4.04-4.67-3.98-11.5,.08-16.13h0Z"/></g><g class="e"><path class="d" d="M94.4,1415.5c5.23-4.02,12.53-4.02,17.72,.09-5.23,4.05-12.53,3.99-17.72-.09h0Z"/><path class="d" d="M102.7,1408.45c4.01,4.4,4.01,11.01-.08,15.36-4.04-4.39-3.98-11,.08-15.36h0Z"/></g><g class="e"><path class="d" d="M120.53,764.62c12.02-3.99,28.47-3.94,40.45,.2-12.01,4.02-28.47,3.91-40.45-.2h0Z"/><path class="d" d="M139.33,780.9c-4-10.38-3.96-24.71,.18-35.06,4.03,10.38,3.93,24.71-.18,35.06h0Z"/></g><g class="e"><path class="d" d="M31.3,1076.5c12.02-3.99,28.47-3.94,40.45,.2-12.01,4.02-28.47,3.91-40.45-.2h0Z"/><path class="d" d="M50.1,1092.77c-4-10.38-3.96-24.71,.18-35.06,4.03,10.38,3.93,24.71-.18,35.06h0Z"/></g><g class="e"><path class="d" d="M115.44,629.16c5.23-4.02,12.53-4.02,17.72,.09-5.23,4.05-12.53,3.99-17.72-.09h0Z"/><path class="d" d="M123.68,636.29c-4.01-4.4-4.01-11.01,.08-15.36,4.04,4.39,3.98,11-.08,15.36h0Z"/></g><g class="c"><path class="d" d="M249.27,1842.39c5.23-4.02,12.53-4.02,17.72,.09-5.23,4.05-12.53,3.99-17.72-.09h0Z"/><path class="d" d="M257.5,1849.52c-4.01-4.4-4.01-11.01,.08-15.36,4.04,4.39,3.98,11-.08,15.36h0Z"/></g><g class="e"><path class="d" d="M47.79,781.19c5.23-4.02,12.53-4.02,17.72,.09-5.23,4.05-12.53,3.99-17.72-.09h0Z"/><path class="d" d="M56.03,788.32c-4.01-4.4-4.01-11.01,.08-15.36,4.04,4.39,3.98,11-.08,15.36h0Z"/></g><g class="e"><path class="d" d="M103.49,1021.59c5.23-4.02,12.53-4.02,17.72,.09-5.23,4.05-12.53,3.99-17.72-.09h0Z"/><path class="d" d="M111.73,1028.72c-4.01-4.4-4.01-11.01,.08-15.36,4.04,4.39,3.98,11-.08,15.36h0Z"/></g><g class="b"><path class="d" d="M195.38,903.52c5.23-4.02,12.53-4.02,17.72,.09-5.23,4.05-12.53,3.99-17.72-.09h0Z"/><path class="d" d="M203.62,910.65c-4.01-4.4-4.01-11.01,.08-15.36,4.04,4.39,3.98,11-.08,15.36h0Z"/></g><g class="e"><path class="d" d="M115.91,1062.02c5.23-4.02,12.53-4.02,17.72,.09-5.23,4.05-12.53,3.99-17.72-.09h0Z"/><path class="d" d="M124.15,1069.16c-4.01-4.4-4.01-11.01,.08-15.36,4.04,4.39,3.98,11-.08,15.36h0Z"/></g><g class="e"><path class="d" d="M133.7,704.37c5.23-4.02,12.53-4.02,17.72,.09-5.23,4.05-12.53,3.99-17.72-.09h0Z"/><path class="d" d="M141.93,711.5c-4.01-4.4-4.01-11.01,.08-15.36,4.04,4.39,3.98,11-.08,15.36h0Z"/></g><g class="c"><path class="d" d="M272.27,1863.89c-5.23,4.02-12.53,4.02-17.72-.09,5.23-4.05,12.53-3.99,17.72,.09h0Z"/><path class="d" d="M263.96,1870.94c-4.01-4.4-4.01-11.01,.08-15.36,4.04,4.39,3.98,11-.08,15.36h0Z"/></g><g class="e"><path class="d" d="M101.39,722.86c5.23-4.02,12.53-4.02,17.72,.09-5.23,4.05-12.53,3.99-17.72-.09h0Z"/><path class="d" d="M109.62,729.99c-4.01-4.4-4.01-11.01,.08-15.36,4.04,4.39,3.98,11-.08,15.36h0Z"/></g><g class="e"><path class="d" d="M139.91,723.44c-5.23,4.02-12.53,4.02-17.72-.09,5.23-4.05,12.53-3.99,17.72,.09h0Z"/><path class="d" d="M131.61,730.49c-4.01-4.4-4.01-11.01,.08-15.36,4.04,4.39,3.98,11-.08,15.36h0Z"/></g><g class="e"><path class="d" d="M113.61,738.09c5.23-4.02,12.53-4.02,17.72,.09-5.23,4.05-12.53,3.99-17.72-.09h0Z"/><path class="d" d="M121.84,745.22c-4.01-4.4-4.01-11.01,.08-15.36,4.04,4.39,3.98,11-.08,15.36h0Z"/></g><g class="c"><path class="d" d="M279.24,1655.34c5.23-4.02,12.53-4.02,17.72,.09-5.23,4.05-12.53,3.99-17.72-.09h0Z"/><path class="d" d="M287.55,1648.3c4.01,4.4,4.01,11.01-.08,15.36-4.04-4.39-3.98-11,.08-15.36h0Z"/></g><g class="b"><path class="d" d="M230.29,1557.86c-5.23,4.02-12.53,4.02-17.72-.09,5.23-4.05,12.53-3.99,17.72,.09h0Z"/><path class="d" d="M222.05,1550.73c4.01,4.4,4.01,11.01-.08,15.36-4.04-4.39-3.98-11,.08-15.36h0Z"/></g><g class="b"><path class="d" d="M204.13,1542.95c5.23-4.02,12.53-4.02,17.72,.09-5.23,4.05-12.53,3.99-17.72-.09h0Z"/><path class="d" d="M212.44,1535.9c4.01,4.4,4.01,11.01-.08,15.36-4.04-4.39-3.98-11,.08-15.36h0Z"/></g><g class="b"><path class="d" d="M182.11,1547.51c5.23-4.02,12.53-4.02,17.72,.09-5.23,4.05-12.53,3.99-17.72-.09h0Z"/><path class="d" d="M190.34,1554.64c-4.01-4.4-4.01-11.01,.08-15.36,4.04,4.39,3.98,11-.08,15.36h0Z"/></g><g class="b"><path class="d" d="M108.73,755.48c5.23-4.02,12.53-4.02,17.72,.09-5.23,4.05-12.53,3.99-17.72-.09h0Z"/><path class="d" d="M117.04,748.43c4.01,4.4,4.01,11.01-.08,15.36-4.04-4.39-3.98-11,.08-15.36h0Z"/></g><g class="b"><path class="d" d="M59.78,658c-5.23,4.02-12.53,4.02-17.72-.09,5.23-4.05,12.53-3.99,17.72,.09h0Z"/><path class="d" d="M51.54,650.86c4.01,4.4,4.01,11.01-.08,15.36-4.04-4.39-3.98-11,.08-15.36h0Z"/></g><g class="b"><path class="d" d="M33.62,643.09c5.23-4.02,12.53-4.02,17.72,.09-5.23,4.05-12.53,3.99-17.72-.09h0Z"/><path class="d" d="M41.93,636.04c4.01,4.4,4.01,11.01-.08,15.36-4.04-4.39-3.98-11,.08-15.36h0Z"/></g><g class="b"><path class="d" d="M11.6,647.65c5.23-4.02,12.53-4.02,17.72,.09-5.23,4.05-12.53,3.99-17.72-.09h0Z"/><path class="d" d="M19.83,654.78c-4.01-4.4-4.01-11.01,.08-15.36,4.04,4.39,3.98,11-.08,15.36h0Z"/></g><g class="c"><path class="d" d="M369.69,763.78c5.23-4.02,12.53-4.02,17.72,.09-5.23,4.05-12.53,3.99-17.72-.09h0Z"/><path class="d" d="M378,756.74c4.01,4.4,4.01,11.01-.08,15.36-4.04-4.39-3.98-11,.08-15.36h0Z"/></g><g class="c"><path class="d" d="M320.74,666.3c-5.23,4.02-12.53,4.02-17.72-.09,5.23-4.05,12.53-3.99,17.72,.09h0Z"/><path class="d" d="M312.5,659.17c4.01,4.4,4.01,11.01-.08,15.36-4.04-4.39-3.98-11,.08-15.36h0Z"/></g><g class="c"><path class="d" d="M294.58,651.39c5.23-4.02,12.53-4.02,17.72,.09-5.23,4.05-12.53,3.99-17.72-.09h0Z"/><path class="d" d="M302.89,644.34c4.01,4.4,4.01,11.01-.08,15.36-4.04-4.39-3.98-11,.08-15.36h0Z"/></g><g class="c"><path class="d" d="M272.56,655.95c5.23-4.02,12.53-4.02,17.72,.09-5.23,4.05-12.53,3.99-17.72-.09h0Z"/><path class="d" d="M280.79,663.08c-4.01-4.4-4.01-11.01,.08-15.36,4.04,4.39,3.98,11-.08,15.36h0Z"/></g><g class="b"><path class="d" d="M170.85,1046.6c-5.48,4.05-13.14,4.08-18.61,0,5.47-4.08,13.13-4.05,18.61,0h0Z"/><path class="d" d="M162.16,1054.05c-4.04-4.65-4.06-11.48,0-16.13,4.06,4.65,4.04,11.48,0,16.13h0Z"/></g><g class="b"><path class="d" d="M130.38,1047.02c5.48-4.05,13.14-4.08,18.61,0-5.47,4.08-13.13,4.05-18.61,0h0Z"/><path class="d" d="M139.07,1054.46c-4.04-4.65-4.06-11.48,0-16.13,4.06,4.65,4.04,11.48,0,16.13h0Z"/></g><g class="b"><path class="d" d="M157.93,1062.53c-5.48,4.05-13.14,4.08-18.61,0,5.47-4.08,13.13-4.05,18.61,0h0Z"/><path class="d" d="M149.24,1069.98c-4.04-4.65-4.06-11.48,0-16.13,4.06,4.65,4.04,11.48,0,16.13h0Z"/></g><g class="c"><path class="d" d="M185.45,575.43c-5.21,4.05-12.51,4.08-17.72,0,5.21-4.08,12.51-4.05,17.72,0h0Z"/><path class="d" d="M177.18,582.52c-4.03-4.38-4.06-10.99,0-15.36,4.06,4.37,4.03,10.98,0,15.36h0Z"/></g><g class="c"><path class="d" d="M17.48,1152.07c5.21-4.05,12.51-4.08,17.72,0-5.21,4.08-12.51,4.05-17.72,0h0Z"/><path class="d" d="M25.75,1159.16c-4.03-4.38-4.06-10.99,0-15.36,4.06,4.37,4.03,10.98,0,15.36h0Z"/></g><g class="c"><path class="d" d="M43.71,1166.85c-5.21,4.05-12.51,4.08-17.72,0,5.21-4.08,12.51-4.05,17.72,0h0Z"/><path class="d" d="M35.44,1173.94c-4.03-4.38-4.06-10.99,0-15.36,4.06,4.37,4.03,10.98,0,15.36h0Z"/></g><g class="c"><path class="d" d="M65.71,1162.18c-5.21,4.05-12.51,4.08-17.72,0,5.21-4.08,12.51-4.05,17.72,0h0Z"/><path class="d" d="M57.44,1155.09c4.03,4.38,4.06,10.99,0,15.36-4.06-4.37-4.03-10.98,0-15.36h0Z"/></g><g class="b"><path class="d" d="M6.93,1090.3c5.23-4.02,12.53-4.02,17.72,.09-5.23,4.05-12.53,3.99-17.72-.09h0Z"/><path class="d" d="M15.24,1083.25c4.01,4.4,4.01,11.01-.08,15.36-4.04-4.39-3.98-11,.08-15.36h0Z"/></g><g class="b"><path class="d" d="M162.11,1157.41c-5.23,4.02-12.53,4.02-17.72-.09,5.23-4.05,12.53-3.99,17.72,.09h0Z"/><path class="d" d="M153.87,1150.28c4.01,4.4,4.01,11.01-.08,15.36-4.04-4.39-3.98-11,.08-15.36h0Z"/></g><g class="b"><path class="d" d="M135.95,1142.5c5.23-4.02,12.53-4.02,17.72,.09-5.23,4.05-12.53,3.99-17.72-.09h0Z"/><path class="d" d="M144.26,1135.45c4.01,4.4,4.01,11.01-.08,15.36-4.04-4.39-3.98-11,.08-15.36h0Z"/></g><g class="b"><path class="d" d="M113.93,1147.06c5.23-4.02,12.53-4.02,17.72,.09-5.23,4.05-12.53,3.99-17.72-.09h0Z"/><path class="d" d="M122.16,1154.19c-4.01-4.4-4.01-11.01,.08-15.36,4.04,4.39,3.98,11-.08,15.36h0Z"/></g></svg>