<?xml version="1.0" encoding="UTF-8"?><svg xmlns="http://www.w3.org/2000/svg" viewBox="0 0 1920 1080.39"><defs><style>.c{opacity:.65;}.d{fill:#d7d4e4;}.e{opacity:.92;}.f{opacity:.43;}.g{opacity:.67;}</style></defs><g id="a"><g class="e"><path class="d" d="M104.54,89.75c4.05,5.21,4.08,12.51,0,17.72-4.08-5.21-4.05-12.51,0-17.72h0Z"/><path class="d" d="M111.63,98.02c-4.38,4.03-10.99,4.06-15.36,0,4.37-4.06,10.98-4.03,15.36,0h0Z"/></g><g class="e"><path class="d" d="M272.81,101.96c4.05,12,4.08,28.45,0,40.45-4.08-11.99-4.05-28.45,0-40.45h0Z"/><path class="d" d="M288.99,120.84c-10.36,4.05-24.69,4.08-35.06,0,10.36-4.08,24.69-4.05,35.06,0h0Z"/></g><g class="e"><path class="d" d="M317.99,117.6c4.05,5.21,4.08,12.51,0,17.72-4.08-5.21-4.05-12.51,0-17.72h0Z"/><path class="d" d="M325.08,125.87c-4.38,4.03-10.99,4.06-15.36,0,4.37-4.06,10.98-4.03,15.36,0h0Z"/></g><g class="e"><path class="d" d="M241.29,188.82c4.05,5.21,4.08,12.51,0,17.72-4.08-5.21-4.05-12.51,0-17.72h0Z"/><path class="d" d="M248.38,197.09c-4.38,4.03-10.99,4.06-15.36,0,4.37-4.06,10.98-4.03,15.36,0h0Z"/></g><g class="g"><path class="d" d="M326.02,396.24c4.05,12,4.08,28.45,0,40.45-4.08-11.99-4.05-28.45,0-40.45h0Z"/><path class="d" d="M342.2,415.12c-10.36,4.05-24.69,4.08-35.06,0,10.36-4.08,24.69-4.05,35.06,0h0Z"/></g><g class="e"><path class="d" d="M481.41,245.72c4.05,5.21,4.08,12.51,0,17.72-4.08-5.21-4.05-12.51,0-17.72h0Z"/><path class="d" d="M488.5,253.99c-4.38,4.03-10.99,4.06-15.36,0,4.37-4.06,10.98-4.03,15.36,0h0Z"/></g><g class="g"><path class="d" d="M1286.07,436.43c4.05,12.61,4.08,29.87,0,42.48-4.08-12.6-4.05-29.87,0-42.48h0Z"/><path class="d" d="M1303.06,456.25c-10.9,4.05-25.92,4.08-36.82,0,10.9-4.08,25.91-4.05,36.82,0h0Z"/></g><g class="g"><path class="d" d="M362.88,337.02c4.05,5.21,4.08,12.51,0,17.72-4.08-5.21-4.05-12.51,0-17.72h0Z"/><path class="d" d="M369.97,345.29c-4.38,4.03-10.99,4.06-15.36,0,4.37-4.06,10.98-4.03,15.36,0h0Z"/></g><g class="g"><path class="d" d="M124.29,378.88c4.05,5.21,4.08,12.51,0,17.72-4.08-5.21-4.05-12.51,0-17.72h0Z"/><path class="d" d="M131.38,387.15c-4.38,4.03-10.99,4.06-15.36,0,4.37-4.06,10.98-4.03,15.36,0h0Z"/></g><g class="g"><path class="d" d="M221.25,491.8c4.05,12,4.08,28.45,0,40.45-4.08-11.99-4.05-28.45,0-40.45h0Z"/><path class="d" d="M237.43,510.67c-10.36,4.05-24.69,4.08-35.06,0,10.36-4.08,24.69-4.05,35.06,0h0Z"/></g><g class="e"><path class="d" d="M510.23,149.86c4.05,12,4.08,28.45,0,40.45-4.08-11.99-4.05-28.45,0-40.45h0Z"/><path class="d" d="M526.41,168.74c-10.36,4.05-24.69,4.08-35.06,0,10.36-4.08,24.69-4.05,35.06,0h0Z"/></g><g class="e"><path class="d" d="M537.4,92.38c4.05,5.21,4.08,12.51,0,17.72-4.08-5.21-4.05-12.51,0-17.72h0Z"/><path class="d" d="M544.49,100.65c-4.38,4.03-10.99,4.06-15.36,0,4.37-4.06,10.98-4.03,15.36,0h0Z"/></g><g class="e"><path class="d" d="M1231.83,87.33c4.05,12.61,4.08,29.87,0,42.48-4.08-12.6-4.05-29.87,0-42.48h0Z"/><path class="d" d="M1248.82,107.15c-10.9,4.05-25.92,4.08-36.82,0,10.9-4.08,25.91-4.05,36.82,0h0Z"/></g><g class="e"><path class="d" d="M164.04,274.34c4.05,5.21,4.08,12.51,0,17.72-4.08-5.21-4.05-12.51,0-17.72h0Z"/><path class="d" d="M171.13,282.61c-4.38,4.03-10.99,4.06-15.36,0,4.37-4.06,10.98-4.03,15.36,0h0Z"/></g><g class="f"><path class="d" d="M136.18,865.06c4.05,12,4.08,28.45,0,40.45-4.08-11.99-4.05-28.45,0-40.45h0Z"/><path class="d" d="M152.36,883.94c-10.36,4.05-24.69,4.08-35.06,0,10.36-4.08,24.69-4.05,35.06,0h0Z"/></g><g class="g"><path class="d" d="M506.78,556.27c4.05,12,4.08,28.45,0,40.45-4.08-11.99-4.05-28.45,0-40.45h0Z"/><path class="d" d="M522.96,575.15c-10.36,4.05-24.69,4.08-35.06,0,10.36-4.08,24.69-4.05,35.06,0h0Z"/></g><g class="g"><path class="d" d="M618.61,284.56c4.05,5.21,4.08,12.51,0,17.72-4.08-5.21-4.05-12.51,0-17.72h0Z"/><path class="d" d="M625.7,292.83c-4.38,4.03-10.99,4.06-15.36,0,4.37-4.06,10.98-4.03,15.36,0h0Z"/></g><g class="g"><path class="d" d="M1780.22,517.76c2.36,9.06,2.92,18.23,3,27.5-.06,9.26-.62,18.43-3,27.5-2.38-9.06-2.93-18.23-3-27.5,.08-9.26,.64-18.43,3-27.5h0Z"/><path class="d" d="M1802.22,543.43c-14.15,4.05-33.51,4.08-47.66,0,14.14-4.08,33.51-4.05,47.66,0h0Z"/></g><g class="c"><path class="d" d="M1806.83,621.07c2.36,9.06,2.92,18.23,3,27.5-.06,9.26-.62,18.43-3,27.5-2.38-9.06-2.93-18.23-3-27.5,.08-9.26,.64-18.43,3-27.5h0Z"/><path class="d" d="M1828.83,646.73c-14.15,4.05-33.51,4.08-47.66,0,14.14-4.08,33.51-4.05,47.66,0h0Z"/></g><g class="e"><path class="d" d="M563.19,118.78c4.05,12,4.08,28.45,0,40.45-4.08-11.99-4.05-28.45,0-40.45h0Z"/><path class="d" d="M579.37,137.65c-10.36,4.05-24.69,4.08-35.06,0,10.36-4.08,24.69-4.05,35.06,0h0Z"/></g><g class="e"><path class="d" d="M143.93,75.63c4.05,12,4.08,28.45,0,40.45-4.08-11.99-4.05-28.45,0-40.45h0Z"/><path class="d" d="M160.11,94.51c-10.36,4.05-24.69,4.08-35.06,0,10.36-4.08,24.69-4.05,35.06,0h0Z"/></g><g class="e"><path class="d" d="M1078.13,114.37c4.05,12.61,4.08,29.87,0,42.48-4.08-12.6-4.05-29.87,0-42.48h0Z"/><path class="d" d="M1095.13,134.19c-10.9,4.05-25.92,4.08-36.82,0,10.9-4.08,25.91-4.05,36.82,0h0Z"/></g><g class="g"><path class="d" d="M1138.39,439.92c-4.05-5.48-4.08-13.14,0-18.61,4.08,5.47,4.05,13.13,0,18.61h0Z"/><path class="d" d="M1145.83,431.23c-4.65,4.04-11.48,4.06-16.13,0,4.65-4.06,11.48-4.04,16.13,0h0Z"/></g><g class="g"><path class="d" d="M1362.56,410.67c-4.05-5.48-4.08-13.14,0-18.61,4.08,5.47,4.05,13.13,0,18.61h0Z"/><path class="d" d="M1370,401.99c-4.65,4.04-11.48,4.06-16.13,0,4.65-4.06,11.48-4.04,16.13,0h0Z"/></g><g class="g"><path class="d" d="M1282.01,335.88c-4.05-5.48-4.08-13.14,0-18.61,4.08,5.47,4.05,13.13,0,18.61h0Z"/><path class="d" d="M1289.45,327.19c-4.65,4.04-11.48,4.06-16.13,0,4.65-4.06,11.48-4.04,16.13,0h0Z"/></g><g class="g"><path class="d" d="M1840.16,432.72c-4.05-7.09-4.08-17.01,0-24.09,4.08,7.09,4.05,17,0,24.09h0Z"/><path class="d" d="M1849.8,421.48c-6.12,4.05-14.76,4.07-20.88,0,6.11-4.07,14.76-4.05,20.88,0h0Z"/></g><g class="e"><path class="d" d="M1159.14,136.27c-4.05-5.48-4.08-13.14,0-18.61,4.08,5.47,4.05,13.13,0,18.61h0Z"/><path class="d" d="M1166.58,127.58c-4.65,4.04-11.48,4.06-16.13,0,4.65-4.06,11.48-4.04,16.13,0h0Z"/></g><g class="g"><path class="d" d="M1756.28,540.19c-4.05-7.09-4.08-17.01,0-24.09,4.08,7.09,4.05,17,0,24.09h0Z"/><path class="d" d="M1765.92,528.94c-6.12,4.05-14.76,4.07-20.88,0,6.11-4.07,14.76-4.05,20.88,0h0Z"/></g><g class="e"><path class="d" d="M1200.88,246.06c-4.05-5.48-4.08-13.14,0-18.61,4.08,5.47,4.05,13.13,0,18.61h0Z"/><path class="d" d="M1208.33,237.37c-4.65,4.04-11.48,4.06-16.13,0,4.65-4.06,11.48-4.04,16.13,0h0Z"/></g><g class="e"><path class="d" d="M1584.68,63.92c-4.05-7.09-4.08-17.01,0-24.09,4.08,7.09,4.05,17,0,24.09h0Z"/><path class="d" d="M1594.32,52.67c-6.12,4.05-14.76,4.07-20.88,0,6.11-4.07,14.76-4.05,20.88,0h0Z"/></g><g class="g"><path class="d" d="M85.82,486.04c4.05,5.21,4.08,12.51,0,17.72-4.08-5.21-4.05-12.51,0-17.72h0Z"/><path class="d" d="M92.91,494.31c-4.38,4.03-10.99,4.06-15.36,0,4.37-4.06,10.98-4.03,15.36,0h0Z"/></g><g class="g"><path class="d" d="M299.26,513.89c4.05,5.21,4.08,12.51,0,17.72-4.08-5.21-4.05-12.51,0-17.72h0Z"/><path class="d" d="M306.35,522.16c-4.38,4.03-10.99,4.06-15.36,0,4.37-4.06,10.98-4.03,15.36,0h0Z"/></g><g class="c"><path class="d" d="M222.57,585.11c4.05,5.21,4.08,12.51,0,17.72-4.08-5.21-4.05-12.51,0-17.72h0Z"/><path class="d" d="M229.66,593.38c-4.38,4.03-10.99,4.06-15.36,0,4.37-4.06,10.98-4.03,15.36,0h0Z"/></g><g class="c"><path class="d" d="M462.69,642.01c4.05,5.21,4.08,12.51,0,17.72-4.08-5.21-4.05-12.51,0-17.72h0Z"/><path class="d" d="M469.78,650.28c-4.38,4.03-10.99,4.06-15.36,0,4.37-4.06,10.98-4.03,15.36,0h0Z"/></g><g class="c"><path class="d" d="M344.16,733.3c4.05,5.21,4.08,12.51,0,17.72-4.08-5.21-4.05-12.51,0-17.72h0Z"/><path class="d" d="M351.25,741.58c-4.38,4.03-10.99,4.06-15.36,0,4.37-4.06,10.98-4.03,15.36,0h0Z"/></g><g class="f"><path class="d" d="M115.65,1026.67c4.05,7.09,4.08,17.01,0,24.09-4.08-7.09-4.05-17,0-24.09h0Z"/><path class="d" d="M125.29,1037.91c-6.12,4.05-14.76,4.07-20.88,0,6.11-4.07,14.76-4.05,20.88,0h0Z"/></g><g class="g"><path class="d" d="M518.68,488.67c4.05,5.21,4.08,12.51,0,17.72-4.08-5.21-4.05-12.51,0-17.72h0Z"/><path class="d" d="M525.77,496.94c-4.38,4.03-10.99,4.06-15.36,0,4.37-4.06,10.98-4.03,15.36,0h0Z"/></g><g class="c"><path class="d" d="M145.32,670.63c4.05,5.21,4.08,12.51,0,17.72-4.08-5.21-4.05-12.51,0-17.72h0Z"/><path class="d" d="M152.41,678.9c-4.38,4.03-10.99,4.06-15.36,0,4.37-4.06,10.98-4.03,15.36,0h0Z"/></g><g class="c"><path class="d" d="M599.89,680.85c4.05,5.21,4.08,12.51,0,17.72-4.08-5.21-4.05-12.51,0-17.72h0Z"/><path class="d" d="M606.98,689.12c-4.38,4.03-10.99,4.06-15.36,0,4.37-4.06,10.98-4.03,15.36,0h0Z"/></g><g class="g"><path class="d" d="M1048.78,509.31c4.05,5.48,4.08,13.14,0,18.61-4.08-5.47-4.05-13.13,0-18.61h0Z"/><path class="d" d="M1056.23,517.99c-4.65,4.04-11.48,4.06-16.13,0,4.65-4.06,11.48-4.04,16.13,0h0Z"/></g><g class="g"><path class="d" d="M1272.95,538.56c4.05,5.48,4.08,13.14,0,18.61-4.08-5.47-4.05-13.13,0-18.61h0Z"/><path class="d" d="M1280.39,547.24c-4.65,4.04-11.48,4.06-16.13,0,4.65-4.06,11.48-4.04,16.13,0h0Z"/></g><g class="c"><path class="d" d="M1192.4,613.35c4.05,5.48,4.08,13.14,0,18.61-4.08-5.47-4.05-13.13,0-18.61h0Z"/><path class="d" d="M1199.84,622.04c-4.65,4.04-11.48,4.06-16.13,0,4.65-4.06,11.48-4.04,16.13,0h0Z"/></g><g class="f"><path class="d" d="M1564.16,845.63c4.05,7.09,4.08,17.01,0,24.09-4.08-7.09-4.05-17,0-24.09h0Z"/><path class="d" d="M1573.8,856.87c-6.12,4.05-14.76,4.07-20.88,0,6.11-4.07,14.76-4.05,20.88,0h0Z"/></g><g class="c"><path class="d" d="M1320.09,768.99c4.05,5.48,4.08,13.14,0,18.61-4.08-5.47-4.05-13.13,0-18.61h0Z"/><path class="d" d="M1327.54,777.68c-4.65,4.04-11.48,4.06-16.13,0,4.65-4.06,11.48-4.04,16.13,0h0Z"/></g><g class="c"><path class="d" d="M1069.53,812.96c4.05,5.48,4.08,13.14,0,18.61-4.08-5.47-4.05-13.13,0-18.61h0Z"/><path class="d" d="M1076.97,821.64c-4.65,4.04-11.48,4.06-16.13,0,4.65-4.06,11.48-4.04,16.13,0h0Z"/></g><g class="c"><path class="d" d="M1640.28,637.16c4.05,7.09,4.08,17.01,0,24.09-4.08-7.09-4.05-17,0-24.09h0Z"/><path class="d" d="M1649.92,648.4c-6.12,4.05-14.76,4.07-20.88,0,6.11-4.07,14.76-4.05,20.88,0h0Z"/></g><g class="c"><path class="d" d="M1111.27,703.17c4.05,5.48,4.08,13.14,0,18.61-4.08-5.47-4.05-13.13,0-18.61h0Z"/><path class="d" d="M1118.72,711.86c-4.65,4.04-11.48,4.06-16.13,0,4.65-4.06,11.48-4.04,16.13,0h0Z"/></g><g class="f"><path class="d" d="M1750.68,898.43c4.05,7.09,4.08,17.01,0,24.09-4.08-7.09-4.05-17,0-24.09h0Z"/><path class="d" d="M1760.32,909.68c-6.12,4.05-14.76,4.07-20.88,0,6.11-4.07,14.76-4.05,20.88,0h0Z"/></g><g class="f"><path class="d" d="M156.14,886.09c-4.05-5.21-4.08-12.51,0-17.72,4.08,5.21,4.05,12.51,0,17.72h0Z"/><path class="d" d="M163.23,877.82c-4.38,4.03-10.99,4.06-15.36,0,4.37-4.06,10.98-4.03,15.36,0h0Z"/></g><g class="e"><path class="d" d="M373.62,213.49c-4.05-5.21-4.08-12.51,0-17.72,4.08,5.21,4.05,12.51,0,17.72h0Z"/><path class="d" d="M380.71,205.22c-4.38,4.03-10.99,4.06-15.36,0,4.37-4.06,10.98-4.03,15.36,0h0Z"/></g><g class="g"><path class="d" d="M320.66,537c-4.05-5.21-4.08-12.51,0-17.72,4.08,5.21,4.05,12.51,0,17.72h0Z"/><path class="d" d="M327.75,528.73c-4.38,4.03-10.99,4.06-15.36,0,4.37-4.06,10.98-4.03,15.36,0h0Z"/></g><g class="g"><path class="d" d="M1577.21,383.82c-3.96-2.67-3.99-7.77,0-10.43,3.99,2.66,3.96,7.77,0,10.43h0Z"/><path class="d" d="M1581.39,378.95c-2.25,3.95-6.8,3.97-9.04,0,2.24-3.97,6.8-3.95,9.04,0h0Z"/></g><g class="e"><path class="d" d="M1817.76,87.96c-4.05-7.09-4.08-17.01,0-24.09,4.08,7.09,4.05,17,0,24.09h0Z"/><path class="d" d="M1827.4,76.72c-6.12,4.05-14.76,4.07-20.88,0,6.11-4.07,14.76-4.05,20.88,0h0Z"/></g><g class="e"><path class="d" d="M1102.86,207.35c-4.05-5.48-4.08-13.14,0-18.61,4.08,5.47,4.05,13.13,0,18.61h0Z"/><path class="d" d="M1110.31,198.67c-4.65,4.04-11.48,4.06-16.13,0,4.65-4.06,11.48-4.04,16.13,0h0Z"/></g><g class="g"><path class="d" d="M1047.25,317.38c-4.05-5.48-4.08-13.14,0-18.61,4.08,5.47,4.05,13.13,0,18.61h0Z"/><path class="d" d="M1054.69,308.69c-4.65,4.04-11.48,4.06-16.13,0,4.65-4.06,11.48-4.04,16.13,0h0Z"/></g><g class="e"><path class="d" d="M704.04,109.87c-4.05-5.21-4.08-12.51,0-17.72,4.08,5.21,4.05,12.51,0,17.72h0Z"/><path class="d" d="M711.13,101.6c-4.38,4.03-10.99,4.06-15.36,0,4.37-4.06,10.98-4.03,15.36,0h0Z"/></g><g class="c"><path class="d" d="M697.14,631.41c-4.05-5.21-4.08-12.51,0-17.72,4.08,5.21,4.05,12.51,0,17.72h0Z"/><path class="d" d="M704.22,623.14c-4.38,4.03-10.99,4.06-15.36,0,4.37-4.06,10.98-4.03,15.36,0h0Z"/></g><g class="c"><path class="d" d="M711.91,605.18c4.05,5.21,4.08,12.51,0,17.72-4.08-5.21-4.05-12.51,0-17.72h0Z"/><path class="d" d="M719,613.45c-4.38,4.03-10.99,4.06-15.36,0,4.37-4.06,10.98-4.03,15.36,0h0Z"/></g><g class="g"><path class="d" d="M1582.13,397.66c-3.96-2.67-3.99-7.77,0-10.43,3.99,2.66,3.96,7.77,0,10.43h0Z"/><path class="d" d="M1586.3,392.79c-2.25,3.95-6.8,3.97-9.04,0,2.24-3.97,6.8-3.95,9.04,0h0Z"/></g><g class="g"><path class="d" d="M1590.83,382.22c3.96,2.67,3.99,7.77,0,10.43-3.99-2.66-3.96-7.77,0-10.43h0Z"/><path class="d" d="M1595,387.09c-2.25,3.95-6.8,3.97-9.04,0,2.24-3.97,6.8-3.95,9.04,0h0Z"/></g><g class="e"><path class="d" d="M213.17,208.63c-4.05-5.21-4.08-12.51,0-17.72,4.08,5.21,4.05,12.51,0,17.72h0Z"/><path class="d" d="M220.26,200.35c-4.38,4.03-10.99,4.06-15.36,0,4.37-4.06,10.98-4.03,15.36,0h0Z"/></g><g class="e"><path class="d" d="M227.95,182.4c4.05,5.21,4.08,12.51,0,17.72-4.08-5.21-4.05-12.51,0-17.72h0Z"/><path class="d" d="M235.04,190.67c-4.38,4.03-10.99,4.06-15.36,0,4.37-4.06,10.98-4.03,15.36,0h0Z"/></g><g class="c"><path class="d" d="M1320.51,809.46c-4.05-5.48-4.08-13.14,0-18.61,4.08,5.47,4.05,13.13,0,18.61h0Z"/><path class="d" d="M1327.95,800.77c-4.65,4.04-11.48,4.06-16.13,0,4.65-4.06,11.48-4.04,16.13,0h0Z"/></g><g class="c"><path class="d" d="M1336.02,781.91c4.05,5.48,4.08,13.14,0,18.61-4.08-5.47-4.05-13.13,0-18.61h0Z"/><path class="d" d="M1343.47,790.6c-4.65,4.04-11.48,4.06-16.13,0,4.65-4.06,11.48-4.04,16.13,0h0Z"/></g><g class="g"><path class="d" d="M179.59,472.45c4.05,5.21,4.08,12.51,0,17.72-4.08-5.21-4.05-12.51,0-17.72h0Z"/><path class="d" d="M186.68,480.72c-4.38,4.03-10.99,4.06-15.36,0,4.37-4.06,10.98-4.03,15.36,0h0Z"/></g><g class="g"><path class="d" d="M179.98,510.98c-4.05-5.21-4.08-12.51,0-17.72,4.08,5.21,4.05,12.51,0,17.72h0Z"/><path class="d" d="M187.07,502.71c-4.38,4.03-10.99,4.06-15.36,0,4.37-4.06,10.98-4.03,15.36,0h0Z"/></g><g class="g"><path class="d" d="M194.76,484.75c4.05,5.21,4.08,12.51,0,17.72-4.08-5.21-4.05-12.51,0-17.72h0Z"/><path class="d" d="M201.85,493.02c-4.38,4.03-10.99,4.06-15.36,0,4.37-4.06,10.98-4.03,15.36,0h0Z"/></g><g class="e"><path class="d" d="M481.45,111.93c4.05,5.21,4.08,12.51,0,17.72-4.08-5.21-4.05-12.51,0-17.72h0Z"/><path class="d" d="M488.54,120.2c-4.38,4.03-10.99,4.06-15.36,0,4.37-4.06,10.98-4.03,15.36,0h0Z"/></g><g class="e"><path class="d" d="M481.85,150.46c-4.05-5.21-4.08-12.51,0-17.72,4.08,5.21,4.05,12.51,0,17.72h0Z"/><path class="d" d="M488.94,142.19c-4.38,4.03-10.99,4.06-15.36,0,4.37-4.06,10.98-4.03,15.36,0h0Z"/></g><g class="e"><path class="d" d="M455.43,130.12c4.05,5.21,4.08,12.51,0,17.72-4.08-5.21-4.05-12.51,0-17.72h0Z"/><path class="d" d="M462.52,138.39c-4.38,4.03-10.99,4.06-15.36,0,4.37-4.06,10.98-4.03,15.36,0h0Z"/></g><g class="e"><path class="d" d="M725.38,246.11c4.05,12,4.08,28.45,0,40.45-4.08-11.99-4.05-28.45,0-40.45h0Z"/><path class="d" d="M709.2,264.99c10.36-4.05,24.69-4.08,35.06,0-10.36,4.08-24.69,4.05-35.06,0h0Z"/></g><g class="e"><path class="d" d="M927.1,228.75c4.05,5.21,4.08,12.51,0,17.72-4.08-5.21-4.05-12.51,0-17.72h0Z"/><path class="d" d="M920.02,237.02c4.38-4.03,10.99-4.06,15.36,0-4.37,4.06-10.98,4.03-15.36,0h0Z"/></g><g class="g"><path class="d" d="M830.14,341.67c4.05,12,4.08,28.45,0,40.45-4.08-11.99-4.05-28.45,0-40.45h0Z"/><path class="d" d="M813.96,360.55c10.36-4.05,24.69-4.08,35.06,0-10.36,4.08-24.69,4.05-35.06,0h0Z"/></g><g class="g"><path class="d" d="M544.62,406.14c4.05,12,4.08,28.45,0,40.45-4.08-11.99-4.05-28.45,0-40.45h0Z"/><path class="d" d="M528.44,425.02c10.36-4.05,24.69-4.08,35.06,0-10.36,4.08-24.69,4.05-35.06,0h0Z"/></g><g class="g"><path class="d" d="M965.58,335.91c4.05,5.21,4.08,12.51,0,17.72-4.08-5.21-4.05-12.51,0-17.72h0Z"/><path class="d" d="M958.49,344.18c4.38-4.03,10.99-4.06,15.36,0-4.37,4.06-10.98,4.03-15.36,0h0Z"/></g><g class="f"><path class="d" d="M249.13,856.76c4.05,5.21,4.08,12.51,0,17.72-4.08-5.21-4.05-12.51,0-17.72h0Z"/><path class="d" d="M242.04,865.03c4.38-4.03,10.99-4.06,15.36,0-4.37,4.06-10.98,4.03-15.36,0h0Z"/></g><g class="g"><path class="d" d="M828.83,434.98c4.05,5.21,4.08,12.51,0,17.72-4.08-5.21-4.05-12.51,0-17.72h0Z"/><path class="d" d="M821.74,443.25c4.38-4.03,10.99-4.06,15.36,0-4.37,4.06-10.98,4.03-15.36,0h0Z"/></g><g class="g"><path class="d" d="M588.71,491.88c4.05,5.21,4.08,12.51,0,17.72-4.08-5.21-4.05-12.51,0-17.72h0Z"/><path class="d" d="M581.62,500.15c4.38-4.03,10.99-4.06,15.36,0-4.37,4.06-10.98,4.03-15.36,0h0Z"/></g><g class="c"><path class="d" d="M707.24,583.18c4.05,5.21,4.08,12.51,0,17.72-4.08-5.21-4.05-12.51,0-17.72h0Z"/><path class="d" d="M700.15,591.45c4.38-4.03,10.99-4.06,15.36,0-4.37,4.06-10.98,4.03-15.36,0h0Z"/></g><g class="g"><path class="d" d="M532.72,338.54c4.05,5.21,4.08,12.51,0,17.72-4.08-5.21-4.05-12.51,0-17.72h0Z"/><path class="d" d="M525.63,346.81c4.38-4.03,10.99-4.06,15.36,0-4.37,4.06-10.98,4.03-15.36,0h0Z"/></g><g class="g"><path class="d" d="M906.08,520.5c4.05,5.21,4.08,12.51,0,17.72-4.08-5.21-4.05-12.51,0-17.72h0Z"/><path class="d" d="M898.99,528.77c4.38-4.03,10.99-4.06,15.36,0-4.37,4.06-10.98,4.03-15.36,0h0Z"/></g><g class="f"><path class="d" d="M227.74,879.87c-4.05-5.21-4.08-12.51,0-17.72,4.08,5.21,4.05,12.51,0,17.72h0Z"/><path class="d" d="M220.65,871.6c4.38-4.03,10.99-4.06,15.36,0-4.37,4.06-10.98,4.03-15.36,0h0Z"/></g><g class="g"><path class="d" d="M871.81,322.32c4.05,5.21,4.08,12.51,0,17.72-4.08-5.21-4.05-12.51,0-17.72h0Z"/><path class="d" d="M864.72,330.59c4.38-4.03,10.99-4.06,15.36,0-4.37,4.06-10.98,4.03-15.36,0h0Z"/></g><g class="g"><path class="d" d="M871.42,360.85c-4.05-5.21-4.08-12.51,0-17.72,4.08,5.21,4.05,12.51,0,17.72h0Z"/><path class="d" d="M864.33,352.58c4.38-4.03,10.99-4.06,15.36,0-4.37,4.06-10.98,4.03-15.36,0h0Z"/></g><g class="g"><path class="d" d="M856.64,334.62c4.05,5.21,4.08,12.51,0,17.72-4.08-5.21-4.05-12.51,0-17.72h0Z"/><path class="d" d="M849.55,342.89c4.38-4.03,10.99-4.06,15.36,0-4.37,4.06-10.98,4.03-15.36,0h0Z"/></g><g class="f"><path class="d" d="M436.32,885.8c4.05,5.21,4.08,12.51,0,17.72-4.08-5.21-4.05-12.51,0-17.72h0Z"/><path class="d" d="M443.41,894.07c-4.38,4.03-10.99,4.06-15.36,0,4.37-4.06,10.98-4.03,15.36,0h0Z"/></g><g class="c"><path class="d" d="M533.56,836.36c-4.05-5.21-4.08-12.51,0-17.72,4.08,5.21,4.05,12.51,0,17.72h0Z"/><path class="d" d="M540.65,828.09c-4.38,4.03-10.99,4.06-15.36,0,4.37-4.06,10.98-4.03,15.36,0h0Z"/></g><g class="c"><path class="d" d="M548.34,810.13c4.05,5.21,4.08,12.51,0,17.72-4.08-5.21-4.05-12.51,0-17.72h0Z"/><path class="d" d="M555.43,818.4c-4.38,4.03-10.99,4.06-15.36,0,4.37-4.06,10.98-4.03,15.36,0h0Z"/></g><g class="c"><path class="d" d="M543.67,788.13c4.05,5.21,4.08,12.51,0,17.72-4.08-5.21-4.05-12.51,0-17.72h0Z"/><path class="d" d="M536.58,796.4c4.38-4.03,10.99-4.06,15.36,0-4.37,4.06-10.98,4.03-15.36,0h0Z"/></g><g class="c"><path class="d" d="M1335.32,710.8c4.05,5.21,4.08,12.51,0,17.72-4.08-5.21-4.05-12.51,0-17.72h0Z"/><path class="d" d="M1342.41,719.07c-4.38,4.03-10.99,4.06-15.36,0,4.37-4.06,10.98-4.03,15.36,0h0Z"/></g><g class="c"><path class="d" d="M1432.56,661.36c-4.05-5.21-4.08-12.51,0-17.72,4.08,5.21,4.05,12.51,0,17.72h0Z"/><path class="d" d="M1439.65,653.09c-4.38,4.03-10.99,4.06-15.36,0,4.37-4.06,10.98-4.03,15.36,0h0Z"/></g><g class="c"><path class="d" d="M1447.34,635.13c4.05,5.21,4.08,12.51,0,17.72-4.08-5.21-4.05-12.51,0-17.72h0Z"/><path class="d" d="M1454.43,643.4c-4.38,4.03-10.99,4.06-15.36,0,4.37-4.06,10.98-4.03,15.36,0h0Z"/></g><g class="c"><path class="d" d="M1442.67,613.13c4.05,5.21,4.08,12.51,0,17.72-4.08-5.21-4.05-12.51,0-17.72h0Z"/><path class="d" d="M1435.58,621.4c4.38-4.03,10.99-4.06,15.36,0-4.37,4.06-10.98,4.03-15.36,0h0Z"/></g><g class="c"><path class="d" d="M1637.32,808.8c4.05,5.21,4.08,12.51,0,17.72-4.08-5.21-4.05-12.51,0-17.72h0Z"/><path class="d" d="M1644.41,817.07c-4.38,4.03-10.99,4.06-15.36,0,4.37-4.06,10.98-4.03,15.36,0h0Z"/></g><g class="c"><path class="d" d="M1734.56,759.36c-4.05-5.21-4.08-12.51,0-17.72,4.08,5.21,4.05,12.51,0,17.72h0Z"/><path class="d" d="M1741.65,751.09c-4.38,4.03-10.99,4.06-15.36,0,4.37-4.06,10.98-4.03,15.36,0h0Z"/></g><g class="c"><path class="d" d="M1749.34,733.13c4.05,5.21,4.08,12.51,0,17.72-4.08-5.21-4.05-12.51,0-17.72h0Z"/><path class="d" d="M1756.43,741.4c-4.38,4.03-10.99,4.06-15.36,0,4.37-4.06,10.98-4.03,15.36,0h0Z"/></g><g class="c"><path class="d" d="M1744.67,711.13c4.05,5.21,4.08,12.51,0,17.72-4.08-5.21-4.05-12.51,0-17.72h0Z"/><path class="d" d="M1737.58,719.4c4.38-4.03,10.99-4.06,15.36,0-4.37,4.06-10.98,4.03-15.36,0h0Z"/></g><g class="f"><path class="d" d="M1328.32,971.8c4.05,5.21,4.08,12.51,0,17.72-4.08-5.21-4.05-12.51,0-17.72h0Z"/><path class="d" d="M1335.41,980.07c-4.38,4.03-10.99,4.06-15.36,0,4.37-4.06,10.98-4.03,15.36,0h0Z"/></g><g class="f"><path class="d" d="M1425.56,922.36c-4.05-5.21-4.08-12.51,0-17.72,4.08,5.21,4.05,12.51,0,17.72h0Z"/><path class="d" d="M1432.65,914.09c-4.38,4.03-10.99,4.06-15.36,0,4.37-4.06,10.98-4.03,15.36,0h0Z"/></g><g class="f"><path class="d" d="M1440.34,896.13c4.05,5.21,4.08,12.51,0,17.72-4.08-5.21-4.05-12.51,0-17.72h0Z"/><path class="d" d="M1447.43,904.4c-4.38,4.03-10.99,4.06-15.36,0,4.37-4.06,10.98-4.03,15.36,0h0Z"/></g><g class="f"><path class="d" d="M1435.67,874.13c4.05,5.21,4.08,12.51,0,17.72-4.08-5.21-4.05-12.51,0-17.72h0Z"/><path class="d" d="M1428.58,882.4c4.38-4.03,10.99-4.06,15.36,0-4.37,4.06-10.98,4.03-15.36,0h0Z"/></g></g><g id="b"/></svg>