<?xml version="1.0" encoding="UTF-8"?><svg id="a" xmlns="http://www.w3.org/2000/svg" viewBox="0 0 759.15 1443.76"><defs><style>.b{opacity:.65;}.c{opacity:.43;}.d{fill:#d7d4e4;}.e{opacity:.67;}</style></defs><g class="e"><path class="d" d="M757.7,950.18c-12.61,4.05-29.87,4.08-42.48,0,12.6-4.08,29.87-4.05,42.48,0h0Z"/><path class="d" d="M737.88,967.17c-4.05-10.9-4.08-25.92,0-36.82,4.08,10.9,4.05,25.91,0,36.82h0Z"/></g><g class="e"><path class="d" d="M688.76,211.64c-5.21,4.05-12.51,4.08-17.72,0,5.21-4.08,12.51-4.05,17.72,0h0Z"/><path class="d" d="M680.49,218.73c-4.03-4.38-4.06-10.99,0-15.36,4.06,4.37,4.03,10.98,0,15.36h0Z"/></g><g class="e"><path class="d" d="M637.86,170.89c-12,4.05-28.45,4.08-40.45,0,11.99-4.08,28.45-4.05,40.45,0h0Z"/><path class="d" d="M618.98,187.07c-4.05-10.36-4.08-24.69,0-35.06,4.08,10.36,4.05,24.69,0,35.06h0Z"/></g><g class="e"><path class="d" d="M585.86,987.15c5.48-4.05,13.14-4.08,18.61,0-5.47,4.08-13.13,4.05-18.61,0h0Z"/><path class="d" d="M594.55,994.59c-4.04-4.65-4.06-11.48,0-16.13,4.06,4.65,4.04,11.48,0,16.13h0Z"/></g><g class="e"><path class="d" d="M615.11,1211.32c5.48-4.05,13.14-4.08,18.61,0-5.47,4.08-13.13,4.05-18.61,0h0Z"/><path class="d" d="M623.79,1218.76c-4.04-4.65-4.06-11.48,0-16.13,4.06,4.65,4.04,11.48,0,16.13h0Z"/></g><g class="e"><path class="d" d="M689.9,1130.77c5.48-4.05,13.14-4.08,18.61,0-5.47,4.08-13.13,4.05-18.61,0h0Z"/><path class="d" d="M698.59,1138.21c-4.04-4.65-4.06-11.48,0-16.13,4.06,4.65,4.04,11.48,0,16.13h0Z"/></g><g class="e"><path class="d" d="M653.94,1420.39c7.09-4.05,17.01-4.08,24.09,0-7.09,4.08-17,4.05-24.09,0h0Z"/><path class="d" d="M665.19,1430.03c-4.05-6.12-4.07-14.76,0-20.88,4.07,6.11,4.05,14.76,0,20.88h0Z"/></g><g class="b"><path class="d" d="M552.12,126.8c-5.21,4.05-12.51,4.08-17.72,0,5.21-4.08,12.51-4.05,17.72,0h0Z"/><path class="d" d="M543.85,133.89c-4.03-4.38-4.06-10.99,0-15.36,4.06,4.37,4.03,10.98,0,15.36h0Z"/></g><g class="b"><path class="d" d="M460.83,8.27c-5.21,4.05-12.51,4.08-17.72,0,5.21-4.08,12.51-4.05,17.72,0h0Z"/><path class="d" d="M452.55,15.36c-4.03-4.38-4.06-10.99,0-15.36,4.06,4.37,4.03,10.98,0,15.36h0Z"/></g><g class="e"><path class="d" d="M705.46,182.79c-5.21,4.05-12.51,4.08-17.72,0,5.21-4.08,12.51-4.05,17.72,0h0Z"/><path class="d" d="M697.19,189.88c-4.03-4.38-4.06-10.99,0-15.36,4.06,4.37,4.03,10.98,0,15.36h0Z"/></g><g class="b"><path class="d" d="M513.28,264c-5.21,4.05-12.51,4.08-17.72,0,5.21-4.08,12.51-4.05,17.72,0h0Z"/><path class="d" d="M505.01,271.09c-4.03-4.38-4.06-10.99,0-15.36,4.06,4.37,4.03,10.98,0,15.36h0Z"/></g><g class="e"><path class="d" d="M684.82,712.89c-5.48,4.05-13.14,4.08-18.61,0,5.47-4.08,13.13-4.05,18.61,0h0Z"/><path class="d" d="M676.14,720.34c-4.04-4.65-4.06-11.48,0-16.13,4.06,4.65,4.04,11.48,0,16.13h0Z"/></g><g class="e"><path class="d" d="M655.57,937.06c-5.48,4.05-13.14,4.08-18.61,0,5.47-4.08,13.13-4.05,18.61,0h0Z"/><path class="d" d="M646.89,944.5c-4.04-4.65-4.06-11.48,0-16.13,4.06,4.65,4.04,11.48,0,16.13h0Z"/></g><g class="b"><path class="d" d="M580.78,856.51c-5.48,4.05-13.14,4.08-18.61,0,5.47-4.08,13.13-4.05,18.61,0h0Z"/><path class="d" d="M572.09,863.95c-4.04-4.65-4.06-11.48,0-16.13,4.06,4.65,4.04,11.48,0,16.13h0Z"/></g><g class="c"><path class="d" d="M348.5,1228.27c-7.09,4.05-17.01,4.08-24.09,0,7.09-4.08,17-4.05,24.09,0h0Z"/><path class="d" d="M337.26,1237.91c-4.05-6.12-4.07-14.76,0-20.88,4.07,6.11,4.05,14.76,0,20.88h0Z"/></g><g class="b"><path class="d" d="M425.14,984.2c-5.48,4.05-13.14,4.08-18.61,0,5.47-4.08,13.13-4.05,18.61,0h0Z"/><path class="d" d="M416.45,991.65c-4.04-4.65-4.06-11.48,0-16.13,4.06,4.65,4.04,11.48,0,16.13h0Z"/></g><g class="b"><path class="d" d="M381.17,733.64c-5.48,4.05-13.14,4.08-18.61,0,5.47-4.08,13.13-4.05,18.61,0h0Z"/><path class="d" d="M372.49,741.08c-4.04-4.65-4.06-11.48,0-16.13,4.06,4.65,4.04,11.48,0,16.13h0Z"/></g><g class="b"><path class="d" d="M556.97,1304.39c-7.09,4.05-17.01,4.08-24.09,0,7.09-4.08,17-4.05,24.09,0h0Z"/><path class="d" d="M545.73,1314.03c-4.05-6.12-4.07-14.76,0-20.88,4.07,6.11,4.05,14.76,0,20.88h0Z"/></g><g class="b"><path class="d" d="M490.96,775.38c-5.48,4.05-13.14,4.08-18.61,0,5.47-4.08,13.13-4.05,18.61,0h0Z"/><path class="d" d="M482.27,782.83c-4.04-4.65-4.06-11.48,0-16.13,4.06,4.65,4.04,11.48,0,16.13h0Z"/></g><g class="c"><path class="d" d="M295.7,1414.79c-7.09,4.05-17.01,4.08-24.09,0,7.09-4.08,17-4.05,24.09,0h0Z"/><path class="d" d="M284.45,1424.43c-4.05-6.12-4.07-14.76,0-20.88,4.07,6.11,4.05,14.76,0,20.88h0Z"/></g><g class="e"><path class="d" d="M641.96,1425.97c2.67-3.96,7.77-3.99,10.43,0-2.66,3.99-7.77,3.96-10.43,0h0Z"/><path class="d" d="M646.83,1430.15c-3.95-2.25-3.97-6.8,0-9.04,3.97,2.24,3.95,6.8,0,9.04h0Z"/></g><g class="b"><path class="d" d="M562.72,361.25c5.21-4.05,12.51-4.08,17.72,0-5.21,4.08-12.51,4.05-17.72,0h0Z"/><path class="d" d="M570.99,368.33c-4.03-4.38-4.06-10.99,0-15.36,4.06,4.37,4.03,10.98,0,15.36h0Z"/></g><g class="b"><path class="d" d="M588.95,376.02c-5.21,4.05-12.51,4.08-17.72,0,5.21-4.08,12.51-4.05,17.72,0h0Z"/><path class="d" d="M580.68,383.11c-4.03-4.38-4.06-10.99,0-15.36,4.06,4.37,4.03,10.98,0,15.36h0Z"/></g><g class="e"><path class="d" d="M628.12,1430.89c2.67-3.96,7.77-3.99,10.43,0-2.66,3.99-7.77,3.96-10.43,0h0Z"/><path class="d" d="M632.99,1435.06c-3.95-2.25-3.97-6.8,0-9.04,3.97,2.24,3.95,6.8,0,9.04h0Z"/></g><g class="e"><path class="d" d="M643.56,1439.59c-2.67,3.96-7.77,3.99-10.43,0,2.66-3.99,7.77-3.96,10.43,0h0Z"/><path class="d" d="M638.69,1443.76c-3.95-2.25-3.97-6.8,0-9.04,3.97,2.24,3.95,6.8,0,9.04h0Z"/></g><g class="b"><path class="d" d="M384.67,984.62c5.48-4.05,13.14-4.08,18.61,0-5.47,4.08-13.13,4.05-18.61,0h0Z"/><path class="d" d="M393.36,992.06c-4.04-4.65-4.06-11.48,0-16.13,4.06,4.65,4.04,11.48,0,16.13h0Z"/></g><g class="b"><path class="d" d="M412.22,1000.13c-5.48,4.05-13.14,4.08-18.61,0,5.47-4.08,13.13-4.05,18.61,0h0Z"/><path class="d" d="M403.53,1007.58c-4.04-4.65-4.06-11.48,0-16.13,4.06,4.65,4.04,11.48,0,16.13h0Z"/></g><g class="e"><path class="d" d="M684.11,678.9c-12,4.05-28.45,4.08-40.45,0,11.99-4.08,28.45-4.05,40.45,0h0Z"/><path class="d" d="M665.23,662.72c4.05,10.36,4.08,24.69,0,35.06-4.08-10.36-4.05-24.69,0-35.06h0Z"/></g><g class="e"><path class="d" d="M619.64,393.38c-12,4.05-28.45,4.08-40.45,0,11.99-4.08,28.45-4.05,40.45,0h0Z"/><path class="d" d="M600.76,377.2c4.05,10.36,4.08,24.69,0,35.06-4.08-10.36-4.05-24.69,0-35.06h0Z"/></g><g class="e"><path class="d" d="M689.87,814.34c-5.21,4.05-12.51,4.08-17.72,0,5.21-4.08,12.51-4.05,17.72,0h0Z"/><path class="d" d="M681.6,807.25c4.03,4.38,4.06,10.99,0,15.36-4.06-4.37-4.03-10.98,0-15.36h0Z"/></g><g class="e"><path class="d" d="M759.15,492.94c-5.21,4.05-12.51,4.08-17.72,0,5.21-4.08,12.51-4.05,17.72,0h0Z"/><path class="d" d="M750.88,485.85c4.03,4.38,4.06,10.99,0,15.36-4.06-4.37-4.03-10.98,0-15.36h0Z"/></g><g class="e"><path class="d" d="M702.25,252.82c-5.21,4.05-12.51,4.08-17.72,0,5.21-4.08,12.51-4.05,17.72,0h0Z"/><path class="d" d="M693.98,245.73c4.03,4.38,4.06,10.99,0,15.36-4.06-4.37-4.03-10.98,0-15.36h0Z"/></g><g class="b"><path class="d" d="M610.95,371.35c-5.21,4.05-12.51,4.08-17.72,0,5.21-4.08,12.51-4.05,17.72,0h0Z"/><path class="d" d="M602.68,364.26c4.03,4.38,4.06,10.99,0,15.36-4.06-4.37-4.03-10.98,0-15.36h0Z"/></g><g class="e"><path class="d" d="M687.24,381.48c-5.21,4.05-12.51,4.08-17.72,0,5.21-4.08,12.51-4.05,17.72,0h0Z"/><path class="d" d="M678.97,374.39c4.03,4.38,4.06,10.99,0,15.36-4.06-4.37-4.03-10.98,0-15.36h0Z"/></g><g class="e"><path class="d" d="M673.63,570.19c-5.21,4.05-12.51,4.08-17.72,0,5.21-4.08,12.51-4.05,17.72,0h0Z"/><path class="d" d="M665.36,563.1c4.03,4.38,4.06,10.99,0,15.36-4.06-4.37-4.03-10.98,0-15.36h0Z"/></g><g class="e"><path class="d" d="M703.46,720.57c-5.21,4.05-12.51,4.08-17.72,0,5.21-4.08,12.51-4.05,17.72,0h0Z"/><path class="d" d="M695.19,713.48c4.03,4.38,4.06,10.99,0,15.36-4.06-4.37-4.03-10.98,0-15.36h0Z"/></g><g class="e"><path class="d" d="M664.93,720.18c5.21-4.05,12.51-4.08,17.72,0-5.21,4.08-12.51,4.05-17.72,0h0Z"/><path class="d" d="M673.2,713.09c4.03,4.38,4.06,10.99,0,15.36-4.06-4.37-4.03-10.98,0-15.36h0Z"/></g><g class="e"><path class="d" d="M691.16,705.4c-5.21,4.05-12.51,4.08-17.72,0,5.21-4.08,12.51-4.05,17.72,0h0Z"/><path class="d" d="M682.89,698.31c4.03,4.38,4.06,10.99,0,15.36-4.06-4.37-4.03-10.98,0-15.36h0Z"/></g><g class="c"><path class="d" d="M308.33,100.43c-5.21,4.05-12.51,4.08-17.72,0,5.21-4.08,12.51-4.05,17.72,0h0Z"/><path class="d" d="M300.06,107.52c-4.03-4.38-4.06-10.99,0-15.36,4.06,4.37,4.03,10.98,0,15.36h0Z"/></g><g class="b"><path class="d" d="M357.77,197.67c5.21-4.05,12.51-4.08,17.72,0-5.21,4.08-12.51,4.05-17.72,0h0Z"/><path class="d" d="M366.04,204.76c-4.03-4.38-4.06-10.99,0-15.36,4.06,4.37,4.03,10.98,0,15.36h0Z"/></g><g class="b"><path class="d" d="M384,212.45c-5.21,4.05-12.51,4.08-17.72,0,5.21-4.08,12.51-4.05,17.72,0h0Z"/><path class="d" d="M375.73,219.54c-4.03-4.38-4.06-10.99,0-15.36,4.06,4.37,4.03,10.98,0,15.36h0Z"/></g><g class="b"><path class="d" d="M406,207.78c-5.21,4.05-12.51,4.08-17.72,0,5.21-4.08,12.51-4.05,17.72,0h0Z"/><path class="d" d="M397.73,200.69c4.03,4.38,4.06,10.99,0,15.36-4.06-4.37-4.03-10.98,0-15.36h0Z"/></g><g class="b"><path class="d" d="M483.33,999.43c-5.21,4.05-12.51,4.08-17.72,0,5.21-4.08,12.51-4.05,17.72,0h0Z"/><path class="d" d="M475.06,1006.52c-4.03-4.38-4.06-10.99,0-15.36,4.06,4.37,4.03,10.98,0,15.36h0Z"/></g><g class="b"><path class="d" d="M532.77,1096.67c5.21-4.05,12.51-4.08,17.72,0-5.21,4.08-12.51,4.05-17.72,0h0Z"/><path class="d" d="M541.04,1103.76c-4.03-4.38-4.06-10.99,0-15.36,4.06,4.37,4.03,10.98,0,15.36h0Z"/></g><g class="b"><path class="d" d="M559,1111.45c-5.21,4.05-12.51,4.08-17.72,0,5.21-4.08,12.51-4.05,17.72,0h0Z"/><path class="d" d="M550.73,1118.54c-4.03-4.38-4.06-10.99,0-15.36,4.06,4.37,4.03,10.98,0,15.36h0Z"/></g><g class="b"><path class="d" d="M581,1106.78c-5.21,4.05-12.51,4.08-17.72,0,5.21-4.08,12.51-4.05,17.72,0h0Z"/><path class="d" d="M572.73,1099.69c4.03,4.38,4.06,10.99,0,15.36-4.06-4.37-4.03-10.98,0-15.36h0Z"/></g><g class="b"><path class="d" d="M385.33,1301.43c-5.21,4.05-12.51,4.08-17.72,0,5.21-4.08,12.51-4.05,17.72,0h0Z"/><path class="d" d="M377.06,1308.52c-4.03-4.38-4.06-10.99,0-15.36,4.06,4.37,4.03,10.98,0,15.36h0Z"/></g><g class="b"><path class="d" d="M434.77,1398.67c5.21-4.05,12.51-4.08,17.72,0-5.21,4.08-12.51,4.05-17.72,0h0Z"/><path class="d" d="M443.04,1405.76c-4.03-4.38-4.06-10.99,0-15.36,4.06,4.37,4.03,10.98,0,15.36h0Z"/></g><g class="b"><path class="d" d="M461,1413.45c-5.21,4.05-12.51,4.08-17.72,0,5.21-4.08,12.51-4.05,17.72,0h0Z"/><path class="d" d="M452.73,1420.54c-4.03-4.38-4.06-10.99,0-15.36,4.06,4.37,4.03,10.98,0,15.36h0Z"/></g><g class="b"><path class="d" d="M483,1408.78c-5.21,4.05-12.51,4.08-17.72,0,5.21-4.08,12.51-4.05,17.72,0h0Z"/><path class="d" d="M474.73,1401.69c4.03,4.38,4.06,10.99,0,15.36-4.06-4.37-4.03-10.98,0-15.36h0Z"/></g><g class="c"><path class="d" d="M222.33,992.43c-5.21,4.05-12.51,4.08-17.72,0,5.21-4.08,12.51-4.05,17.72,0h0Z"/><path class="d" d="M214.06,999.52c-4.03-4.38-4.06-10.99,0-15.36,4.06,4.37,4.03,10.98,0,15.36h0Z"/></g><g class="c"><path class="d" d="M271.77,1089.67c5.21-4.05,12.51-4.08,17.72,0-5.21,4.08-12.51,4.05-17.72,0h0Z"/><path class="d" d="M280.04,1096.76c-4.03-4.38-4.06-10.99,0-15.36,4.06,4.37,4.03,10.98,0,15.36h0Z"/></g><g class="c"><path class="d" d="M298,1104.45c-5.21,4.05-12.51,4.08-17.72,0,5.21-4.08,12.51-4.05,17.72,0h0Z"/><path class="d" d="M289.73,1111.54c-4.03-4.38-4.06-10.99,0-15.36,4.06,4.37,4.03,10.98,0,15.36h0Z"/></g><g class="c"><path class="d" d="M320,1099.78c-5.21,4.05-12.51,4.08-17.72,0,5.21-4.08,12.51-4.05,17.72,0h0Z"/><path class="d" d="M311.73,1092.69c4.03,4.38,4.06,10.99,0,15.36-4.06-4.37-4.03-10.98,0-15.36h0Z"/></g><g class="e"><path class="d" d="M141.28,1285.56c12.02-3.99,28.47-3.94,40.45,.2-12.01,4.02-28.47,3.91-40.45-.2h0Z"/><path class="d" d="M160.24,1269.47c4,10.38,3.96,24.71-.18,35.06-4.03-10.38-3.93-24.71,.18-35.06h0Z"/></g><g class="e"><path class="d" d="M20.22,340.51c12.63-3.99,29.89-3.93,42.48,.21-12.62,4.02-29.89,3.9-42.48-.21h0Z"/><path class="d" d="M40.13,323.62c4,10.92,3.95,25.94-.18,36.82-4.03-10.92-3.92-25.93,.18-36.82h0Z"/></g><g class="e"><path class="d" d="M82.24,1248.4c5.23-4.02,12.53-4.02,17.72,.09-5.23,4.05-12.53,3.99-17.72-.09h0Z"/><path class="d" d="M90.55,1241.35c4.01,4.4,4.01,11.01-.08,15.36-4.04-4.39-3.98-11,.08-15.36h0Z"/></g><g class="e"><path class="d" d="M70.28,1405.59c12.02-3.99,28.47-3.94,40.45,.2-12.01,4.02-28.47,3.91-40.45-.2h0Z"/><path class="d" d="M89.23,1389.51c4,10.38,3.96,24.71-.18,35.06-4.03-10.38-3.93-24.71,.18-35.06h0Z"/></g><g class="e"><path class="d" d="M136.17,1120.39c12.02-3.99,28.47-3.94,40.45,.2-12.01,4.02-28.47,3.91-40.45-.2h0Z"/><path class="d" d="M155.13,1104.3c4,10.38,3.96,24.71-.18,35.06-4.03-10.38-3.93-24.71,.18-35.06h0Z"/></g><g class="e"><path class="d" d="M31.06,992.41c5.23-4.02,12.53-4.02,17.72,.09-5.23,4.05-12.53,3.99-17.72-.09h0Z"/><path class="d" d="M39.37,985.36c4.01,4.4,4.01,11.01-.08,15.36-4.04-4.39-3.98-11,.08-15.36h0Z"/></g><g class="e"><path class="d" d="M22.98,488.2c-5.5,4.02-13.16,4.01-18.61-.09,5.49-4.05,13.15-3.98,18.61,.09h0Z"/><path class="d" d="M14.32,480.72c4.02,4.67,4,11.5-.08,16.13-4.04-4.67-3.98-11.5,.08-16.13h0Z"/></g><g class="e"><path class="d" d="M160.88,249.1c-5.5,4.02-13.16,4.01-18.61-.09,5.49-4.05,13.15-3.98,18.61,.09h0Z"/><path class="d" d="M152.24,241.62c4.02,4.67,4,11.5-.08,16.13-4.04-4.67-3.98-11.5,.08-16.13h0Z"/></g><g class="e"><path class="d" d="M85.69,329.28c-5.5,4.02-13.16,4.01-18.61-.09,5.49-4.05,13.15-3.98,18.61,.09h0Z"/><path class="d" d="M77.04,321.79c4.02,4.67,4,11.5-.08,16.13-4.04-4.67-3.98-11.5,.08-16.13h0Z"/></g><g class="e"><path class="d" d="M92.76,1327.69c5.23-4.02,12.53-4.02,17.72,.09-5.23,4.05-12.53,3.99-17.72-.09h0Z"/><path class="d" d="M101.06,1320.64c4.01,4.4,4.01,11.01-.08,15.36-4.04-4.39-3.98-11,.08-15.36h0Z"/></g><g class="b"><path class="d" d="M163.59,1404.74c5.23-4.02,12.53-4.02,17.72,.09-5.23,4.05-12.53,3.99-17.72-.09h0Z"/><path class="d" d="M171.9,1397.69c4.01,4.4,4.01,11.01-.08,15.36-4.04-4.39-3.98-11,.08-15.36h0Z"/></g><g class="b"><path class="d" d="M221.69,1164.9c5.23-4.02,12.53-4.02,17.72,.09-5.23,4.05-12.53,3.99-17.72-.09h0Z"/><path class="d" d="M230,1157.86c4.01,4.4,4.01,11.01-.08,15.36-4.04-4.39-3.98-11,.08-15.36h0Z"/></g><g class="b"><path class="d" d="M312.39,1283.89c5.23-4.02,12.53-4.02,17.72,.09-5.23,4.05-12.53,3.99-17.72-.09h0Z"/><path class="d" d="M320.7,1276.84c4.01,4.4,4.01,11.01-.08,15.36-4.04-4.39-3.98-11,.08-15.36h0Z"/></g><g class="e"><path class="d" d="M68.63,1108.15c5.23-4.02,12.53-4.02,17.72,.09-5.23,4.05-12.53,3.99-17.72-.09h0Z"/><path class="d" d="M76.94,1101.1c4.01,4.4,4.01,11.01-.08,15.36-4.04-4.39-3.98-11,.08-15.36h0Z"/></g><g class="b"><path class="d" d="M261.22,1027.9c5.23-4.02,12.53-4.02,17.72,.09-5.23,4.05-12.53,3.99-17.72-.09h0Z"/><path class="d" d="M269.52,1020.85c4.01,4.4,4.01,11.01-.08,15.36-4.04-4.39-3.98-11,.08-15.36h0Z"/></g><g class="e"><path class="d" d="M91.92,578.16c5.5-4.02,13.16-4.01,18.61,.09-5.49,4.05-13.15,3.98-18.61-.09h0Z"/><path class="d" d="M100.64,570.75c4.02,4.67,4,11.5-.08,16.13-4.04-4.67-3.98-11.5,.08-16.13h0Z"/></g><g class="e"><path class="d" d="M122.29,354.14c5.5-4.02,13.16-4.01,18.61,.09-5.49,4.05-13.15,3.98-18.61-.09h0Z"/><path class="d" d="M131.01,346.74c4.02,4.67,4,11.5-.08,16.13-4.04-4.67-3.98-11.5,.08-16.13h0Z"/></g><g class="b"><path class="d" d="M196.67,435.06c5.5-4.02,13.16-4.01,18.61,.09-5.49,4.05-13.15,3.98-18.61-.09h0Z"/><path class="d" d="M205.4,427.66c4.02,4.67,4,11.5-.08,16.13-4.04-4.67-3.98-11.5,.08-16.13h0Z"/></g><g class="c"><path class="d" d="M430.81,64.47c7.11-4.01,17.03-3.99,24.09,.12-7.11,4.04-17.02,3.97-24.09-.12h0Z"/><path class="d" d="M442.1,54.88c4.02,6.14,4,14.78-.1,20.88-4.04-6.13-3.98-14.78,.1-20.88h0Z"/></g><g class="b"><path class="d" d="M352.95,308.15c5.5-4.02,13.16-4.01,18.61,.09-5.49,4.05-13.15,3.98-18.61-.09h0Z"/><path class="d" d="M361.68,300.74c4.02,4.67,4,11.5-.08,16.13-4.04-4.67-3.98-11.5,.08-16.13h0Z"/></g><g class="b"><path class="d" d="M395.67,558.93c5.5-4.02,13.16-4.01,18.61,.09-5.49,4.05-13.15,3.98-18.61-.09h0Z"/><path class="d" d="M404.39,551.53c4.02,4.67,4,11.5-.08,16.13-4.04-4.67-3.98-11.5,.08-16.13h0Z"/></g><g class="b"><path class="d" d="M286.09,516.64c5.5-4.02,13.16-4.01,18.61,.09-5.49,4.05-13.15,3.98-18.61-.09h0Z"/><path class="d" d="M294.82,509.23c4.02,4.67,4,11.5-.08,16.13-4.04-4.67-3.98-11.5,.08-16.13h0Z"/></g><g class="e"><path class="d" d="M115.97,1306.41c-5.23,4.02-12.53,4.02-17.72-.09,5.23-4.05,12.53-3.99,17.72,.09h0Z"/><path class="d" d="M107.74,1299.28c4.01,4.4,4.01,11.01-.08,15.36-4.04-4.39-3.98-11,.08-15.36h0Z"/></g><g class="e"><path class="d" d="M135.11,34.32c-2.69,3.95-7.79,3.95-10.43-.05,2.68-3.98,7.79-3.92,10.43,.05h0Z"/><path class="d" d="M130.26,30.11c3.94,2.27,3.94,6.82-.05,9.04-3.96-2.26-3.92-6.82,.05-9.04h0Z"/></g><g class="e"><path class="d" d="M66.02,563.94c-5.5,4.02-13.16,4.01-18.61-.09,5.49-4.05,13.15-3.98,18.61,.09h0Z"/><path class="d" d="M57.37,556.46c4.02,4.67,4,11.5-.08,16.13-4.04-4.67-3.98-11.5,.08-16.13h0Z"/></g><g class="b"><path class="d" d="M212.26,930.4c-5.23,4.02-12.53,4.02-17.72-.09,5.23-4.05,12.53-3.99,17.72,.09h0Z"/><path class="d" d="M204.03,923.28c4.01,4.4,4.01,11.01-.08,15.36-4.04-4.39-3.98-11,.08-15.36h0Z"/></g><g class="b"><path class="d" d="M186.11,915.5c5.23-4.02,12.53-4.02,17.72,.09-5.23,4.05-12.53,3.99-17.72-.09h0Z"/><path class="d" d="M194.41,908.46c4.01,4.4,4.01,11.01-.08,15.36-4.04-4.39-3.98-11,.08-15.36h0Z"/></g><g class="e"><path class="d" d="M148.97,29.47c-2.69,3.95-7.79,3.95-10.43-.05,2.68-3.98,7.79-3.92,10.43,.05h0Z"/><path class="d" d="M144.12,25.27c3.94,2.27,3.94,6.82-.05,9.04-3.96-2.26-3.92-6.82,.05-9.04h0Z"/></g><g class="e"><path class="d" d="M133.57,20.69c2.69-3.95,7.79-3.95,10.43,.05-2.68,3.98-7.79,3.92-10.43-.05h0Z"/><path class="d" d="M138.46,16.55c3.94,2.27,3.94,6.82-.05,9.04-3.96-2.26-3.92-6.82,.05-9.04h0Z"/></g><g class="b"><path class="d" d="M393.42,307.93c-5.5,4.02-13.16,4.01-18.61-.09,5.49-4.05,13.15-3.98,18.61,.09h0Z"/><path class="d" d="M384.77,300.45c4.02,4.67,4,11.5-.08,16.13-4.04-4.67-3.98-11.5,.08-16.13h0Z"/></g><g class="b"><path class="d" d="M365.95,292.28c5.5-4.02,13.16-4.01,18.61,.09-5.49,4.05-13.15,3.98-18.61-.09h0Z"/><path class="d" d="M374.68,284.88c4.02,4.67,4,11.5-.08,16.13-4.04-4.67-3.98-11.5,.08-16.13h0Z"/></g><g class="e"><path class="d" d="M63.1,1432.05c5.23-4.02,12.53-4.02,17.72,.09-5.23,4.05-12.53,3.99-17.72-.09h0Z"/><path class="d" d="M71.4,1425c4.01,4.4,4.01,11.01-.08,15.36-4.04-4.39-3.98-11,.08-15.36h0Z"/></g><g class="e"><path class="d" d="M89.23,781.17c12.02-3.99,28.47-3.94,40.45,.2-12.01,4.02-28.47,3.91-40.45-.2h0Z"/><path class="d" d="M108.03,797.44c-4-10.38-3.96-24.71,.18-35.06,4.03,10.38,3.93,24.71-.18,35.06h0Z"/></g><g class="e"><path class="d" d="M0,1093.04c12.02-3.99,28.47-3.94,40.45,.2-12.01,4.02-28.47,3.91-40.45-.2H0Z"/><path class="d" d="M18.8,1109.32c-4-10.38-3.96-24.71,.18-35.06,4.03,10.38,3.93,24.71-.18,35.06h0Z"/></g><g class="e"><path class="d" d="M84.14,645.7c5.23-4.02,12.53-4.02,17.72,.09-5.23,4.05-12.53,3.99-17.72-.09h0Z"/><path class="d" d="M92.38,652.83c-4.01-4.4-4.01-11.01,.08-15.36,4.04,4.39,3.98,11-.08,15.36h0Z"/></g><g class="c"><path class="d" d="M435.37,1379.53c5.23-4.02,12.53-4.02,17.72,.09-5.23,4.05-12.53,3.99-17.72-.09h0Z"/><path class="d" d="M443.61,1386.67c-4.01-4.4-4.01-11.01,.08-15.36,4.04,4.39,3.98,11-.08,15.36h0Z"/></g><g class="e"><path class="d" d="M16.49,797.74c5.23-4.02,12.53-4.02,17.72,.09-5.23,4.05-12.53,3.99-17.72-.09h0Z"/><path class="d" d="M24.73,804.87c-4.01-4.4-4.01-11.01,.08-15.36,4.04,4.39,3.98,11-.08,15.36h0Z"/></g><g class="e"><path class="d" d="M72.19,1038.14c5.23-4.02,12.53-4.02,17.72,.09-5.23,4.05-12.53,3.99-17.72-.09h0Z"/><path class="d" d="M80.43,1045.27c-4.01-4.4-4.01-11.01,.08-15.36,4.04,4.39,3.98,11-.08,15.36h0Z"/></g><g class="b"><path class="d" d="M164.08,920.06c5.23-4.02,12.53-4.02,17.72,.09-5.23,4.05-12.53,3.99-17.72-.09h0Z"/><path class="d" d="M172.32,927.2c-4.01-4.4-4.01-11.01,.08-15.36,4.04,4.39,3.98,11-.08,15.36h0Z"/></g><g class="e"><path class="d" d="M84.61,1078.57c5.23-4.02,12.53-4.02,17.72,.09-5.23,4.05-12.53,3.99-17.72-.09h0Z"/><path class="d" d="M92.85,1085.7c-4.01-4.4-4.01-11.01,.08-15.36,4.04,4.39,3.98,11-.08,15.36h0Z"/></g><g class="e"><path class="d" d="M102.4,720.91c5.23-4.02,12.53-4.02,17.72,.09-5.23,4.05-12.53,3.99-17.72-.09h0Z"/><path class="d" d="M110.63,728.05c-4.01-4.4-4.01-11.01,.08-15.36,4.04,4.39,3.98,11-.08,15.36h0Z"/></g><g class="c"><path class="d" d="M458.38,1401.04c-5.23,4.02-12.53,4.02-17.72-.09,5.23-4.05,12.53-3.99,17.72,.09h0Z"/><path class="d" d="M450.07,1408.09c-4.01-4.4-4.01-11.01,.08-15.36,4.04,4.39,3.98,11-.08,15.36h0Z"/></g><g class="e"><path class="d" d="M70.08,739.4c5.23-4.02,12.53-4.02,17.72,.09-5.23,4.05-12.53,3.99-17.72-.09h0Z"/><path class="d" d="M78.32,746.53c-4.01-4.4-4.01-11.01,.08-15.36,4.04,4.39,3.98,11-.08,15.36h0Z"/></g><g class="e"><path class="d" d="M108.61,739.99c-5.23,4.02-12.53,4.02-17.72-.09,5.23-4.05,12.53-3.99,17.72,.09h0Z"/><path class="d" d="M100.31,747.03c-4.01-4.4-4.01-11.01,.08-15.36,4.04,4.39,3.98,11-.08,15.36h0Z"/></g><g class="e"><path class="d" d="M82.31,754.63c5.23-4.02,12.53-4.02,17.72,.09-5.23,4.05-12.53,3.99-17.72-.09h0Z"/><path class="d" d="M90.54,761.77c-4.01-4.4-4.01-11.01,.08-15.36,4.04,4.39,3.98,11-.08,15.36h0Z"/></g><g class="c"><path class="d" d="M465.35,1192.49c5.23-4.02,12.53-4.02,17.72,.09-5.23,4.05-12.53,3.99-17.72-.09h0Z"/><path class="d" d="M473.65,1185.44c4.01,4.4,4.01,11.01-.08,15.36-4.04-4.39-3.98-11,.08-15.36h0Z"/></g><g class="b"><path class="d" d="M416.39,1095.01c-5.23,4.02-12.53,4.02-17.72-.09,5.23-4.05,12.53-3.99,17.72,.09h0Z"/><path class="d" d="M408.16,1087.87c4.01,4.4,4.01,11.01-.08,15.36-4.04-4.39-3.98-11,.08-15.36h0Z"/></g><g class="b"><path class="d" d="M390.24,1080.1c5.23-4.02,12.53-4.02,17.72,.09-5.23,4.05-12.53,3.99-17.72-.09h0Z"/><path class="d" d="M398.54,1073.05c4.01,4.4,4.01,11.01-.08,15.36-4.04-4.39-3.98-11,.08-15.36h0Z"/></g><g class="b"><path class="d" d="M368.21,1084.66c5.23-4.02,12.53-4.02,17.72,.09-5.23,4.05-12.53,3.99-17.72-.09h0Z"/><path class="d" d="M376.45,1091.79c-4.01-4.4-4.01-11.01,.08-15.36,4.04,4.39,3.98,11-.08,15.36h0Z"/></g><g class="b"><path class="d" d="M294.84,292.63c5.23-4.02,12.53-4.02,17.72,.09-5.23,4.05-12.53,3.99-17.72-.09h0Z"/><path class="d" d="M303.14,285.58c4.01,4.4,4.01,11.01-.08,15.36-4.04-4.39-3.98-11,.08-15.36h0Z"/></g><g class="b"><path class="d" d="M245.88,195.14c-5.23,4.02-12.53,4.02-17.72-.09,5.23-4.05,12.53-3.99,17.72,.09h0Z"/><path class="d" d="M237.65,188.01c4.01,4.4,4.01,11.01-.08,15.36-4.04-4.39-3.98-11,.08-15.36h0Z"/></g><g class="b"><path class="d" d="M219.73,180.23c5.23-4.02,12.53-4.02,17.72,.09-5.23,4.05-12.53,3.99-17.72-.09h0Z"/><path class="d" d="M228.03,173.18c4.01,4.4,4.01,11.01-.08,15.36-4.04-4.39-3.98-11,.08-15.36h0Z"/></g><g class="b"><path class="d" d="M197.7,184.79c5.23-4.02,12.53-4.02,17.72,.09-5.23,4.05-12.53,3.99-17.72-.09h0Z"/><path class="d" d="M205.94,191.92c-4.01-4.4-4.01-11.01,.08-15.36,4.04,4.39,3.98,11-.08,15.36h0Z"/></g><g class="c"><path class="d" d="M555.8,300.93c5.23-4.02,12.53-4.02,17.72,.09-5.23,4.05-12.53,3.99-17.72-.09h0Z"/><path class="d" d="M564.1,293.88c4.01,4.4,4.01,11.01-.08,15.36-4.04-4.39-3.98-11,.08-15.36h0Z"/></g><g class="c"><path class="d" d="M506.85,203.45c-5.23,4.02-12.53,4.02-17.72-.09,5.23-4.05,12.53-3.99,17.72,.09h0Z"/><path class="d" d="M498.61,196.32c4.01,4.4,4.01,11.01-.08,15.36-4.04-4.39-3.98-11,.08-15.36h0Z"/></g><g class="c"><path class="d" d="M480.69,188.54c5.23-4.02,12.53-4.02,17.72,.09-5.23,4.05-12.53,3.99-17.72-.09h0Z"/><path class="d" d="M488.99,181.49c4.01,4.4,4.01,11.01-.08,15.36-4.04-4.39-3.98-11,.08-15.36h0Z"/></g><g class="c"><path class="d" d="M458.67,193.1c5.23-4.02,12.53-4.02,17.72,.09-5.23,4.05-12.53,3.99-17.72-.09h0Z"/><path class="d" d="M466.9,200.23c-4.01-4.4-4.01-11.01,.08-15.36,4.04,4.39,3.98,11-.08,15.36h0Z"/></g><g class="b"><path class="d" d="M356.96,583.75c-5.48,4.05-13.14,4.08-18.61,0,5.47-4.08,13.13-4.05,18.61,0h0Z"/><path class="d" d="M348.27,591.2c-4.04-4.65-4.06-11.48,0-16.13,4.06,4.65,4.04,11.48,0,16.13h0Z"/></g><g class="b"><path class="d" d="M316.49,584.17c5.48-4.05,13.14-4.08,18.61,0-5.47,4.08-13.13,4.05-18.61,0h0Z"/><path class="d" d="M325.18,591.61c-4.04-4.65-4.06-11.48,0-16.13,4.06,4.65,4.04,11.48,0,16.13h0Z"/></g><g class="b"><path class="d" d="M344.04,599.68c-5.48,4.05-13.14,4.08-18.61,0,5.47-4.08,13.13-4.05,18.61,0h0Z"/><path class="d" d="M335.35,607.13c-4.04-4.65-4.06-11.48,0-16.13,4.06,4.65,4.04,11.48,0,16.13h0Z"/></g><g class="c"><path class="d" d="M154.15,591.98c-5.21,4.05-12.51,4.08-17.72,0,5.21-4.08,12.51-4.05,17.72,0h0Z"/><path class="d" d="M145.88,599.07c-4.03-4.38-4.06-10.99,0-15.36,4.06,4.37,4.03,10.98,0,15.36h0Z"/></g><g class="c"><path class="d" d="M203.59,689.22c5.21-4.05,12.51-4.08,17.72,0-5.21,4.08-12.51,4.05-17.72,0h0Z"/><path class="d" d="M211.86,696.31c-4.03-4.38-4.06-10.99,0-15.36,4.06,4.37,4.03,10.98,0,15.36h0Z"/></g><g class="c"><path class="d" d="M229.82,704c-5.21,4.05-12.51,4.08-17.72,0,5.21-4.08,12.51-4.05,17.72,0h0Z"/><path class="d" d="M221.55,711.09c-4.03-4.38-4.06-10.99,0-15.36,4.06,4.37,4.03,10.98,0,15.36h0Z"/></g><g class="c"><path class="d" d="M251.82,699.33c-5.21,4.05-12.51,4.08-17.72,0,5.21-4.08,12.51-4.05,17.72,0h0Z"/><path class="d" d="M243.55,692.24c4.03,4.38,4.06,10.99,0,15.36-4.06-4.37-4.03-10.98,0-15.36h0Z"/></g><g class="b"><path class="d" d="M193.04,627.45c5.23-4.02,12.53-4.02,17.72,.09-5.23,4.05-12.53,3.99-17.72-.09h0Z"/><path class="d" d="M201.34,620.4c4.01,4.4,4.01,11.01-.08,15.36-4.04-4.39-3.98-11,.08-15.36h0Z"/></g><g class="b"><path class="d" d="M348.21,694.55c-5.23,4.02-12.53,4.02-17.72-.09,5.23-4.05,12.53-3.99,17.72,.09h0Z"/><path class="d" d="M339.98,687.42c4.01,4.4,4.01,11.01-.08,15.36-4.04-4.39-3.98-11,.08-15.36h0Z"/></g><g class="b"><path class="d" d="M322.06,679.64c5.23-4.02,12.53-4.02,17.72,.09-5.23,4.05-12.53,3.99-17.72-.09h0Z"/><path class="d" d="M330.36,672.59c4.01,4.4,4.01,11.01-.08,15.36-4.04-4.39-3.98-11,.08-15.36h0Z"/></g><g class="b"><path class="d" d="M300.04,684.2c5.23-4.02,12.53-4.02,17.72,.09-5.23,4.05-12.53,3.99-17.72-.09h0Z"/><path class="d" d="M308.27,691.33c-4.01-4.4-4.01-11.01,.08-15.36,4.04,4.39,3.98,11-.08,15.36h0Z"/></g></svg>