<?xml version="1.0" encoding="UTF-8"?><svg id="a" xmlns="http://www.w3.org/2000/svg" viewBox="0 0 1435.94 1440.36"><defs><style>.b{opacity:.65;}.c{opacity:.43;}.d{opacity:.92;}.e{fill:#d7d4e4;}.f{opacity:.67;}</style></defs><g class="d"><path class="e" d="M1277.55,145.52c-5.21,4.05-12.51,4.08-17.72,0,5.21-4.08,12.51-4.05,17.72,0h0Z"/><path class="e" d="M1269.28,152.61c-4.03-4.38-4.06-10.99,0-15.36,4.06,4.37,4.03,10.98,0,15.36h0Z"/></g><g class="f"><path class="e" d="M1086.84,950.18c-12.61,4.05-29.87,4.08-42.48,0,12.6-4.08,29.87-4.05,42.48,0h0Z"/><path class="e" d="M1067.02,967.17c-4.05-10.9-4.08-25.92,0-36.82,4.08,10.9,4.05,25.91,0,36.82h0Z"/></g><g class="f"><path class="e" d="M1186.25,26.99c-5.21,4.05-12.51,4.08-17.72,0,5.21-4.08,12.51-4.05,17.72,0h0Z"/><path class="e" d="M1177.98,34.08c-4.03-4.38-4.06-10.99,0-15.36,4.06,4.37,4.03,10.98,0,15.36h0Z"/></g><g class="d"><path class="e" d="M1373.41,174.34c-12,4.05-28.45,4.08-40.45,0,11.99-4.08,28.45-4.05,40.45,0h0Z"/><path class="e" d="M1354.53,190.52c-4.05-10.36-4.08-24.69,0-35.06,4.08,10.36,4.05,24.69,0,35.06h0Z"/></g><g class="d"><path class="e" d="M1430.89,201.51c-5.21,4.05-12.51,4.08-17.72,0,5.21-4.08,12.51-4.05,17.72,0h0Z"/><path class="e" d="M1422.62,208.6c-4.03-4.38-4.06-10.99,0-15.36,4.06,4.37,4.03,10.98,0,15.36h0Z"/></g><g class="d"><path class="e" d="M1435.94,895.94c-12.61,4.05-29.87,4.08-42.48,0,12.6-4.08,29.87-4.05,42.48,0h0Z"/><path class="e" d="M1416.12,912.93c-4.05-10.9-4.08-25.92,0-36.82,4.08,10.9,4.05,25.91,0,36.82h0Z"/></g><g class="f"><path class="e" d="M967,170.89c-12,4.05-28.45,4.08-40.45,0,11.99-4.08,28.45-4.05,40.45,0h0Z"/><path class="e" d="M948.12,187.07c-4.05-10.36-4.08-24.69,0-35.06,4.08,10.36,4.05,24.69,0,35.06h0Z"/></g><g class="f"><path class="e" d="M1238.71,282.72c-5.21,4.05-12.51,4.08-17.72,0,5.21-4.08,12.51-4.05,17.72,0h0Z"/><path class="e" d="M1230.44,289.81c-4.03-4.38-4.06-10.99,0-15.36,4.06,4.37,4.03,10.98,0,15.36h0Z"/></g><g class="d"><path class="e" d="M1404.49,227.3c-12,4.05-28.45,4.08-40.45,0,11.99-4.08,28.45-4.05,40.45,0h0Z"/><path class="e" d="M1385.62,243.48c-4.05-10.36-4.08-24.69,0-35.06,4.08,10.36,4.05,24.69,0,35.06h0Z"/></g><g class="d"><path class="e" d="M1408.9,742.24c-12.61,4.05-29.87,4.08-42.48,0,12.6-4.08,29.87-4.05,42.48,0h0Z"/><path class="e" d="M1389.08,759.24c-4.05-10.9-4.08-25.92,0-36.82,4.08,10.9,4.05,25.91,0,36.82h0Z"/></g><g class="f"><path class="e" d="M1083.35,802.5c5.48-4.05,13.14-4.08,18.61,0-5.47,4.08-13.13,4.05-18.61,0h0Z"/><path class="e" d="M1092.04,809.94c-4.04-4.65-4.06-11.48,0-16.13,4.06,4.65,4.04,11.48,0,16.13h0Z"/></g><g class="f"><path class="e" d="M1112.6,1026.67c5.48-4.05,13.14-4.08,18.61,0-5.47,4.08-13.13,4.05-18.61,0h0Z"/><path class="e" d="M1121.28,1034.11c-4.04-4.65-4.06-11.48,0-16.13,4.06,4.65,4.04,11.48,0,16.13h0Z"/></g><g class="f"><path class="e" d="M1187.39,946.12c5.48-4.05,13.14-4.08,18.61,0-5.47,4.08-13.13,4.05-18.61,0h0Z"/><path class="e" d="M1196.08,953.56c-4.04-4.65-4.06-11.48,0-16.13,4.06,4.65,4.04,11.48,0,16.13h0Z"/></g><g class="d"><path class="e" d="M1387,823.25c5.48-4.05,13.14-4.08,18.61,0-5.47,4.08-13.13,4.05-18.61,0h0Z"/><path class="e" d="M1395.69,830.69c-4.04-4.65-4.06-11.48,0-16.13,4.06,4.65,4.04,11.48,0,16.13h0Z"/></g><g class="f"><path class="e" d="M983.08,1420.39c7.09-4.05,17.01-4.08,24.09,0-7.09,4.08-17,4.05-24.09,0h0Z"/><path class="e" d="M994.33,1430.03c-4.05-6.12-4.07-14.76,0-20.88,4.07,6.11,4.05,14.76,0,20.88h0Z"/></g><g class="d"><path class="e" d="M1277.21,864.99c5.48-4.05,13.14-4.08,18.61,0-5.47,4.08-13.13,4.05-18.61,0h0Z"/><path class="e" d="M1285.9,872.44c-4.04-4.65-4.06-11.48,0-16.13,4.06,4.65,4.04,11.48,0,16.13h0Z"/></g><g class="b"><path class="e" d="M881.26,126.8c-5.21,4.05-12.51,4.08-17.72,0,5.21-4.08,12.51-4.05,17.72,0h0Z"/><path class="e" d="M872.99,133.89c-4.03-4.38-4.06-10.99,0-15.36,4.06,4.37,4.03,10.98,0,15.36h0Z"/></g><g class="b"><path class="e" d="M789.97,8.27c-5.21,4.05-12.51,4.08-17.72,0,5.21-4.08,12.51-4.05,17.72,0h0Z"/><path class="e" d="M781.69,15.36c-4.03-4.38-4.06-10.99,0-15.36,4.06,4.37,4.03,10.98,0,15.36h0Z"/></g><g class="f"><path class="e" d="M1034.6,182.79c-5.21,4.05-12.51,4.08-17.72,0,5.21-4.08,12.51-4.05,17.72,0h0Z"/><path class="e" d="M1026.33,189.88c-4.03-4.38-4.06-10.99,0-15.36,4.06,4.37,4.03,10.98,0,15.36h0Z"/></g><g class="b"><path class="e" d="M842.42,264c-5.21,4.05-12.51,4.08-17.72,0,5.21-4.08,12.51-4.05,17.72,0h0Z"/><path class="e" d="M834.15,271.09c-4.03-4.38-4.06-10.99,0-15.36,4.06,4.37,4.03,10.98,0,15.36h0Z"/></g><g class="f"><path class="e" d="M1013.96,712.89c-5.48,4.05-13.14,4.08-18.61,0,5.47-4.08,13.13-4.05,18.61,0h0Z"/><path class="e" d="M1005.28,720.34c-4.04-4.65-4.06-11.48,0-16.13,4.06,4.65,4.04,11.48,0,16.13h0Z"/></g><g class="f"><path class="e" d="M984.71,937.06c-5.48,4.05-13.14,4.08-18.61,0,5.47-4.08,13.13-4.05,18.61,0h0Z"/><path class="e" d="M976.03,944.5c-4.04-4.65-4.06-11.48,0-16.13,4.06,4.65,4.04,11.48,0,16.13h0Z"/></g><g class="b"><path class="e" d="M909.92,856.51c-5.48,4.05-13.14,4.08-18.61,0,5.47-4.08,13.13-4.05,18.61,0h0Z"/><path class="e" d="M901.23,863.95c-4.04-4.65-4.06-11.48,0-16.13,4.06,4.65,4.04,11.48,0,16.13h0Z"/></g><g class="c"><path class="e" d="M677.64,1228.27c-7.09,4.05-17.01,4.08-24.09,0,7.09-4.08,17-4.05,24.09,0h0Z"/><path class="e" d="M666.4,1237.91c-4.05-6.12-4.07-14.76,0-20.88,4.07,6.11,4.05,14.76,0,20.88h0Z"/></g><g class="b"><path class="e" d="M754.28,984.2c-5.48,4.05-13.14,4.08-18.61,0,5.47-4.08,13.13-4.05,18.61,0h0Z"/><path class="e" d="M745.59,991.65c-4.04-4.65-4.06-11.48,0-16.13,4.06,4.65,4.04,11.48,0,16.13h0Z"/></g><g class="b"><path class="e" d="M710.31,733.64c-5.48,4.05-13.14,4.08-18.61,0,5.47-4.08,13.13-4.05,18.61,0h0Z"/><path class="e" d="M701.63,741.08c-4.04-4.65-4.06-11.48,0-16.13,4.06,4.65,4.04,11.48,0,16.13h0Z"/></g><g class="b"><path class="e" d="M886.11,1304.39c-7.09,4.05-17.01,4.08-24.09,0,7.09-4.08,17-4.05,24.09,0h0Z"/><path class="e" d="M874.87,1314.03c-4.05-6.12-4.07-14.76,0-20.88,4.07,6.11,4.05,14.76,0,20.88h0Z"/></g><g class="b"><path class="e" d="M820.1,775.38c-5.48,4.05-13.14,4.08-18.61,0,5.47-4.08,13.13-4.05,18.61,0h0Z"/><path class="e" d="M811.41,782.83c-4.04-4.65-4.06-11.48,0-16.13,4.06,4.65,4.04,11.48,0,16.13h0Z"/></g><g class="c"><path class="e" d="M624.84,1414.79c-7.09,4.05-17.01,4.08-24.09,0,7.09-4.08,17-4.05,24.09,0h0Z"/><path class="e" d="M613.59,1424.43c-4.05-6.12-4.07-14.76,0-20.88,4.07,6.11,4.05,14.76,0,20.88h0Z"/></g><g class="d"><path class="e" d="M1309.78,37.73c5.21-4.05,12.51-4.08,17.72,0-5.21,4.08-12.51,4.05-17.72,0h0Z"/><path class="e" d="M1318.05,44.82c-4.03-4.38-4.06-10.99,0-15.36,4.06,4.37,4.03,10.98,0,15.36h0Z"/></g><g class="f"><path class="e" d="M1139.45,1241.32c2.67-3.96,7.77-3.99,10.43,0-2.66,3.99-7.77,3.96-10.43,0h0Z"/><path class="e" d="M1144.32,1245.5c-3.95-2.25-3.97-6.8,0-9.04,3.97,2.24,3.95,6.8,0,9.04h0Z"/></g><g class="d"><path class="e" d="M1315.92,766.97c5.48-4.05,13.14-4.08,18.61,0-5.47,4.08-13.13,4.05-18.61,0h0Z"/><path class="e" d="M1324.6,774.42c-4.04-4.65-4.06-11.48,0-16.13,4.06,4.65,4.04,11.48,0,16.13h0Z"/></g><g class="f"><path class="e" d="M1205.89,711.36c5.48-4.05,13.14-4.08,18.61,0-5.47,4.08-13.13,4.05-18.61,0h0Z"/><path class="e" d="M1214.58,718.8c-4.04-4.65-4.06-11.48,0-16.13,4.06,4.65,4.04,11.48,0,16.13h0Z"/></g><g class="d"><path class="e" d="M1413.4,368.15c5.21-4.05,12.51-4.08,17.72,0-5.21,4.08-12.51,4.05-17.72,0h0Z"/><path class="e" d="M1421.67,375.24c-4.03-4.38-4.06-10.99,0-15.36,4.06,4.37,4.03,10.98,0,15.36h0Z"/></g><g class="b"><path class="e" d="M891.86,361.25c5.21-4.05,12.51-4.08,17.72,0-5.21,4.08-12.51,4.05-17.72,0h0Z"/><path class="e" d="M900.13,368.33c-4.03-4.38-4.06-10.99,0-15.36,4.06,4.37,4.03,10.98,0,15.36h0Z"/></g><g class="b"><path class="e" d="M918.09,376.02c-5.21,4.05-12.51,4.08-17.72,0,5.21-4.08,12.51-4.05,17.72,0h0Z"/><path class="e" d="M909.82,383.11c-4.03-4.38-4.06-10.99,0-15.36,4.06,4.37,4.03,10.98,0,15.36h0Z"/></g><g class="f"><path class="e" d="M1125.61,1246.24c2.67-3.96,7.77-3.99,10.43,0-2.66,3.99-7.77,3.96-10.43,0h0Z"/><path class="e" d="M1130.48,1250.41c-3.95-2.25-3.97-6.8,0-9.04,3.97,2.24,3.95,6.8,0,9.04h0Z"/></g><g class="f"><path class="e" d="M1141.05,1254.94c-2.67,3.96-7.77,3.99-10.43,0,2.66-3.99,7.77-3.96,10.43,0h0Z"/><path class="e" d="M1136.18,1259.11c-3.95-2.25-3.97-6.8,0-9.04,3.97,2.24,3.95,6.8,0,9.04h0Z"/></g><g class="b"><path class="e" d="M713.81,984.62c5.48-4.05,13.14-4.08,18.61,0-5.47,4.08-13.13,4.05-18.61,0h0Z"/><path class="e" d="M722.5,992.06c-4.04-4.65-4.06-11.48,0-16.13,4.06,4.65,4.04,11.48,0,16.13h0Z"/></g><g class="b"><path class="e" d="M741.36,1000.13c-5.48,4.05-13.14,4.08-18.61,0,5.47-4.08,13.13-4.05,18.61,0h0Z"/><path class="e" d="M732.67,1007.58c-4.04-4.65-4.06-11.48,0-16.13,4.06,4.65,4.04,11.48,0,16.13h0Z"/></g><g class="d"><path class="e" d="M1411.34,145.56c-5.21,4.05-12.51,4.08-17.72,0,5.21-4.08,12.51-4.05,17.72,0h0Z"/><path class="e" d="M1403.07,152.65c-4.03-4.38-4.06-10.99,0-15.36,4.06,4.37,4.03,10.98,0,15.36h0Z"/></g><g class="d"><path class="e" d="M1372.81,145.96c5.21-4.05,12.51-4.08,17.72,0-5.21,4.08-12.51,4.05-17.72,0h0Z"/><path class="e" d="M1381.08,153.05c-4.03-4.38-4.06-10.99,0-15.36,4.06,4.37,4.03,10.98,0,15.36h0Z"/></g><g class="d"><path class="e" d="M1393.15,119.54c-5.21,4.05-12.51,4.08-17.72,0,5.21-4.08,12.51-4.05,17.72,0h0Z"/><path class="e" d="M1384.88,126.63c-4.03-4.38-4.06-10.99,0-15.36,4.06,4.37,4.03,10.98,0,15.36h0Z"/></g><g class="d"><path class="e" d="M1277.16,389.49c-12,4.05-28.45,4.08-40.45,0,11.99-4.08,28.45-4.05,40.45,0h0Z"/><path class="e" d="M1258.28,373.31c4.05,10.36,4.08,24.69,0,35.06-4.08-10.36-4.05-24.69,0-35.06h0Z"/></g><g class="d"><path class="e" d="M1294.52,591.21c-5.21,4.05-12.51,4.08-17.72,0,5.21-4.08,12.51-4.05,17.72,0h0Z"/><path class="e" d="M1286.25,584.13c4.03,4.38,4.06,10.99,0,15.36-4.06-4.37-4.03-10.98,0-15.36h0Z"/></g><g class="f"><path class="e" d="M1181.6,494.25c-12,4.05-28.45,4.08-40.45,0,11.99-4.08,28.45-4.05,40.45,0h0Z"/><path class="e" d="M1162.72,478.07c4.05,10.36,4.08,24.69,0,35.06-4.08-10.36-4.05-24.69,0-35.06h0Z"/></g><g class="f"><path class="e" d="M1117.13,208.73c-12,4.05-28.45,4.08-40.45,0,11.99-4.08,28.45-4.05,40.45,0h0Z"/><path class="e" d="M1098.25,192.55c4.05,10.36,4.08,24.69,0,35.06-4.08-10.36-4.05-24.69,0-35.06h0Z"/></g><g class="f"><path class="e" d="M1187.36,629.69c-5.21,4.05-12.51,4.08-17.72,0,5.21-4.08,12.51-4.05,17.72,0h0Z"/><path class="e" d="M1179.09,622.6c4.03,4.38,4.06,10.99,0,15.36-4.06-4.37-4.03-10.98,0-15.36h0Z"/></g><g class="f"><path class="e" d="M1088.29,492.94c-5.21,4.05-12.51,4.08-17.72,0,5.21-4.08,12.51-4.05,17.72,0h0Z"/><path class="e" d="M1080.02,485.85c4.03,4.38,4.06,10.99,0,15.36-4.06-4.37-4.03-10.98,0-15.36h0Z"/></g><g class="f"><path class="e" d="M1031.39,252.82c-5.21,4.05-12.51,4.08-17.72,0,5.21-4.08,12.51-4.05,17.72,0h0Z"/><path class="e" d="M1023.12,245.73c4.03,4.38,4.06,10.99,0,15.36-4.06-4.37-4.03-10.98,0-15.36h0Z"/></g><g class="b"><path class="e" d="M940.09,371.35c-5.21,4.05-12.51,4.08-17.72,0,5.21-4.08,12.51-4.05,17.72,0h0Z"/><path class="e" d="M931.82,364.26c4.03,4.38,4.06,10.99,0,15.36-4.06-4.37-4.03-10.98,0-15.36h0Z"/></g><g class="f"><path class="e" d="M1184.73,196.83c-5.21,4.05-12.51,4.08-17.72,0,5.21-4.08,12.51-4.05,17.72,0h0Z"/><path class="e" d="M1176.46,189.74c4.03,4.38,4.06,10.99,0,15.36-4.06-4.37-4.03-10.98,0-15.36h0Z"/></g><g class="f"><path class="e" d="M1002.77,570.19c-5.21,4.05-12.51,4.08-17.72,0,5.21-4.08,12.51-4.05,17.72,0h0Z"/><path class="e" d="M994.5,563.1c4.03,4.38,4.06,10.99,0,15.36-4.06-4.37-4.03-10.98,0-15.36h0Z"/></g><g class="f"><path class="e" d="M1200.95,535.92c-5.21,4.05-12.51,4.08-17.72,0,5.21-4.08,12.51-4.05,17.72,0h0Z"/><path class="e" d="M1192.68,528.83c4.03,4.38,4.06,10.99,0,15.36-4.06-4.37-4.03-10.98,0-15.36h0Z"/></g><g class="f"><path class="e" d="M1162.42,535.53c5.21-4.05,12.51-4.08,17.72,0-5.21,4.08-12.51,4.05-17.72,0h0Z"/><path class="e" d="M1170.69,528.44c4.03,4.38,4.06,10.99,0,15.36-4.06-4.37-4.03-10.98,0-15.36h0Z"/></g><g class="f"><path class="e" d="M1188.65,520.75c-5.21,4.05-12.51,4.08-17.72,0,5.21-4.08,12.51-4.05,17.72,0h0Z"/><path class="e" d="M1180.38,513.66c4.03,4.38,4.06,10.99,0,15.36-4.06-4.37-4.03-10.98,0-15.36h0Z"/></g><g class="c"><path class="e" d="M637.47,100.43c-5.21,4.05-12.51,4.08-17.72,0,5.21-4.08,12.51-4.05,17.72,0h0Z"/><path class="e" d="M629.2,107.52c-4.03-4.38-4.06-10.99,0-15.36,4.06,4.37,4.03,10.98,0,15.36h0Z"/></g><g class="b"><path class="e" d="M686.91,197.67c5.21-4.05,12.51-4.08,17.72,0-5.21,4.08-12.51,4.05-17.72,0h0Z"/><path class="e" d="M695.18,204.76c-4.03-4.38-4.06-10.99,0-15.36,4.06,4.37,4.03,10.98,0,15.36h0Z"/></g><g class="b"><path class="e" d="M713.14,212.45c-5.21,4.05-12.51,4.08-17.72,0,5.21-4.08,12.51-4.05,17.72,0h0Z"/><path class="e" d="M704.87,219.54c-4.03-4.38-4.06-10.99,0-15.36,4.06,4.37,4.03,10.98,0,15.36h0Z"/></g><g class="b"><path class="e" d="M735.14,207.78c-5.21,4.05-12.51,4.08-17.72,0,5.21-4.08,12.51-4.05,17.72,0h0Z"/><path class="e" d="M726.87,200.69c4.03,4.38,4.06,10.99,0,15.36-4.06-4.37-4.03-10.98,0-15.36h0Z"/></g><g class="b"><path class="e" d="M812.47,999.43c-5.21,4.05-12.51,4.08-17.72,0,5.21-4.08,12.51-4.05,17.72,0h0Z"/><path class="e" d="M804.2,1006.52c-4.03-4.38-4.06-10.99,0-15.36,4.06,4.37,4.03,10.98,0,15.36h0Z"/></g><g class="b"><path class="e" d="M861.91,1096.67c5.21-4.05,12.51-4.08,17.72,0-5.21,4.08-12.51,4.05-17.72,0h0Z"/><path class="e" d="M870.18,1103.76c-4.03-4.38-4.06-10.99,0-15.36,4.06,4.37,4.03,10.98,0,15.36h0Z"/></g><g class="b"><path class="e" d="M888.14,1111.45c-5.21,4.05-12.51,4.08-17.72,0,5.21-4.08,12.51-4.05,17.72,0h0Z"/><path class="e" d="M879.87,1118.54c-4.03-4.38-4.06-10.99,0-15.36,4.06,4.37,4.03,10.98,0,15.36h0Z"/></g><g class="b"><path class="e" d="M910.14,1106.78c-5.21,4.05-12.51,4.08-17.72,0,5.21-4.08,12.51-4.05,17.72,0h0Z"/><path class="e" d="M901.87,1099.69c4.03,4.38,4.06,10.99,0,15.36-4.06-4.37-4.03-10.98,0-15.36h0Z"/></g><g class="b"><path class="e" d="M714.47,1301.43c-5.21,4.05-12.51,4.08-17.72,0,5.21-4.08,12.51-4.05,17.72,0h0Z"/><path class="e" d="M706.2,1308.52c-4.03-4.38-4.06-10.99,0-15.36,4.06,4.37,4.03,10.98,0,15.36h0Z"/></g><g class="b"><path class="e" d="M763.91,1398.67c5.21-4.05,12.51-4.08,17.72,0-5.21,4.08-12.51,4.05-17.72,0h0Z"/><path class="e" d="M772.18,1405.76c-4.03-4.38-4.06-10.99,0-15.36,4.06,4.37,4.03,10.98,0,15.36h0Z"/></g><g class="b"><path class="e" d="M790.14,1413.45c-5.21,4.05-12.51,4.08-17.72,0,5.21-4.08,12.51-4.05,17.72,0h0Z"/><path class="e" d="M781.87,1420.54c-4.03-4.38-4.06-10.99,0-15.36,4.06,4.37,4.03,10.98,0,15.36h0Z"/></g><g class="b"><path class="e" d="M812.14,1408.78c-5.21,4.05-12.51,4.08-17.72,0,5.21-4.08,12.51-4.05,17.72,0h0Z"/><path class="e" d="M803.87,1401.69c4.03,4.38,4.06,10.99,0,15.36-4.06-4.37-4.03-10.98,0-15.36h0Z"/></g><g class="c"><path class="e" d="M551.47,992.43c-5.21,4.05-12.51,4.08-17.72,0,5.21-4.08,12.51-4.05,17.72,0h0Z"/><path class="e" d="M543.2,999.52c-4.03-4.38-4.06-10.99,0-15.36,4.06,4.37,4.03,10.98,0,15.36h0Z"/></g><g class="c"><path class="e" d="M600.91,1089.67c5.21-4.05,12.51-4.08,17.72,0-5.21,4.08-12.51,4.05-17.72,0h0Z"/><path class="e" d="M609.18,1096.76c-4.03-4.38-4.06-10.99,0-15.36,4.06,4.37,4.03,10.98,0,15.36h0Z"/></g><g class="c"><path class="e" d="M627.14,1104.45c-5.21,4.05-12.51,4.08-17.72,0,5.21-4.08,12.51-4.05,17.72,0h0Z"/><path class="e" d="M618.87,1111.54c-4.03-4.38-4.06-10.99,0-15.36,4.06,4.37,4.03,10.98,0,15.36h0Z"/></g><g class="c"><path class="e" d="M649.14,1099.78c-5.21,4.05-12.51,4.08-17.72,0,5.21-4.08,12.51-4.05,17.72,0h0Z"/><path class="e" d="M640.87,1092.69c4.03,4.38,4.06,10.99,0,15.36-4.06-4.37-4.03-10.98,0-15.36h0Z"/></g><g class="d"><path class="e" d="M9.84,1352.09c12.02-3.99,28.47-3.94,40.45,.2-12.01,4.02-28.47,3.91-40.45-.2h0Z"/><path class="e" d="M28.8,1336c4,10.38,3.96,24.71-.18,35.06-4.03-10.38-3.93-24.71,.18-35.06h0Z"/></g><g class="d"><path class="e" d="M25.71,1306.99c5.23-4.02,12.53-4.02,17.72,.09-5.23,4.05-12.53,3.99-17.72-.09h0Z"/><path class="e" d="M34.01,1299.94c4.01,4.4,4.01,11.01-.08,15.36-4.04-4.39-3.98-11,.08-15.36h0Z"/></g><g class="d"><path class="e" d="M96.54,1384.04c5.23-4.02,12.53-4.02,17.72,.09-5.23,4.05-12.53,3.99-17.72-.09h0Z"/><path class="e" d="M104.85,1376.99c4.01,4.4,4.01,11.01-.08,15.36-4.04-4.39-3.98-11,.08-15.36h0Z"/></g><g class="f"><path class="e" d="M304.38,1300.35c12.02-3.99,28.47-3.94,40.45,.2-12.01,4.02-28.47,3.91-40.45-.2h0Z"/><path class="e" d="M323.34,1284.26c4,10.38,3.96,24.71-.18,35.06-4.03-10.38-3.93-24.71,.18-35.06h0Z"/></g><g class="d"><path class="e" d="M154.64,1144.21c5.23-4.02,12.53-4.02,17.72,.09-5.23,4.05-12.53,3.99-17.72-.09h0Z"/><path class="e" d="M162.95,1137.16c4.01,4.4,4.01,11.01-.08,15.36-4.04-4.39-3.98-11,.08-15.36h0Z"/></g><g class="f"><path class="e" d="M349.37,340.51c12.63-3.99,29.89-3.93,42.48,.21-12.62,4.02-29.89,3.9-42.48-.21h0Z"/><path class="e" d="M369.27,323.62c4,10.92,3.95,25.94-.18,36.82-4.03-10.92-3.92-25.93,.18-36.82h0Z"/></g><g class="f"><path class="e" d="M245.35,1263.19c5.23-4.02,12.53-4.02,17.72,.09-5.23,4.05-12.53,3.99-17.72-.09h0Z"/><path class="e" d="M253.65,1256.14c4.01,4.4,4.01,11.01-.08,15.36-4.04-4.39-3.98-11,.08-15.36h0Z"/></g><g class="f"><path class="e" d="M399.42,1405.59c12.02-3.99,28.47-3.94,40.45,.2-12.01,4.02-28.47,3.91-40.45-.2h0Z"/><path class="e" d="M418.37,1389.51c4,10.38,3.96,24.71-.18,35.06-4.03-10.38-3.93-24.71,.18-35.06h0Z"/></g><g class="d"><path class="e" d="M58.93,1114.91c12.02-3.99,28.47-3.94,40.45,.2-12.01,4.02-28.47,3.91-40.45-.2h0Z"/><path class="e" d="M77.89,1098.82c4,10.38,3.96,24.71-.18,35.06-4.03-10.38-3.93-24.71,.18-35.06h0Z"/></g><g class="d"><path class="e" d="M1.58,1087.45c5.23-4.02,12.53-4.02,17.72,.09-5.23,4.05-12.53,3.99-17.72-.09h0Z"/><path class="e" d="M9.89,1080.4c4.01,4.4,4.01,11.01-.08,15.36-4.04-4.39-3.98-11,.08-15.36h0Z"/></g><g class="d"><path class="e" d="M0,393.01c12.63-3.99,29.89-3.93,42.48,.21-12.62,4.02-29.89,3.9-42.48-.21H0Z"/><path class="e" d="M19.9,376.11c4,10.92,3.95,25.94-.18,36.82-4.03-10.92-3.92-25.93,.18-36.82h0Z"/></g><g class="f"><path class="e" d="M465.31,1120.39c12.02-3.99,28.47-3.94,40.45,.2-12.01,4.02-28.47,3.91-40.45-.2h0Z"/><path class="e" d="M484.28,1104.3c4,10.38,3.96,24.71-.18,35.06-4.03-10.38-3.93-24.71,.18-35.06h0Z"/></g><g class="f"><path class="e" d="M194.17,1007.2c5.23-4.02,12.53-4.02,17.72,.09-5.23,4.05-12.53,3.99-17.72-.09h0Z"/><path class="e" d="M202.47,1000.15c4.01,4.4,4.01,11.01-.08,15.36-4.04-4.39-3.98-11,.08-15.36h0Z"/></g><g class="d"><path class="e" d="M28.11,1061.79c12.02-3.99,28.47-3.94,40.45,.2-12.01,4.02-28.47,3.91-40.45-.2h0Z"/><path class="e" d="M47.06,1045.71c4,10.38,3.96,24.71-.18,35.06-4.03-10.38-3.93-24.71,.18-35.06h0Z"/></g><g class="d"><path class="e" d="M26.27,546.84c12.63-3.99,29.89-3.93,42.48,.21-12.62,4.02-29.89,3.9-42.48-.21h0Z"/><path class="e" d="M46.18,529.94c4,10.92,3.95,25.94-.18,36.82-4.03-10.92-3.92-25.93,.18-36.82h0Z"/></g><g class="f"><path class="e" d="M352.12,488.2c-5.5,4.02-13.16,4.01-18.61-.09,5.49-4.05,13.15-3.98,18.61,.09h0Z"/><path class="e" d="M343.47,480.72c4.02,4.67,4,11.5-.08,16.13-4.04-4.67-3.98-11.5,.08-16.13h0Z"/></g><g class="f"><path class="e" d="M323.99,263.89c-5.5,4.02-13.16,4.01-18.61-.09,5.49-4.05,13.15-3.98,18.61,.09h0Z"/><path class="e" d="M315.35,256.41c4.02,4.67,4,11.5-.08,16.13-4.04-4.67-3.98-11.5,.08-16.13h0Z"/></g><g class="f"><path class="e" d="M248.8,344.07c-5.5,4.02-13.16,4.01-18.61-.09,5.49-4.05,13.15-3.98,18.61,.09h0Z"/><path class="e" d="M240.14,336.58c4.02,4.67,4,11.5-.08,16.13-4.04-4.67-3.98-11.5,.08-16.13h0Z"/></g><g class="d"><path class="e" d="M48.58,465.94c-5.5,4.02-13.16,4.01-18.61-.09,5.49-4.05,13.15-3.98,18.61,.09h0Z"/><path class="e" d="M39.92,458.46c4.02,4.67,4,11.5-.08,16.13-4.04-4.67-3.98-11.5,.08-16.13h0Z"/></g><g class="d"><path class="e" d="M158.57,424.75c-5.5,4.02-13.16,4.01-18.61-.09,5.49-4.05,13.15-3.98,18.61,.09h0Z"/><path class="e" d="M149.92,417.25c4.02,4.67,4,11.5-.08,16.13-4.04-4.67-3.98-11.5,.08-16.13h0Z"/></g><g class="f"><path class="e" d="M421.9,1327.69c5.23-4.02,12.53-4.02,17.72,.09-5.23,4.05-12.53,3.99-17.72-.09h0Z"/><path class="e" d="M430.2,1320.64c4.01,4.4,4.01,11.01-.08,15.36-4.04-4.39-3.98-11,.08-15.36h0Z"/></g><g class="b"><path class="e" d="M492.74,1404.74c5.23-4.02,12.53-4.02,17.72,.09-5.23,4.05-12.53,3.99-17.72-.09h0Z"/><path class="e" d="M501.04,1397.69c4.01,4.4,4.01,11.01-.08,15.36-4.04-4.39-3.98-11,.08-15.36h0Z"/></g><g class="b"><path class="e" d="M550.83,1164.9c5.23-4.02,12.53-4.02,17.72,.09-5.23,4.05-12.53,3.99-17.72-.09h0Z"/><path class="e" d="M559.14,1157.86c4.01,4.4,4.01,11.01-.08,15.36-4.04-4.39-3.98-11,.08-15.36h0Z"/></g><g class="b"><path class="e" d="M641.53,1283.89c5.23-4.02,12.53-4.02,17.72,.09-5.23,4.05-12.53,3.99-17.72-.09h0Z"/><path class="e" d="M649.85,1276.84c4.01,4.4,4.01,11.01-.08,15.36-4.04-4.39-3.98-11,.08-15.36h0Z"/></g><g class="f"><path class="e" d="M397.77,1108.15c5.23-4.02,12.53-4.02,17.72,.09-5.23,4.05-12.53,3.99-17.72-.09h0Z"/><path class="e" d="M406.08,1101.1c4.01,4.4,4.01,11.01-.08,15.36-4.04-4.39-3.98-11,.08-15.36h0Z"/></g><g class="b"><path class="e" d="M590.36,1027.9c5.23-4.02,12.53-4.02,17.72,.09-5.23,4.05-12.53,3.99-17.72-.09h0Z"/><path class="e" d="M598.66,1020.85c4.01,4.4,4.01,11.01-.08,15.36-4.04-4.39-3.98-11,.08-15.36h0Z"/></g><g class="f"><path class="e" d="M421.06,578.16c5.5-4.02,13.16-4.01,18.61,.09-5.49,4.05-13.15,3.98-18.61-.09h0Z"/><path class="e" d="M429.78,570.75c4.02,4.67,4,11.5-.08,16.13-4.04-4.67-3.98-11.5,.08-16.13h0Z"/></g><g class="f"><path class="e" d="M451.43,354.14c5.5-4.02,13.16-4.01,18.61,.09-5.49,4.05-13.15,3.98-18.61-.09h0Z"/><path class="e" d="M460.15,346.74c4.02,4.67,4,11.5-.08,16.13-4.04-4.67-3.98-11.5,.08-16.13h0Z"/></g><g class="b"><path class="e" d="M525.82,435.06c5.5-4.02,13.16-4.01,18.61,.09-5.49,4.05-13.15,3.98-18.61-.09h0Z"/><path class="e" d="M534.54,427.66c4.02,4.67,4,11.5-.08,16.13-4.04-4.67-3.98-11.5,.08-16.13h0Z"/></g><g class="c"><path class="e" d="M759.95,64.47c7.11-4.01,17.03-3.99,24.09,.12-7.11,4.04-17.02,3.97-24.09-.12h0Z"/><path class="e" d="M771.24,54.88c4.02,6.14,4,14.78-.1,20.88-4.04-6.13-3.98-14.78,.1-20.88h0Z"/></g><g class="b"><path class="e" d="M682.09,308.15c5.5-4.02,13.16-4.01,18.61,.09-5.49,4.05-13.15,3.98-18.61-.09h0Z"/><path class="e" d="M690.82,300.74c4.02,4.67,4,11.5-.08,16.13-4.04-4.67-3.98-11.5,.08-16.13h0Z"/></g><g class="b"><path class="e" d="M724.81,558.93c5.5-4.02,13.16-4.01,18.61,.09-5.49,4.05-13.15,3.98-18.61-.09h0Z"/><path class="e" d="M733.53,551.53c4.02,4.67,4,11.5-.08,16.13-4.04-4.67-3.98-11.5,.08-16.13h0Z"/></g><g class="b"><path class="e" d="M615.23,516.64c5.5-4.02,13.16-4.01,18.61,.09-5.49,4.05-13.15,3.98-18.61-.09h0Z"/><path class="e" d="M623.96,509.23c4.02,4.67,4,11.5-.08,16.13-4.04-4.67-3.98-11.5,.08-16.13h0Z"/></g><g class="d"><path class="e" d="M121.87,1251.83c-5.23,4.02-12.53,4.02-17.72-.09,5.23-4.05,12.53-3.99,17.72,.09h0Z"/><path class="e" d="M113.64,1244.7c4.01,4.4,4.01,11.01-.08,15.36-4.04-4.39-3.98-11,.08-15.36h0Z"/></g><g class="f"><path class="e" d="M445.12,1306.41c-5.23,4.02-12.53,4.02-17.72-.09,5.23-4.05,12.53-3.99,17.72,.09h0Z"/><path class="e" d="M436.88,1299.28c4.01,4.4,4.01,11.01-.08,15.36-4.04-4.39-3.98-11,.08-15.36h0Z"/></g><g class="f"><path class="e" d="M298.21,49.11c-2.69,3.95-7.79,3.95-10.43-.05,2.68-3.98,7.79-3.92,10.43,.05h0Z"/><path class="e" d="M293.36,44.91c3.94,2.27,3.94,6.82-.05,9.04-3.96-2.26-3.92-6.82,.05-9.04h0Z"/></g><g class="d"><path class="e" d="M119.37,522.57c-5.5,4.02-13.16,4.01-18.61-.09,5.49-4.05,13.15-3.98,18.61,.09h0Z"/><path class="e" d="M110.73,515.08c4.02,4.67,4,11.5-.08,16.13-4.04-4.67-3.98-11.5,.08-16.13h0Z"/></g><g class="f"><path class="e" d="M229.13,578.73c-5.5,4.02-13.16,4.01-18.61-.09,5.49-4.05,13.15-3.98,18.61,.09h0Z"/><path class="e" d="M220.47,571.25c4.02,4.67,4,11.5-.08,16.13-4.04-4.67-3.98-11.5,.08-16.13h0Z"/></g><g class="d"><path class="e" d="M19.9,920.9c-5.23,4.02-12.53,4.02-17.72-.09,5.23-4.05,12.53-3.99,17.72,.09h0Z"/><path class="e" d="M11.67,913.77c4.01,4.4,4.01,11.01-.08,15.36-4.04-4.39-3.98-11,.08-15.36h0Z"/></g><g class="b"><path class="e" d="M541.4,930.4c-5.23,4.02-12.53,4.02-17.72-.09,5.23-4.05,12.53-3.99,17.72,.09h0Z"/><path class="e" d="M533.17,923.28c4.01,4.4,4.01,11.01-.08,15.36-4.04-4.39-3.98-11,.08-15.36h0Z"/></g><g class="b"><path class="e" d="M515.25,915.5c5.23-4.02,12.53-4.02,17.72,.09-5.23,4.05-12.53,3.99-17.72-.09h0Z"/><path class="e" d="M523.55,908.46c4.01,4.4,4.01,11.01-.08,15.36-4.04-4.39-3.98-11,.08-15.36h0Z"/></g><g class="f"><path class="e" d="M312.07,44.26c-2.69,3.95-7.79,3.95-10.43-.05,2.68-3.98,7.79-3.92,10.43,.05h0Z"/><path class="e" d="M307.23,40.06c3.94,2.27,3.94,6.82-.05,9.04-3.96-2.26-3.92-6.82,.05-9.04h0Z"/></g><g class="f"><path class="e" d="M296.68,35.48c2.69-3.95,7.79-3.95,10.43,.05-2.68,3.98-7.79,3.92-10.43-.05h0Z"/><path class="e" d="M301.57,31.34c3.94,2.27,3.94,6.82-.05,9.04-3.96-2.26-3.92-6.82,.05-9.04h0Z"/></g><g class="d"><path class="e" d="M116.21,1412.26c-5.23,4.02-12.53,4.02-17.72-.09,5.23-4.05,12.53-3.99,17.72,.09h0Z"/><path class="e" d="M107.97,1405.13c4.01,4.4,4.01,11.01-.08,15.36-4.04-4.39-3.98-11,.08-15.36h0Z"/></g><g class="d"><path class="e" d="M90.06,1397.35c5.23-4.02,12.53-4.02,17.72,.09-5.23,4.05-12.53,3.99-17.72-.09h0Z"/><path class="e" d="M98.36,1390.3c4.01,4.4,4.01,11.01-.08,15.36-4.04-4.39-3.98-11,.08-15.36h0Z"/></g><g class="b"><path class="e" d="M722.56,307.93c-5.5,4.02-13.16,4.01-18.61-.09,5.49-4.05,13.15-3.98,18.61,.09h0Z"/><path class="e" d="M713.91,300.45c4.02,4.67,4,11.5-.08,16.13-4.04-4.67-3.98-11.5,.08-16.13h0Z"/></g><g class="b"><path class="e" d="M695.09,292.28c5.5-4.02,13.16-4.01,18.61,.09-5.49,4.05-13.15,3.98-18.61-.09h0Z"/><path class="e" d="M703.82,284.88c4.02,4.67,4,11.5-.08,16.13-4.04-4.67-3.98-11.5,.08-16.13h0Z"/></g><g class="f"><path class="e" d="M392.24,1432.05c5.23-4.02,12.53-4.02,17.72,.09-5.23,4.05-12.53,3.99-17.72-.09h0Z"/><path class="e" d="M400.54,1425c4.01,4.4,4.01,11.01-.08,15.36-4.04-4.39-3.98-11,.08-15.36h0Z"/></g><g class="d"><path class="e" d="M20.85,1143.5c5.23-4.02,12.53-4.02,17.72,.09-5.23,4.05-12.53,3.99-17.72-.09h0Z"/><path class="e" d="M29.16,1136.45c4.01,4.4,4.01,11.01-.08,15.36-4.04-4.39-3.98-11,.08-15.36h0Z"/></g><g class="d"><path class="e" d="M59.39,1143.29c-5.23,4.02-12.53,4.02-17.72-.09,5.23-4.05,12.53-3.99,17.72,.09h0Z"/><path class="e" d="M51.15,1136.16c4.01,4.4,4.01,11.01-.08,15.36-4.04-4.39-3.98-11,.08-15.36h0Z"/></g><g class="d"><path class="e" d="M38.91,1169.61c5.23-4.02,12.53-4.02,17.72,.09-5.23,4.05-12.53,3.99-17.72-.09h0Z"/><path class="e" d="M47.22,1162.56c4.01,4.4,4.01,11.01-.08,15.36-4.04-4.39-3.98-11,.08-15.36h0Z"/></g><g class="d"><path class="e" d="M156.25,900.24c12.02-3.99,28.47-3.94,40.45,.2-12.01,4.02-28.47,3.91-40.45-.2h0Z"/><path class="e" d="M175.05,916.52c-4-10.38-3.96-24.71,.18-35.06,4.03,10.38,3.93,24.71-.18,35.06h0Z"/></g><g class="d"><path class="e" d="M139.9,698.44c5.23-4.02,12.53-4.02,17.72,.09-5.23,4.05-12.53,3.99-17.72-.09h0Z"/><path class="e" d="M148.13,705.56c-4.01-4.4-4.01-11.01,.08-15.36,4.04,4.39,3.98,11-.08,15.36h0Z"/></g><g class="f"><path class="e" d="M252.33,795.96c12.02-3.99,28.47-3.94,40.45,.2-12.01,4.02-28.47,3.91-40.45-.2h0Z"/><path class="e" d="M271.13,812.23c-4-10.38-3.96-24.71,.18-35.06,4.03,10.38,3.93,24.71-.18,35.06h0Z"/></g><g class="f"><path class="e" d="M315.38,1081.8c12.02-3.99,28.47-3.94,40.45,.2-12.01,4.02-28.47,3.91-40.45-.2h0Z"/><path class="e" d="M334.17,1098.07c-4-10.38-3.96-24.71,.18-35.06,4.03,10.38,3.93,24.71-.18,35.06h0Z"/></g><g class="f"><path class="e" d="M247.25,660.49c5.23-4.02,12.53-4.02,17.72,.09-5.23,4.05-12.53,3.99-17.72-.09h0Z"/><path class="e" d="M255.48,667.62c-4.01-4.4-4.01-11.01,.08-15.36,4.04,4.39,3.98,11-.08,15.36h0Z"/></g><g class="c"><path class="e" d="M764.51,1379.53c5.23-4.02,12.53-4.02,17.72,.09-5.23,4.05-12.53,3.99-17.72-.09h0Z"/><path class="e" d="M772.75,1386.67c-4.01-4.4-4.01-11.01,.08-15.36,4.04,4.39,3.98,11-.08,15.36h0Z"/></g><g class="f"><path class="e" d="M345.63,797.74c5.23-4.02,12.53-4.02,17.72,.09-5.23,4.05-12.53,3.99-17.72-.09h0Z"/><path class="e" d="M353.87,804.87c-4.01-4.4-4.01-11.01,.08-15.36,4.04,4.39,3.98,11-.08,15.36h0Z"/></g><g class="f"><path class="e" d="M401.33,1038.14c5.23-4.02,12.53-4.02,17.72,.09-5.23,4.05-12.53,3.99-17.72-.09h0Z"/><path class="e" d="M409.57,1045.27c-4.01-4.4-4.01-11.01,.08-15.36,4.04,4.39,3.98,11-.08,15.36h0Z"/></g><g class="b"><path class="e" d="M493.22,920.06c5.23-4.02,12.53-4.02,17.72,.09-5.23,4.05-12.53,3.99-17.72-.09h0Z"/><path class="e" d="M501.46,927.2c-4.01-4.4-4.01-11.01,.08-15.36,4.04,4.39,3.98,11-.08,15.36h0Z"/></g><g class="f"><path class="e" d="M247.72,1093.36c5.23-4.02,12.53-4.02,17.72,.09-5.23,4.05-12.53,3.99-17.72-.09h0Z"/><path class="e" d="M255.95,1100.49c-4.01-4.4-4.01-11.01,.08-15.36,4.04,4.39,3.98,11-.08,15.36h0Z"/></g><g class="f"><path class="e" d="M431.54,720.91c5.23-4.02,12.53-4.02,17.72,.09-5.23,4.05-12.53,3.99-17.72-.09h0Z"/><path class="e" d="M439.77,728.05c-4.01-4.4-4.01-11.01,.08-15.36,4.04,4.39,3.98,11-.08,15.36h0Z"/></g><g class="c"><path class="e" d="M787.52,1401.04c-5.23,4.02-12.53,4.02-17.72-.09,5.23-4.05,12.53-3.99,17.72,.09h0Z"/><path class="e" d="M779.21,1408.09c-4.01-4.4-4.01-11.01,.08-15.36,4.04,4.39,3.98,11-.08,15.36h0Z"/></g><g class="f"><path class="e" d="M233.19,754.19c5.23-4.02,12.53-4.02,17.72,.09-5.23,4.05-12.53,3.99-17.72-.09h0Z"/><path class="e" d="M241.42,761.33c-4.01-4.4-4.01-11.01,.08-15.36,4.04,4.39,3.98,11-.08,15.36h0Z"/></g><g class="f"><path class="e" d="M271.72,754.78c-5.23,4.02-12.53,4.02-17.72-.09,5.23-4.05,12.53-3.99,17.72,.09h0Z"/><path class="e" d="M263.41,761.83c-4.01-4.4-4.01-11.01,.08-15.36,4.04,4.39,3.98,11-.08,15.36h0Z"/></g><g class="f"><path class="e" d="M245.41,769.43c5.23-4.02,12.53-4.02,17.72,.09-5.23,4.05-12.53,3.99-17.72-.09h0Z"/><path class="e" d="M253.65,776.56c-4.01-4.4-4.01-11.01,.08-15.36,4.04,4.39,3.98,11-.08,15.36h0Z"/></g><g class="c"><path class="e" d="M794.49,1192.49c5.23-4.02,12.53-4.02,17.72,.09-5.23,4.05-12.53,3.99-17.72-.09h0Z"/><path class="e" d="M802.79,1185.44c4.01,4.4,4.01,11.01-.08,15.36-4.04-4.39-3.98-11,.08-15.36h0Z"/></g><g class="b"><path class="e" d="M745.53,1095.01c-5.23,4.02-12.53,4.02-17.72-.09,5.23-4.05,12.53-3.99,17.72,.09h0Z"/><path class="e" d="M737.3,1087.87c4.01,4.4,4.01,11.01-.08,15.36-4.04-4.39-3.98-11,.08-15.36h0Z"/></g><g class="b"><path class="e" d="M719.38,1080.1c5.23-4.02,12.53-4.02,17.72,.09-5.23,4.05-12.53,3.99-17.72-.09h0Z"/><path class="e" d="M727.68,1073.05c4.01,4.4,4.01,11.01-.08,15.36-4.04-4.39-3.98-11,.08-15.36h0Z"/></g><g class="b"><path class="e" d="M697.36,1084.66c5.23-4.02,12.53-4.02,17.72,.09-5.23,4.05-12.53,3.99-17.72-.09h0Z"/><path class="e" d="M705.59,1091.79c-4.01-4.4-4.01-11.01,.08-15.36,4.04,4.39,3.98,11-.08,15.36h0Z"/></g><g class="b"><path class="e" d="M623.98,292.63c5.23-4.02,12.53-4.02,17.72,.09-5.23,4.05-12.53,3.99-17.72-.09h0Z"/><path class="e" d="M632.28,285.58c4.01,4.4,4.01,11.01-.08,15.36-4.04-4.39-3.98-11,.08-15.36h0Z"/></g><g class="b"><path class="e" d="M575.02,195.14c-5.23,4.02-12.53,4.02-17.72-.09,5.23-4.05,12.53-3.99,17.72,.09h0Z"/><path class="e" d="M566.79,188.01c4.01,4.4,4.01,11.01-.08,15.36-4.04-4.39-3.98-11,.08-15.36h0Z"/></g><g class="b"><path class="e" d="M548.87,180.23c5.23-4.02,12.53-4.02,17.72,.09-5.23,4.05-12.53,3.99-17.72-.09h0Z"/><path class="e" d="M557.17,173.18c4.01,4.4,4.01,11.01-.08,15.36-4.04-4.39-3.98-11,.08-15.36h0Z"/></g><g class="b"><path class="e" d="M526.85,184.79c5.23-4.02,12.53-4.02,17.72,.09-5.23,4.05-12.53,3.99-17.72-.09h0Z"/><path class="e" d="M535.08,191.92c-4.01-4.4-4.01-11.01,.08-15.36,4.04,4.39,3.98,11-.08,15.36h0Z"/></g><g class="c"><path class="e" d="M884.94,300.93c5.23-4.02,12.53-4.02,17.72,.09-5.23,4.05-12.53,3.99-17.72-.09h0Z"/><path class="e" d="M893.25,293.88c4.01,4.4,4.01,11.01-.08,15.36-4.04-4.39-3.98-11,.08-15.36h0Z"/></g><g class="c"><path class="e" d="M835.99,203.45c-5.23,4.02-12.53,4.02-17.72-.09,5.23-4.05,12.53-3.99,17.72,.09h0Z"/><path class="e" d="M827.75,196.32c4.01,4.4,4.01,11.01-.08,15.36-4.04-4.39-3.98-11,.08-15.36h0Z"/></g><g class="c"><path class="e" d="M809.83,188.54c5.23-4.02,12.53-4.02,17.72,.09-5.23,4.05-12.53,3.99-17.72-.09h0Z"/><path class="e" d="M818.14,181.49c4.01,4.4,4.01,11.01-.08,15.36-4.04-4.39-3.98-11,.08-15.36h0Z"/></g><g class="c"><path class="e" d="M787.81,193.1c5.23-4.02,12.53-4.02,17.72,.09-5.23,4.05-12.53,3.99-17.72-.09h0Z"/><path class="e" d="M796.04,200.23c-4.01-4.4-4.01-11.01,.08-15.36,4.04,4.39,3.98,11-.08,15.36h0Z"/></g></svg>