<?xml version="1.0" encoding="UTF-8"?><svg id="a" xmlns="http://www.w3.org/2000/svg" viewBox="0 0 1011.83 1440.36"><defs><style>.b{opacity:.65;}.c{opacity:.43;}.d{fill:#d7d4e4;}.e{opacity:.67;}</style></defs><g class="e"><path class="d" d="M892.67,950.18c-12.61,4.05-29.87,4.08-42.48,0,12.6-4.08,29.87-4.05,42.48,0h0Z"/><path class="d" d="M872.85,967.17c-4.05-10.9-4.08-25.92,0-36.82,4.08,10.9,4.05,25.91,0,36.82h0Z"/></g><g class="e"><path class="d" d="M992.08,26.99c-5.21,4.05-12.51,4.08-17.72,0,5.21-4.08,12.51-4.05,17.72,0h0Z"/><path class="d" d="M983.81,34.08c-4.03-4.38-4.06-10.99,0-15.36,4.06,4.37,4.03,10.98,0,15.36h0Z"/></g><g class="e"><path class="d" d="M772.83,170.89c-12,4.05-28.45,4.08-40.45,0,11.99-4.08,28.45-4.05,40.45,0h0Z"/><path class="d" d="M753.95,187.07c-4.05-10.36-4.08-24.69,0-35.06,4.08,10.36,4.05,24.69,0,35.06h0Z"/></g><g class="e"><path class="d" d="M889.18,802.5c5.48-4.05,13.14-4.08,18.61,0-5.47,4.08-13.13,4.05-18.61,0h0Z"/><path class="d" d="M897.87,809.94c-4.04-4.65-4.06-11.48,0-16.13,4.06,4.65,4.04,11.48,0,16.13h0Z"/></g><g class="e"><path class="d" d="M918.43,1026.67c5.48-4.05,13.14-4.08,18.61,0-5.47,4.08-13.13,4.05-18.61,0h0Z"/><path class="d" d="M927.11,1034.11c-4.04-4.65-4.06-11.48,0-16.13,4.06,4.65,4.04,11.48,0,16.13h0Z"/></g><g class="e"><path class="d" d="M993.22,946.12c5.48-4.05,13.14-4.08,18.61,0-5.47,4.08-13.13,4.05-18.61,0h0Z"/><path class="d" d="M1001.91,953.56c-4.04-4.65-4.06-11.48,0-16.13,4.06,4.65,4.04,11.48,0,16.13h0Z"/></g><g class="e"><path class="d" d="M788.91,1420.39c7.09-4.05,17.01-4.08,24.09,0-7.09,4.08-17,4.05-24.09,0h0Z"/><path class="d" d="M800.16,1430.03c-4.05-6.12-4.07-14.76,0-20.88,4.07,6.11,4.05,14.76,0,20.88h0Z"/></g><g class="b"><path class="d" d="M687.09,126.8c-5.21,4.05-12.51,4.08-17.72,0,5.21-4.08,12.51-4.05,17.72,0h0Z"/><path class="d" d="M678.82,133.89c-4.03-4.38-4.06-10.99,0-15.36,4.06,4.37,4.03,10.98,0,15.36h0Z"/></g><g class="b"><path class="d" d="M595.8,8.27c-5.21,4.05-12.51,4.08-17.72,0,5.21-4.08,12.51-4.05,17.72,0h0Z"/><path class="d" d="M587.52,15.36c-4.03-4.38-4.06-10.99,0-15.36,4.06,4.37,4.03,10.98,0,15.36h0Z"/></g><g class="e"><path class="d" d="M840.43,182.79c-5.21,4.05-12.51,4.08-17.72,0,5.21-4.08,12.51-4.05,17.72,0h0Z"/><path class="d" d="M832.16,189.88c-4.03-4.38-4.06-10.99,0-15.36,4.06,4.37,4.03,10.98,0,15.36h0Z"/></g><g class="b"><path class="d" d="M648.25,264c-5.21,4.05-12.51,4.08-17.72,0,5.21-4.08,12.51-4.05,17.72,0h0Z"/><path class="d" d="M639.98,271.09c-4.03-4.38-4.06-10.99,0-15.36,4.06,4.37,4.03,10.98,0,15.36h0Z"/></g><g class="e"><path class="d" d="M819.79,712.89c-5.48,4.05-13.14,4.08-18.61,0,5.47-4.08,13.13-4.05,18.61,0h0Z"/><path class="d" d="M811.11,720.34c-4.04-4.65-4.06-11.48,0-16.13,4.06,4.65,4.04,11.48,0,16.13h0Z"/></g><g class="e"><path class="d" d="M790.54,937.06c-5.48,4.05-13.14,4.08-18.61,0,5.47-4.08,13.13-4.05,18.61,0h0Z"/><path class="d" d="M781.86,944.5c-4.04-4.65-4.06-11.48,0-16.13,4.06,4.65,4.04,11.48,0,16.13h0Z"/></g><g class="b"><path class="d" d="M715.75,856.51c-5.48,4.05-13.14,4.08-18.61,0,5.47-4.08,13.13-4.05,18.61,0h0Z"/><path class="d" d="M707.06,863.95c-4.04-4.65-4.06-11.48,0-16.13,4.06,4.65,4.04,11.48,0,16.13h0Z"/></g><g class="c"><path class="d" d="M483.47,1228.27c-7.09,4.05-17.01,4.08-24.09,0,7.09-4.08,17-4.05,24.09,0h0Z"/><path class="d" d="M472.23,1237.91c-4.05-6.12-4.07-14.76,0-20.88,4.07,6.11,4.05,14.76,0,20.88h0Z"/></g><g class="b"><path class="d" d="M560.11,984.2c-5.48,4.05-13.14,4.08-18.61,0,5.47-4.08,13.13-4.05,18.61,0h0Z"/><path class="d" d="M551.42,991.65c-4.04-4.65-4.06-11.48,0-16.13,4.06,4.65,4.04,11.48,0,16.13h0Z"/></g><g class="b"><path class="d" d="M516.14,733.64c-5.48,4.05-13.14,4.08-18.61,0,5.47-4.08,13.13-4.05,18.61,0h0Z"/><path class="d" d="M507.46,741.08c-4.04-4.65-4.06-11.48,0-16.13,4.06,4.65,4.04,11.48,0,16.13h0Z"/></g><g class="b"><path class="d" d="M691.94,1304.39c-7.09,4.05-17.01,4.08-24.09,0,7.09-4.08,17-4.05,24.09,0h0Z"/><path class="d" d="M680.7,1314.03c-4.05-6.12-4.07-14.76,0-20.88,4.07,6.11,4.05,14.76,0,20.88h0Z"/></g><g class="b"><path class="d" d="M625.93,775.38c-5.48,4.05-13.14,4.08-18.61,0,5.47-4.08,13.13-4.05,18.61,0h0Z"/><path class="d" d="M617.24,782.83c-4.04-4.65-4.06-11.48,0-16.13,4.06,4.65,4.04,11.48,0,16.13h0Z"/></g><g class="c"><path class="d" d="M430.67,1414.79c-7.09,4.05-17.01,4.08-24.09,0,7.09-4.08,17-4.05,24.09,0h0Z"/><path class="d" d="M419.42,1424.43c-4.05-6.12-4.07-14.76,0-20.88,4.07,6.11,4.05,14.76,0,20.88h0Z"/></g><g class="e"><path class="d" d="M945.28,1241.32c2.67-3.96,7.77-3.99,10.43,0-2.66,3.99-7.77,3.96-10.43,0h0Z"/><path class="d" d="M950.15,1245.5c-3.95-2.25-3.97-6.8,0-9.04,3.97,2.24,3.95,6.8,0,9.04h0Z"/></g><g class="b"><path class="d" d="M697.69,361.25c5.21-4.05,12.51-4.08,17.72,0-5.21,4.08-12.51,4.05-17.72,0h0Z"/><path class="d" d="M705.96,368.33c-4.03-4.38-4.06-10.99,0-15.36,4.06,4.37,4.03,10.98,0,15.36h0Z"/></g><g class="b"><path class="d" d="M723.92,376.02c-5.21,4.05-12.51,4.08-17.72,0,5.21-4.08,12.51-4.05,17.72,0h0Z"/><path class="d" d="M715.65,383.11c-4.03-4.38-4.06-10.99,0-15.36,4.06,4.37,4.03,10.98,0,15.36h0Z"/></g><g class="e"><path class="d" d="M931.44,1246.24c2.67-3.96,7.77-3.99,10.43,0-2.66,3.99-7.77,3.96-10.43,0h0Z"/><path class="d" d="M936.31,1250.41c-3.95-2.25-3.97-6.8,0-9.04,3.97,2.24,3.95,6.8,0,9.04h0Z"/></g><g class="e"><path class="d" d="M946.88,1254.94c-2.67,3.96-7.77,3.99-10.43,0,2.66-3.99,7.77-3.96,10.43,0h0Z"/><path class="d" d="M942.01,1259.11c-3.95-2.25-3.97-6.8,0-9.04,3.97,2.24,3.95,6.8,0,9.04h0Z"/></g><g class="b"><path class="d" d="M519.64,984.62c5.48-4.05,13.14-4.08,18.61,0-5.47,4.08-13.13,4.05-18.61,0h0Z"/><path class="d" d="M528.33,992.06c-4.04-4.65-4.06-11.48,0-16.13,4.06,4.65,4.04,11.48,0,16.13h0Z"/></g><g class="b"><path class="d" d="M547.19,1000.13c-5.48,4.05-13.14,4.08-18.61,0,5.47-4.08,13.13-4.05,18.61,0h0Z"/><path class="d" d="M538.5,1007.58c-4.04-4.65-4.06-11.48,0-16.13,4.06,4.65,4.04,11.48,0,16.13h0Z"/></g><g class="e"><path class="d" d="M987.43,494.25c-12,4.05-28.45,4.08-40.45,0,11.99-4.08,28.45-4.05,40.45,0h0Z"/><path class="d" d="M968.55,478.07c4.05,10.36,4.08,24.69,0,35.06-4.08-10.36-4.05-24.69,0-35.06h0Z"/></g><g class="e"><path class="d" d="M922.96,208.73c-12,4.05-28.45,4.08-40.45,0,11.99-4.08,28.45-4.05,40.45,0h0Z"/><path class="d" d="M904.08,192.55c4.05,10.36,4.08,24.69,0,35.06-4.08-10.36-4.05-24.69,0-35.06h0Z"/></g><g class="e"><path class="d" d="M993.19,629.69c-5.21,4.05-12.51,4.08-17.72,0,5.21-4.08,12.51-4.05,17.72,0h0Z"/><path class="d" d="M984.92,622.6c4.03,4.38,4.06,10.99,0,15.36-4.06-4.37-4.03-10.98,0-15.36h0Z"/></g><g class="e"><path class="d" d="M894.12,492.94c-5.21,4.05-12.51,4.08-17.72,0,5.21-4.08,12.51-4.05,17.72,0h0Z"/><path class="d" d="M885.85,485.85c4.03,4.38,4.06,10.99,0,15.36-4.06-4.37-4.03-10.98,0-15.36h0Z"/></g><g class="e"><path class="d" d="M837.22,252.82c-5.21,4.05-12.51,4.08-17.72,0,5.21-4.08,12.51-4.05,17.72,0h0Z"/><path class="d" d="M828.95,245.73c4.03,4.38,4.06,10.99,0,15.36-4.06-4.37-4.03-10.98,0-15.36h0Z"/></g><g class="b"><path class="d" d="M745.92,371.35c-5.21,4.05-12.51,4.08-17.72,0,5.21-4.08,12.51-4.05,17.72,0h0Z"/><path class="d" d="M737.65,364.26c4.03,4.38,4.06,10.99,0,15.36-4.06-4.37-4.03-10.98,0-15.36h0Z"/></g><g class="e"><path class="d" d="M990.56,196.83c-5.21,4.05-12.51,4.08-17.72,0,5.21-4.08,12.51-4.05,17.72,0h0Z"/><path class="d" d="M982.29,189.74c4.03,4.38,4.06,10.99,0,15.36-4.06-4.37-4.03-10.98,0-15.36h0Z"/></g><g class="e"><path class="d" d="M808.6,570.19c-5.21,4.05-12.51,4.08-17.72,0,5.21-4.08,12.51-4.05,17.72,0h0Z"/><path class="d" d="M800.33,563.1c4.03,4.38,4.06,10.99,0,15.36-4.06-4.37-4.03-10.98,0-15.36h0Z"/></g><g class="e"><path class="d" d="M1006.78,535.92c-5.21,4.05-12.51,4.08-17.72,0,5.21-4.08,12.51-4.05,17.72,0h0Z"/><path class="d" d="M998.51,528.83c4.03,4.38,4.06,10.99,0,15.36-4.06-4.37-4.03-10.98,0-15.36h0Z"/></g><g class="e"><path class="d" d="M968.25,535.53c5.21-4.05,12.51-4.08,17.72,0-5.21,4.08-12.51,4.05-17.72,0h0Z"/><path class="d" d="M976.52,528.44c4.03,4.38,4.06,10.99,0,15.36-4.06-4.37-4.03-10.98,0-15.36h0Z"/></g><g class="e"><path class="d" d="M994.48,520.75c-5.21,4.05-12.51,4.08-17.72,0,5.21-4.08,12.51-4.05,17.72,0h0Z"/><path class="d" d="M986.21,513.66c4.03,4.38,4.06,10.99,0,15.36-4.06-4.37-4.03-10.98,0-15.36h0Z"/></g><g class="c"><path class="d" d="M443.3,100.43c-5.21,4.05-12.51,4.08-17.72,0,5.21-4.08,12.51-4.05,17.72,0h0Z"/><path class="d" d="M435.03,107.52c-4.03-4.38-4.06-10.99,0-15.36,4.06,4.37,4.03,10.98,0,15.36h0Z"/></g><g class="b"><path class="d" d="M492.74,197.67c5.21-4.05,12.51-4.08,17.72,0-5.21,4.08-12.51,4.05-17.72,0h0Z"/><path class="d" d="M501.01,204.76c-4.03-4.38-4.06-10.99,0-15.36,4.06,4.37,4.03,10.98,0,15.36h0Z"/></g><g class="b"><path class="d" d="M518.97,212.45c-5.21,4.05-12.51,4.08-17.72,0,5.21-4.08,12.51-4.05,17.72,0h0Z"/><path class="d" d="M510.7,219.54c-4.03-4.38-4.06-10.99,0-15.36,4.06,4.37,4.03,10.98,0,15.36h0Z"/></g><g class="b"><path class="d" d="M540.97,207.78c-5.21,4.05-12.51,4.08-17.72,0,5.21-4.08,12.51-4.05,17.72,0h0Z"/><path class="d" d="M532.7,200.69c4.03,4.38,4.06,10.99,0,15.36-4.06-4.37-4.03-10.98,0-15.36h0Z"/></g><g class="b"><path class="d" d="M618.3,999.43c-5.21,4.05-12.51,4.08-17.72,0,5.21-4.08,12.51-4.05,17.72,0h0Z"/><path class="d" d="M610.03,1006.52c-4.03-4.38-4.06-10.99,0-15.36,4.06,4.37,4.03,10.98,0,15.36h0Z"/></g><g class="b"><path class="d" d="M667.74,1096.67c5.21-4.05,12.51-4.08,17.72,0-5.21,4.08-12.51,4.05-17.72,0h0Z"/><path class="d" d="M676.01,1103.76c-4.03-4.38-4.06-10.99,0-15.36,4.06,4.37,4.03,10.98,0,15.36h0Z"/></g><g class="b"><path class="d" d="M693.97,1111.45c-5.21,4.05-12.51,4.08-17.72,0,5.21-4.08,12.51-4.05,17.72,0h0Z"/><path class="d" d="M685.7,1118.54c-4.03-4.38-4.06-10.99,0-15.36,4.06,4.37,4.03,10.98,0,15.36h0Z"/></g><g class="b"><path class="d" d="M715.97,1106.78c-5.21,4.05-12.51,4.08-17.72,0,5.21-4.08,12.51-4.05,17.72,0h0Z"/><path class="d" d="M707.7,1099.69c4.03,4.38,4.06,10.99,0,15.36-4.06-4.37-4.03-10.98,0-15.36h0Z"/></g><g class="b"><path class="d" d="M520.3,1301.43c-5.21,4.05-12.51,4.08-17.72,0,5.21-4.08,12.51-4.05,17.72,0h0Z"/><path class="d" d="M512.03,1308.52c-4.03-4.38-4.06-10.99,0-15.36,4.06,4.37,4.03,10.98,0,15.36h0Z"/></g><g class="b"><path class="d" d="M569.74,1398.67c5.21-4.05,12.51-4.08,17.72,0-5.21,4.08-12.51,4.05-17.72,0h0Z"/><path class="d" d="M578.01,1405.76c-4.03-4.38-4.06-10.99,0-15.36,4.06,4.37,4.03,10.98,0,15.36h0Z"/></g><g class="b"><path class="d" d="M595.97,1413.45c-5.21,4.05-12.51,4.08-17.72,0,5.21-4.08,12.51-4.05,17.72,0h0Z"/><path class="d" d="M587.7,1420.54c-4.03-4.38-4.06-10.99,0-15.36,4.06,4.37,4.03,10.98,0,15.36h0Z"/></g><g class="b"><path class="d" d="M617.97,1408.78c-5.21,4.05-12.51,4.08-17.72,0,5.21-4.08,12.51-4.05,17.72,0h0Z"/><path class="d" d="M609.7,1401.69c4.03,4.38,4.06,10.99,0,15.36-4.06-4.37-4.03-10.98,0-15.36h0Z"/></g><g class="c"><path class="d" d="M357.3,992.43c-5.21,4.05-12.51,4.08-17.72,0,5.21-4.08,12.51-4.05,17.72,0h0Z"/><path class="d" d="M349.03,999.52c-4.03-4.38-4.06-10.99,0-15.36,4.06,4.37,4.03,10.98,0,15.36h0Z"/></g><g class="c"><path class="d" d="M406.74,1089.67c5.21-4.05,12.51-4.08,17.72,0-5.21,4.08-12.51,4.05-17.72,0h0Z"/><path class="d" d="M415.01,1096.76c-4.03-4.38-4.06-10.99,0-15.36,4.06,4.37,4.03,10.98,0,15.36h0Z"/></g><g class="c"><path class="d" d="M432.97,1104.45c-5.21,4.05-12.51,4.08-17.72,0,5.21-4.08,12.51-4.05,17.72,0h0Z"/><path class="d" d="M424.7,1111.54c-4.03-4.38-4.06-10.99,0-15.36,4.06,4.37,4.03,10.98,0,15.36h0Z"/></g><g class="c"><path class="d" d="M454.97,1099.78c-5.21,4.05-12.51,4.08-17.72,0,5.21-4.08,12.51-4.05,17.72,0h0Z"/><path class="d" d="M446.7,1092.69c4.03,4.38,4.06,10.99,0,15.36-4.06-4.37-4.03-10.98,0-15.36h0Z"/></g><g class="e"><path class="d" d="M110.22,1300.35c12.02-3.99,28.47-3.94,40.45,.2-12.01,4.02-28.47,3.91-40.45-.2h0Z"/><path class="d" d="M129.18,1284.26c4,10.38,3.96,24.71-.18,35.06-4.03-10.38-3.93-24.71,.18-35.06h0Z"/></g><g class="e"><path class="d" d="M155.2,340.51c12.63-3.99,29.89-3.93,42.48,.21-12.62,4.02-29.89,3.9-42.48-.21h0Z"/><path class="d" d="M175.1,323.62c4,10.92,3.95,25.94-.18,36.82-4.03-10.92-3.92-25.93,.18-36.82h0Z"/></g><g class="e"><path class="d" d="M51.18,1263.19c5.23-4.02,12.53-4.02,17.72,.09-5.23,4.05-12.53,3.99-17.72-.09h0Z"/><path class="d" d="M59.49,1256.14c4.01,4.4,4.01,11.01-.08,15.36-4.04-4.39-3.98-11,.08-15.36h0Z"/></g><g class="e"><path class="d" d="M205.25,1405.59c12.02-3.99,28.47-3.94,40.45,.2-12.01,4.02-28.47,3.91-40.45-.2h0Z"/><path class="d" d="M224.2,1389.51c4,10.38,3.96,24.71-.18,35.06-4.03-10.38-3.93-24.71,.18-35.06h0Z"/></g><g class="e"><path class="d" d="M271.15,1120.39c12.02-3.99,28.47-3.94,40.45,.2-12.01,4.02-28.47,3.91-40.45-.2h0Z"/><path class="d" d="M290.11,1104.3c4,10.38,3.96,24.71-.18,35.06-4.03-10.38-3.93-24.71,.18-35.06h0Z"/></g><g class="e"><path class="d" d="M0,1007.2c5.23-4.02,12.53-4.02,17.72,.09-5.23,4.05-12.53,3.99-17.72-.09H0Z"/><path class="d" d="M8.31,1000.15c4.01,4.4,4.01,11.01-.08,15.36-4.04-4.39-3.98-11,.08-15.36h0Z"/></g><g class="e"><path class="d" d="M157.95,488.2c-5.5,4.02-13.16,4.01-18.61-.09,5.49-4.05,13.15-3.98,18.61,.09h0Z"/><path class="d" d="M149.3,480.72c4.02,4.67,4,11.5-.08,16.13-4.04-4.67-3.98-11.5,.08-16.13h0Z"/></g><g class="e"><path class="d" d="M129.82,263.89c-5.5,4.02-13.16,4.01-18.61-.09,5.49-4.05,13.15-3.98,18.61,.09h0Z"/><path class="d" d="M121.18,256.41c4.02,4.67,4,11.5-.08,16.13-4.04-4.67-3.98-11.5,.08-16.13h0Z"/></g><g class="e"><path class="d" d="M54.63,344.07c-5.5,4.02-13.16,4.01-18.61-.09,5.49-4.05,13.15-3.98,18.61,.09h0Z"/><path class="d" d="M45.98,336.58c4.02,4.67,4,11.5-.08,16.13-4.04-4.67-3.98-11.5,.08-16.13h0Z"/></g><g class="e"><path class="d" d="M227.73,1327.69c5.23-4.02,12.53-4.02,17.72,.09-5.23,4.05-12.53,3.99-17.72-.09h0Z"/><path class="d" d="M236.04,1320.64c4.01,4.4,4.01,11.01-.08,15.36-4.04-4.39-3.98-11,.08-15.36h0Z"/></g><g class="b"><path class="d" d="M298.57,1404.74c5.23-4.02,12.53-4.02,17.72,.09-5.23,4.05-12.53,3.99-17.72-.09h0Z"/><path class="d" d="M306.87,1397.69c4.01,4.4,4.01,11.01-.08,15.36-4.04-4.39-3.98-11,.08-15.36h0Z"/></g><g class="b"><path class="d" d="M356.67,1164.9c5.23-4.02,12.53-4.02,17.72,.09-5.23,4.05-12.53,3.99-17.72-.09h0Z"/><path class="d" d="M364.97,1157.86c4.01,4.4,4.01,11.01-.08,15.36-4.04-4.39-3.98-11,.08-15.36h0Z"/></g><g class="b"><path class="d" d="M447.36,1283.89c5.23-4.02,12.53-4.02,17.72,.09-5.23,4.05-12.53,3.99-17.72-.09h0Z"/><path class="d" d="M455.68,1276.84c4.01,4.4,4.01,11.01-.08,15.36-4.04-4.39-3.98-11,.08-15.36h0Z"/></g><g class="e"><path class="d" d="M203.61,1108.15c5.23-4.02,12.53-4.02,17.72,.09-5.23,4.05-12.53,3.99-17.72-.09h0Z"/><path class="d" d="M211.91,1101.1c4.01,4.4,4.01,11.01-.08,15.36-4.04-4.39-3.98-11,.08-15.36h0Z"/></g><g class="b"><path class="d" d="M396.19,1027.9c5.23-4.02,12.53-4.02,17.72,.09-5.23,4.05-12.53,3.99-17.72-.09h0Z"/><path class="d" d="M404.5,1020.85c4.01,4.4,4.01,11.01-.08,15.36-4.04-4.39-3.98-11,.08-15.36h0Z"/></g><g class="e"><path class="d" d="M226.89,578.16c5.5-4.02,13.16-4.01,18.61,.09-5.49,4.05-13.15,3.98-18.61-.09h0Z"/><path class="d" d="M235.61,570.75c4.02,4.67,4,11.5-.08,16.13-4.04-4.67-3.98-11.5,.08-16.13h0Z"/></g><g class="e"><path class="d" d="M257.26,354.14c5.5-4.02,13.16-4.01,18.61,.09-5.49,4.05-13.15,3.98-18.61-.09h0Z"/><path class="d" d="M265.98,346.74c4.02,4.67,4,11.5-.08,16.13-4.04-4.67-3.98-11.5,.08-16.13h0Z"/></g><g class="b"><path class="d" d="M331.65,435.06c5.5-4.02,13.16-4.01,18.61,.09-5.49,4.05-13.15,3.98-18.61-.09h0Z"/><path class="d" d="M340.38,427.66c4.02,4.67,4,11.5-.08,16.13-4.04-4.67-3.98-11.5,.08-16.13h0Z"/></g><g class="c"><path class="d" d="M565.78,64.47c7.11-4.01,17.03-3.99,24.09,.12-7.11,4.04-17.02,3.97-24.09-.12h0Z"/><path class="d" d="M577.07,54.88c4.02,6.14,4,14.78-.1,20.88-4.04-6.13-3.98-14.78,.1-20.88h0Z"/></g><g class="b"><path class="d" d="M487.93,308.15c5.5-4.02,13.16-4.01,18.61,.09-5.49,4.05-13.15,3.98-18.61-.09h0Z"/><path class="d" d="M496.65,300.74c4.02,4.67,4,11.5-.08,16.13-4.04-4.67-3.98-11.5,.08-16.13h0Z"/></g><g class="b"><path class="d" d="M530.64,558.93c5.5-4.02,13.16-4.01,18.61,.09-5.49,4.05-13.15,3.98-18.61-.09h0Z"/><path class="d" d="M539.36,551.53c4.02,4.67,4,11.5-.08,16.13-4.04-4.67-3.98-11.5,.08-16.13h0Z"/></g><g class="b"><path class="d" d="M421.06,516.64c5.5-4.02,13.16-4.01,18.61,.09-5.49,4.05-13.15,3.98-18.61-.09h0Z"/><path class="d" d="M429.79,509.23c4.02,4.67,4,11.5-.08,16.13-4.04-4.67-3.98-11.5,.08-16.13h0Z"/></g><g class="e"><path class="d" d="M250.95,1306.41c-5.23,4.02-12.53,4.02-17.72-.09,5.23-4.05,12.53-3.99,17.72,.09h0Z"/><path class="d" d="M242.71,1299.28c4.01,4.4,4.01,11.01-.08,15.36-4.04-4.39-3.98-11,.08-15.36h0Z"/></g><g class="e"><path class="d" d="M104.04,49.11c-2.69,3.95-7.79,3.95-10.43-.05,2.68-3.98,7.79-3.92,10.43,.05h0Z"/><path class="d" d="M99.2,44.91c3.94,2.27,3.94,6.82-.05,9.04-3.96-2.26-3.92-6.82,.05-9.04h0Z"/></g><g class="e"><path class="d" d="M34.96,578.73c-5.5,4.02-13.16,4.01-18.61-.09,5.49-4.05,13.15-3.98,18.61,.09h0Z"/><path class="d" d="M26.31,571.25c4.02,4.67,4,11.5-.08,16.13-4.04-4.67-3.98-11.5,.08-16.13h0Z"/></g><g class="b"><path class="d" d="M347.24,930.4c-5.23,4.02-12.53,4.02-17.72-.09,5.23-4.05,12.53-3.99,17.72,.09h0Z"/><path class="d" d="M339,923.28c4.01,4.4,4.01,11.01-.08,15.36-4.04-4.39-3.98-11,.08-15.36h0Z"/></g><g class="b"><path class="d" d="M321.08,915.5c5.23-4.02,12.53-4.02,17.72,.09-5.23,4.05-12.53,3.99-17.72-.09h0Z"/><path class="d" d="M329.39,908.46c4.01,4.4,4.01,11.01-.08,15.36-4.04-4.39-3.98-11,.08-15.36h0Z"/></g><g class="e"><path class="d" d="M117.91,44.26c-2.69,3.95-7.79,3.95-10.43-.05,2.68-3.98,7.79-3.92,10.43,.05h0Z"/><path class="d" d="M113.06,40.06c3.94,2.27,3.94,6.82-.05,9.04-3.96-2.26-3.92-6.82,.05-9.04h0Z"/></g><g class="e"><path class="d" d="M102.51,35.48c2.69-3.95,7.79-3.95,10.43,.05-2.68,3.98-7.79,3.92-10.43-.05h0Z"/><path class="d" d="M107.4,31.34c3.94,2.27,3.94,6.82-.05,9.04-3.96-2.26-3.92-6.82,.05-9.04h0Z"/></g><g class="b"><path class="d" d="M528.4,307.93c-5.5,4.02-13.16,4.01-18.61-.09,5.49-4.05,13.15-3.98,18.61,.09h0Z"/><path class="d" d="M519.74,300.45c4.02,4.67,4,11.5-.08,16.13-4.04-4.67-3.98-11.5,.08-16.13h0Z"/></g><g class="b"><path class="d" d="M500.93,292.28c5.5-4.02,13.16-4.01,18.61,.09-5.49,4.05-13.15,3.98-18.61-.09h0Z"/><path class="d" d="M509.65,284.88c4.02,4.67,4,11.5-.08,16.13-4.04-4.67-3.98-11.5,.08-16.13h0Z"/></g><g class="e"><path class="d" d="M198.07,1432.05c5.23-4.02,12.53-4.02,17.72,.09-5.23,4.05-12.53,3.99-17.72-.09h0Z"/><path class="d" d="M206.38,1425c4.01,4.4,4.01,11.01-.08,15.36-4.04-4.39-3.98-11,.08-15.36h0Z"/></g><g class="e"><path class="d" d="M58.17,795.96c12.02-3.99,28.47-3.94,40.45,.2-12.01,4.02-28.47,3.91-40.45-.2h0Z"/><path class="d" d="M76.96,812.23c-4-10.38-3.96-24.71,.18-35.06,4.03,10.38,3.93,24.71-.18,35.06h0Z"/></g><g class="e"><path class="d" d="M121.21,1081.8c12.02-3.99,28.47-3.94,40.45,.2-12.01,4.02-28.47,3.91-40.45-.2h0Z"/><path class="d" d="M140.01,1098.07c-4-10.38-3.96-24.71,.18-35.06,4.03,10.38,3.93,24.71-.18,35.06h0Z"/></g><g class="e"><path class="d" d="M53.08,660.49c5.23-4.02,12.53-4.02,17.72,.09-5.23,4.05-12.53,3.99-17.72-.09h0Z"/><path class="d" d="M61.32,667.62c-4.01-4.4-4.01-11.01,.08-15.36,4.04,4.39,3.98,11-.08,15.36h0Z"/></g><g class="c"><path class="d" d="M570.35,1379.53c5.23-4.02,12.53-4.02,17.72,.09-5.23,4.05-12.53,3.99-17.72-.09h0Z"/><path class="d" d="M578.58,1386.67c-4.01-4.4-4.01-11.01,.08-15.36,4.04,4.39,3.98,11-.08,15.36h0Z"/></g><g class="e"><path class="d" d="M151.47,797.74c5.23-4.02,12.53-4.02,17.72,.09-5.23,4.05-12.53,3.99-17.72-.09h0Z"/><path class="d" d="M159.7,804.87c-4.01-4.4-4.01-11.01,.08-15.36,4.04,4.39,3.98,11-.08,15.36h0Z"/></g><g class="e"><path class="d" d="M207.17,1038.14c5.23-4.02,12.53-4.02,17.72,.09-5.23,4.05-12.53,3.99-17.72-.09h0Z"/><path class="d" d="M215.4,1045.27c-4.01-4.4-4.01-11.01,.08-15.36,4.04,4.39,3.98,11-.08,15.36h0Z"/></g><g class="b"><path class="d" d="M299.06,920.06c5.23-4.02,12.53-4.02,17.72,.09-5.23,4.05-12.53,3.99-17.72-.09h0Z"/><path class="d" d="M307.29,927.2c-4.01-4.4-4.01-11.01,.08-15.36,4.04,4.39,3.98,11-.08,15.36h0Z"/></g><g class="e"><path class="d" d="M53.55,1093.36c5.23-4.02,12.53-4.02,17.72,.09-5.23,4.05-12.53,3.99-17.72-.09h0Z"/><path class="d" d="M61.79,1100.49c-4.01-4.4-4.01-11.01,.08-15.36,4.04,4.39,3.98,11-.08,15.36h0Z"/></g><g class="e"><path class="d" d="M237.37,720.91c5.23-4.02,12.53-4.02,17.72,.09-5.23,4.05-12.53,3.99-17.72-.09h0Z"/><path class="d" d="M245.61,728.05c-4.01-4.4-4.01-11.01,.08-15.36,4.04,4.39,3.98,11-.08,15.36h0Z"/></g><g class="c"><path class="d" d="M593.35,1401.04c-5.23,4.02-12.53,4.02-17.72-.09,5.23-4.05,12.53-3.99,17.72,.09h0Z"/><path class="d" d="M585.05,1408.09c-4.01-4.4-4.01-11.01,.08-15.36,4.04,4.39,3.98,11-.08,15.36h0Z"/></g><g class="e"><path class="d" d="M39.02,754.19c5.23-4.02,12.53-4.02,17.72,.09-5.23,4.05-12.53,3.99-17.72-.09h0Z"/><path class="d" d="M47.26,761.33c-4.01-4.4-4.01-11.01,.08-15.36,4.04,4.39,3.98,11-.08,15.36h0Z"/></g><g class="e"><path class="d" d="M77.55,754.78c-5.23,4.02-12.53,4.02-17.72-.09,5.23-4.05,12.53-3.99,17.72,.09h0Z"/><path class="d" d="M69.25,761.83c-4.01-4.4-4.01-11.01,.08-15.36,4.04,4.39,3.98,11-.08,15.36h0Z"/></g><g class="e"><path class="d" d="M51.25,769.43c5.23-4.02,12.53-4.02,17.72,.09-5.23,4.05-12.53,3.99-17.72-.09h0Z"/><path class="d" d="M59.48,776.56c-4.01-4.4-4.01-11.01,.08-15.36,4.04,4.39,3.98,11-.08,15.36h0Z"/></g><g class="c"><path class="d" d="M600.32,1192.49c5.23-4.02,12.53-4.02,17.72,.09-5.23,4.05-12.53,3.99-17.72-.09h0Z"/><path class="d" d="M608.63,1185.44c4.01,4.4,4.01,11.01-.08,15.36-4.04-4.39-3.98-11,.08-15.36h0Z"/></g><g class="b"><path class="d" d="M551.37,1095.01c-5.23,4.02-12.53,4.02-17.72-.09,5.23-4.05,12.53-3.99,17.72,.09h0Z"/><path class="d" d="M543.13,1087.87c4.01,4.4,4.01,11.01-.08,15.36-4.04-4.39-3.98-11,.08-15.36h0Z"/></g><g class="b"><path class="d" d="M525.21,1080.1c5.23-4.02,12.53-4.02,17.72,.09-5.23,4.05-12.53,3.99-17.72-.09h0Z"/><path class="d" d="M533.52,1073.05c4.01,4.4,4.01,11.01-.08,15.36-4.04-4.39-3.98-11,.08-15.36h0Z"/></g><g class="b"><path class="d" d="M503.19,1084.66c5.23-4.02,12.53-4.02,17.72,.09-5.23,4.05-12.53,3.99-17.72-.09h0Z"/><path class="d" d="M511.42,1091.79c-4.01-4.4-4.01-11.01,.08-15.36,4.04,4.39,3.98,11-.08,15.36h0Z"/></g><g class="b"><path class="d" d="M429.81,292.63c5.23-4.02,12.53-4.02,17.72,.09-5.23,4.05-12.53,3.99-17.72-.09h0Z"/><path class="d" d="M438.12,285.58c4.01,4.4,4.01,11.01-.08,15.36-4.04-4.39-3.98-11,.08-15.36h0Z"/></g><g class="b"><path class="d" d="M380.86,195.14c-5.23,4.02-12.53,4.02-17.72-.09,5.23-4.05,12.53-3.99,17.72,.09h0Z"/><path class="d" d="M372.62,188.01c4.01,4.4,4.01,11.01-.08,15.36-4.04-4.39-3.98-11,.08-15.36h0Z"/></g><g class="b"><path class="d" d="M354.7,180.23c5.23-4.02,12.53-4.02,17.72,.09-5.23,4.05-12.53,3.99-17.72-.09h0Z"/><path class="d" d="M363.01,173.18c4.01,4.4,4.01,11.01-.08,15.36-4.04-4.39-3.98-11,.08-15.36h0Z"/></g><g class="b"><path class="d" d="M332.68,184.79c5.23-4.02,12.53-4.02,17.72,.09-5.23,4.05-12.53,3.99-17.72-.09h0Z"/><path class="d" d="M340.91,191.92c-4.01-4.4-4.01-11.01,.08-15.36,4.04,4.39,3.98,11-.08,15.36h0Z"/></g><g class="c"><path class="d" d="M690.77,300.93c5.23-4.02,12.53-4.02,17.72,.09-5.23,4.05-12.53,3.99-17.72-.09h0Z"/><path class="d" d="M699.08,293.88c4.01,4.4,4.01,11.01-.08,15.36-4.04-4.39-3.98-11,.08-15.36h0Z"/></g><g class="c"><path class="d" d="M641.82,203.45c-5.23,4.02-12.53,4.02-17.72-.09,5.23-4.05,12.53-3.99,17.72,.09h0Z"/><path class="d" d="M633.59,196.32c4.01,4.4,4.01,11.01-.08,15.36-4.04-4.39-3.98-11,.08-15.36h0Z"/></g><g class="c"><path class="d" d="M615.66,188.54c5.23-4.02,12.53-4.02,17.72,.09-5.23,4.05-12.53,3.99-17.72-.09h0Z"/><path class="d" d="M623.97,181.49c4.01,4.4,4.01,11.01-.08,15.36-4.04-4.39-3.98-11,.08-15.36h0Z"/></g><g class="c"><path class="d" d="M593.64,193.1c5.23-4.02,12.53-4.02,17.72,.09-5.23,4.05-12.53,3.99-17.72-.09h0Z"/><path class="d" d="M601.88,200.23c-4.01-4.4-4.01-11.01,.08-15.36,4.04,4.39,3.98,11-.08,15.36h0Z"/></g></svg>