<?xml version="1.0" encoding="UTF-8"?>
<svg xmlns="http://www.w3.org/2000/svg" xmlns:xlink="http://www.w3.org/1999/xlink" width="534px" height="300px" viewBox="0 0 533 300" version="1.1">
<defs>
<linearGradient id="linear0" gradientUnits="userSpaceOnUse" x1="1036.4374" y1="432.3841" x2="902.7354" y2="434.6599" gradientTransform="matrix(0.277604,0,0,-0.277778,0,300)">
<stop offset="0" style="stop-color:rgb(52.156863%,40%,69.803922%);stop-opacity:1;"/>
<stop offset="0.0711147" style="stop-color:rgb(53.72549%,41.568627%,70.588235%);stop-opacity:1;"/>
<stop offset="0.1485" style="stop-color:rgb(57.647059%,47.058824%,73.333333%);stop-opacity:1;"/>
<stop offset="0.2288" style="stop-color:rgb(64.705882%,55.294118%,78.039216%);stop-opacity:1;"/>
<stop offset="0.3111" style="stop-color:rgb(74.509804%,67.45098%,84.313725%);stop-opacity:1;"/>
<stop offset="0.3942" style="stop-color:rgb(86.666667%,82.352941%,92.54902%);stop-opacity:1;"/>
<stop offset="0.4218" style="stop-color:rgb(91.372549%,88.235294%,95.686275%);stop-opacity:1;"/>
<stop offset="0.5228" style="stop-color:rgb(86.666667%,82.352941%,92.54902%);stop-opacity:1;"/>
<stop offset="0.7181" style="stop-color:rgb(73.72549%,66.666667%,83.921569%);stop-opacity:1;"/>
<stop offset="0.9859" style="stop-color:rgb(53.333333%,41.568627%,70.588235%);stop-opacity:1;"/>
<stop offset="1" style="stop-color:rgb(52.156863%,40%,69.803922%);stop-opacity:1;"/>
</linearGradient>
<linearGradient id="linear1" gradientUnits="userSpaceOnUse" x1="953.5328" y1="559.5625" x2="971.8923" y2="550.0055" gradientTransform="matrix(0.277604,0,0,-0.277778,0,300)">
<stop offset="0.0388841" style="stop-color:rgb(36.078431%,12.54902%,76.078431%);stop-opacity:1;"/>
<stop offset="0.2448" style="stop-color:rgb(56.470588%,32.941176%,90.588235%);stop-opacity:1;"/>
<stop offset="0.3599" style="stop-color:rgb(49.803922%,27.058824%,84.705882%);stop-opacity:1;"/>
<stop offset="0.5086" style="stop-color:rgb(44.313725%,21.960784%,79.607843%);stop-opacity:1;"/>
<stop offset="0.6908" style="stop-color:rgb(40.784314%,18.823529%,76.470588%);stop-opacity:1;"/>
<stop offset="1" style="stop-color:rgb(40%,18.039216%,75.686275%);stop-opacity:1;"/>
</linearGradient>
<linearGradient id="linear2" gradientUnits="userSpaceOnUse" x1="924.8392" y1="433.4608" x2="933.8517" y2="441.1408" gradientTransform="matrix(0.277604,0,0,-0.277778,0,300)">
<stop offset="0" style="stop-color:rgb(58.039216%,95.686275%,100%);stop-opacity:1;"/>
<stop offset="1" style="stop-color:rgb(24.705882%,71.372549%,100%);stop-opacity:1;"/>
</linearGradient>
<linearGradient id="linear3" gradientUnits="userSpaceOnUse" x1="893.1351" y1="487.1907" x2="943.7451" y2="425.264" gradientTransform="matrix(0.277604,0,0,-0.277778,0,300)">
<stop offset="0" style="stop-color:rgb(83.137255%,95.686275%,100%);stop-opacity:1;"/>
<stop offset="1" style="stop-color:rgb(100%,100%,100%);stop-opacity:0;"/>
</linearGradient>
<linearGradient id="linear4" gradientUnits="userSpaceOnUse" x1="1063.4296" y1="234.0814" x2="1015.1688" y2="371.0379" gradientTransform="matrix(0.277604,0,0,-0.277778,0,300)">
<stop offset="0" style="stop-color:rgb(75.294118%,58.039216%,100%);stop-opacity:1;"/>
<stop offset="0.537" style="stop-color:rgb(83.137255%,90.196078%,100%);stop-opacity:1;"/>
<stop offset="1" style="stop-color:rgb(63.529412%,54.117647%,77.254902%);stop-opacity:1;"/>
</linearGradient>
<linearGradient id="linear5" gradientUnits="userSpaceOnUse" x1="1032.0243" y1="369.4999" x2="1069.4688" y2="369.4999" gradientTransform="matrix(0.277604,0,0,-0.277778,0,300)">
<stop offset="0" style="stop-color:rgb(62.352941%,0%,66.666667%);stop-opacity:1;"/>
<stop offset="0.4127" style="stop-color:rgb(41.960784%,0%,66.666667%);stop-opacity:1;"/>
<stop offset="0.6554" style="stop-color:rgb(33.72549%,0%,53.72549%);stop-opacity:1;"/>
<stop offset="1" style="stop-color:rgb(20.784314%,0%,33.333333%);stop-opacity:1;"/>
</linearGradient>
<linearGradient id="linear6" gradientUnits="userSpaceOnUse" x1="878.6749" y1="362.9499" x2="915.3749" y2="362.9499" gradientTransform="matrix(0.277604,0,0,-0.277778,0,300)">
<stop offset="0" style="stop-color:rgb(62.352941%,0%,66.666667%);stop-opacity:1;"/>
<stop offset="0.4127" style="stop-color:rgb(41.960784%,0%,66.666667%);stop-opacity:1;"/>
<stop offset="0.6554" style="stop-color:rgb(33.72549%,0%,53.72549%);stop-opacity:1;"/>
<stop offset="1" style="stop-color:rgb(20.784314%,0%,33.333333%);stop-opacity:1;"/>
</linearGradient>
<linearGradient id="linear7" gradientUnits="userSpaceOnUse" x1="876.4613" y1="253.3073" x2="939.07" y2="391.4378" gradientTransform="matrix(0.277604,0,0,-0.277778,0,300)">
<stop offset="0" style="stop-color:rgb(32.156863%,3.137255%,67.058824%);stop-opacity:1;"/>
<stop offset="1" style="stop-color:rgb(18.823529%,2.745098%,36.078431%);stop-opacity:1;"/>
</linearGradient>
<linearGradient id="linear8" gradientUnits="userSpaceOnUse" x1="932.3688" y1="315.5513" x2="876.8035" y2="270.5513" gradientTransform="matrix(0.277604,0,0,-0.277778,0,300)">
<stop offset="0" style="stop-color:rgb(32.156863%,3.137255%,67.058824%);stop-opacity:1;"/>
<stop offset="1" style="stop-color:rgb(18.823529%,2.745098%,36.078431%);stop-opacity:1;"/>
</linearGradient>
<linearGradient id="linear9" gradientUnits="userSpaceOnUse" x1="-3586.4546" y1="249.0908" x2="-3523.8457" y2="387.2212" gradientTransform="matrix(-0.277604,0,0,-0.277778,-699.523608,300)">
<stop offset="0" style="stop-color:rgb(32.156863%,3.137255%,67.058824%);stop-opacity:1;"/>
<stop offset="1" style="stop-color:rgb(18.823529%,2.745098%,36.078431%);stop-opacity:1;"/>
</linearGradient>
<linearGradient id="linear10" gradientUnits="userSpaceOnUse" x1="-3530.552" y1="311.3411" x2="-3586.1172" y2="266.3411" gradientTransform="matrix(-0.277604,0,0,-0.277778,-699.523608,300)">
<stop offset="0" style="stop-color:rgb(32.156863%,3.137255%,67.058824%);stop-opacity:1;"/>
<stop offset="1" style="stop-color:rgb(18.823529%,2.745098%,36.078431%);stop-opacity:1;"/>
</linearGradient>
<linearGradient id="linear11" gradientUnits="userSpaceOnUse" x1="1076.4056" y1="213.264" x2="1006.8474" y2="372.3902" gradientTransform="matrix(1,0,0,-1,0,1080)">
<stop offset="0" style="stop-color:rgb(43.529412%,0%,100%);stop-opacity:1;"/>
<stop offset="0.0333917" style="stop-color:rgb(44.313725%,1.568627%,100%);stop-opacity:1;"/>
<stop offset="0.0697382" style="stop-color:rgb(47.058824%,7.058824%,99.607843%);stop-opacity:1;"/>
<stop offset="0.1075" style="stop-color:rgb(51.764706%,15.294118%,99.215686%);stop-opacity:1;"/>
<stop offset="0.1462" style="stop-color:rgb(58.431373%,27.45098%,98.823529%);stop-opacity:1;"/>
<stop offset="0.1857" style="stop-color:rgb(66.666667%,42.745098%,98.039216%);stop-opacity:1;"/>
<stop offset="0.2257" style="stop-color:rgb(76.862745%,61.568627%,96.862745%);stop-opacity:1;"/>
<stop offset="0.2656" style="stop-color:rgb(88.627451%,83.529412%,96.078431%);stop-opacity:1;"/>
<stop offset="0.2736" style="stop-color:rgb(91.372549%,88.235294%,95.686275%);stop-opacity:1;"/>
<stop offset="0.3" style="stop-color:rgb(87.058824%,82.352941%,93.72549%);stop-opacity:1;"/>
<stop offset="0.351" style="stop-color:rgb(76.078431%,66.666667%,87.843137%);stop-opacity:1;"/>
<stop offset="0.4215" style="stop-color:rgb(58.039216%,41.176471%,78.823529%);stop-opacity:1;"/>
<stop offset="0.5081" style="stop-color:rgb(33.72549%,6.27451%,66.666667%);stop-opacity:1;"/>
<stop offset="0.5159" style="stop-color:rgb(31.372549%,3.137255%,65.490196%);stop-opacity:1;"/>
<stop offset="0.5724" style="stop-color:rgb(48.235294%,26.666667%,74.509804%);stop-opacity:1;"/>
<stop offset="0.7023" style="stop-color:rgb(89.803922%,84.705882%,97.254902%);stop-opacity:1;"/>
<stop offset="0.7169" style="stop-color:rgb(94.509804%,91.372549%,100%);stop-opacity:1;"/>
<stop offset="0.8589" style="stop-color:rgb(63.921569%,46.27451%,87.45098%);stop-opacity:1;"/>
<stop offset="1" style="stop-color:rgb(32.54902%,0%,74.901961%);stop-opacity:1;"/>
</linearGradient>
<linearGradient id="linear12" gradientUnits="userSpaceOnUse" x1="-3333.6826" y1="218.064" x2="-3403.2407" y2="377.1902" gradientTransform="matrix(-1,0,0,-1,-2466.4397,1080)">
<stop offset="0" style="stop-color:rgb(43.529412%,0%,100%);stop-opacity:1;"/>
<stop offset="0.0333917" style="stop-color:rgb(44.313725%,1.568627%,100%);stop-opacity:1;"/>
<stop offset="0.0697382" style="stop-color:rgb(47.058824%,7.058824%,99.607843%);stop-opacity:1;"/>
<stop offset="0.1075" style="stop-color:rgb(51.764706%,15.294118%,99.215686%);stop-opacity:1;"/>
<stop offset="0.1462" style="stop-color:rgb(58.431373%,27.45098%,98.823529%);stop-opacity:1;"/>
<stop offset="0.1857" style="stop-color:rgb(66.666667%,42.745098%,98.039216%);stop-opacity:1;"/>
<stop offset="0.2257" style="stop-color:rgb(76.862745%,61.568627%,96.862745%);stop-opacity:1;"/>
<stop offset="0.2656" style="stop-color:rgb(88.627451%,83.529412%,96.078431%);stop-opacity:1;"/>
<stop offset="0.2736" style="stop-color:rgb(91.372549%,88.235294%,95.686275%);stop-opacity:1;"/>
<stop offset="0.3" style="stop-color:rgb(87.058824%,82.352941%,93.72549%);stop-opacity:1;"/>
<stop offset="0.351" style="stop-color:rgb(76.078431%,66.666667%,87.843137%);stop-opacity:1;"/>
<stop offset="0.4215" style="stop-color:rgb(58.039216%,41.176471%,78.823529%);stop-opacity:1;"/>
<stop offset="0.5081" style="stop-color:rgb(33.72549%,6.27451%,66.666667%);stop-opacity:1;"/>
<stop offset="0.5159" style="stop-color:rgb(31.372549%,3.137255%,65.490196%);stop-opacity:1;"/>
<stop offset="0.5724" style="stop-color:rgb(48.235294%,26.666667%,74.509804%);stop-opacity:1;"/>
<stop offset="0.7023" style="stop-color:rgb(89.803922%,84.705882%,97.254902%);stop-opacity:1;"/>
<stop offset="0.7169" style="stop-color:rgb(94.509804%,91.372549%,100%);stop-opacity:1;"/>
<stop offset="0.8589" style="stop-color:rgb(63.921569%,46.27451%,87.45098%);stop-opacity:1;"/>
<stop offset="1" style="stop-color:rgb(32.54902%,0%,74.901961%);stop-opacity:1;"/>
</linearGradient>
<linearGradient id="linear13" gradientUnits="userSpaceOnUse" x1="926.1325" y1="448.7138" x2="949.6107" y2="425.7574" gradientTransform="matrix(0.277604,0,0,-0.277778,0,300)">
<stop offset="0" style="stop-color:rgb(45.490196%,22.745098%,66.27451%);stop-opacity:1;"/>
<stop offset="1" style="stop-color:rgb(16.078431%,8.235294%,21.568627%);stop-opacity:1;"/>
</linearGradient>
<linearGradient id="linear14" gradientUnits="userSpaceOnUse" x1="915.0868" y1="427.5071" x2="946.7157" y2="450.5465" gradientTransform="matrix(1,0,0,-1,0,1080)">
<stop offset="0" style="stop-color:rgb(45.490196%,22.745098%,66.27451%);stop-opacity:1;"/>
<stop offset="1" style="stop-color:rgb(16.078431%,8.235294%,21.568627%);stop-opacity:1;"/>
</linearGradient>
<linearGradient id="linear15" gradientUnits="userSpaceOnUse" x1="971.17" y1="364.6631" x2="982.9092" y2="68.8369" gradientTransform="matrix(0.277604,0,0,-0.277778,0,300)">
<stop offset="0" style="stop-color:rgb(100%,0%,100%);stop-opacity:1;"/>
<stop offset="0.2468" style="stop-color:rgb(87.843137%,2.745098%,100%);stop-opacity:1;"/>
<stop offset="0.5485" style="stop-color:rgb(75.686275%,5.882353%,100%);stop-opacity:1;"/>
<stop offset="0.8043" style="stop-color:rgb(68.235294%,7.45098%,100%);stop-opacity:1;"/>
<stop offset="0.9816" style="stop-color:rgb(65.490196%,8.235294%,100%);stop-opacity:1;"/>
</linearGradient>
<linearGradient id="linear16" gradientUnits="userSpaceOnUse" x1="972.3624" y1="282.765" x2="967.2754" y2="164.1997" gradientTransform="matrix(0.277604,0,0,-0.277778,0,300)">
<stop offset="0" style="stop-color:rgb(100%,49.803922%,100%);stop-opacity:1;"/>
<stop offset="1" style="stop-color:rgb(99.215686%,0%,100%);stop-opacity:1;"/>
</linearGradient>
</defs>
<g id="surface1">
<path style=" stroke:none;fill-rule:nonzero;fill:url(#linear0);" d="M 290.070312 176.222656 L 286.683594 213.917969 C 286.683594 213.917969 282.046875 222.667969 269.027344 222.667969 C 256.007812 222.667969 253.867188 213.890625 253.867188 213.890625 L 250.480469 176.195312 C 250.261719 168.472656 253.757812 160.195312 257.867188 153.222656 C 258.199219 152.667969 258.503906 152.140625 258.839844 151.609375 C 264.222656 142.859375 270.246094 136.5 270.246094 136.5 L 270.246094 136.527344 C 270.246094 136.527344 276.214844 142.832031 281.601562 151.527344 C 282.019531 152.195312 282.40625 152.859375 282.824219 153.554688 C 286.902344 160.472656 290.289062 168.609375 290.070312 176.222656 Z M 290.070312 176.222656 "/>
<path style=" stroke:none;fill-rule:nonzero;fill:url(#linear1);" d="M 281.65625 151.527344 C 280.933594 152.5 277.855469 155.777344 270.054688 155.777344 C 262.476562 155.777344 259.644531 152.695312 258.894531 151.609375 C 264.277344 142.859375 270.304688 136.5 270.304688 136.5 L 270.304688 136.527344 C 270.304688 136.527344 276.273438 142.832031 281.65625 151.527344 Z M 281.65625 151.527344 "/>
<path style=" stroke:none;fill-rule:nonzero;fill:url(#linear2);" d="M 262.890625 178 C 262.890625 181.917969 260.976562 185.082031 258.589844 185.082031 C 257.117188 185.082031 255.785156 183.832031 255.035156 181.972656 C 254.703125 181.167969 254.480469 180.222656 254.367188 179.222656 C 254.3125 178.832031 254.3125 178.417969 254.3125 178 C 254.3125 174.082031 256.230469 170.917969 258.617188 170.917969 C 258.753906 170.917969 258.867188 170.917969 258.976562 170.945312 C 259.558594 171.027344 260.113281 171.304688 260.585938 171.722656 C 260.671875 171.804688 260.78125 171.890625 260.863281 171.972656 C 261.640625 172.75 262.253906 173.917969 262.585938 175.332031 C 262.78125 176.140625 262.890625 177.054688 262.890625 178 Z M 262.890625 178 "/>
<path style=" stroke:none;fill-rule:nonzero;fill:url(#linear3);" d="M 262.585938 175.304688 L 255.035156 181.945312 C 254.703125 181.140625 254.480469 180.195312 254.367188 179.195312 C 254.3125 178.804688 254.3125 178.390625 254.3125 177.972656 C 254.3125 174.054688 256.230469 170.890625 258.617188 170.890625 C 258.753906 170.890625 258.867188 170.890625 258.976562 170.917969 C 259.558594 171 260.113281 171.277344 260.585938 171.695312 C 260.671875 171.777344 260.78125 171.859375 260.863281 171.945312 C 261.613281 172.75 262.226562 173.917969 262.585938 175.304688 Z M 262.585938 175.304688 "/>
<path style=" stroke:none;fill-rule:nonzero;fill:url(#linear4);" d="M 280.101562 196.195312 C 280.101562 196.195312 284.40625 198.445312 286.960938 204.417969 C 289.542969 210.359375 294.511719 225.777344 294.511719 225.777344 C 294.511719 225.777344 296.953125 232.722656 295.066406 242.359375 "/>
<path style=" stroke:none;fill-rule:nonzero;fill:url(#linear5);" d="M 289.542969 184.25 C 289.542969 184.25 296.480469 194.527344 296.757812 198.140625 C 297.035156 201.75 296.757812 210.472656 296.757812 210.472656 L 286.488281 205.082031 Z M 289.542969 184.25 "/>
<path style=" stroke:none;fill-rule:nonzero;fill:url(#linear6);" d="M 251.203125 184.222656 L 254.117188 209.195312 L 243.929688 214.140625 L 244.042969 201.5 C 244.042969 201.527344 246.652344 192.027344 251.203125 184.222656 Z M 251.203125 184.222656 "/>
<path style=" stroke:none;fill-rule:nonzero;fill:url(#linear7);" d="M 259.308594 194.804688 L 255.144531 199.25 C 254.007812 200.277344 253.175781 201.554688 252.675781 203 L 244.234375 226.917969 C 244.070312 227.359375 244.015625 227.804688 244.015625 228.277344 L 244.265625 241.195312 L 241.488281 239.804688 L 241.488281 227.304688 C 241.488281 227.304688 244.292969 213.804688 248.984375 203.417969 C 251.230469 198.417969 254.257812 195.082031 256.757812 193.417969 Z M 259.308594 194.804688 "/>
<path style=" stroke:none;fill-rule:nonzero;fill:url(#linear8);" d="M 244.320312 241.195312 L 259.28125 218.140625 L 259.28125 195.027344 C 259.28125 195.027344 254.3125 197.777344 251.816406 204.75 C 249.316406 211.722656 244.625 224.777344 244.015625 227.582031 C 243.429688 230.390625 243.820312 240.640625 244.320312 241.195312 Z M 244.320312 241.195312 "/>
<path style=" stroke:none;fill-rule:nonzero;fill:url(#linear9);" d="M 280.074219 195.972656 L 284.238281 200.417969 C 285.378906 201.445312 286.210938 202.722656 286.710938 204.167969 L 295.148438 228.082031 C 295.316406 228.527344 295.371094 228.972656 295.371094 229.445312 L 295.121094 242.359375 L 297.898438 240.972656 L 297.898438 228.472656 C 297.898438 228.472656 295.09375 214.972656 290.402344 204.582031 C 288.152344 199.582031 285.128906 196.25 282.628906 194.582031 Z M 280.074219 195.972656 "/>
<path style=" stroke:none;fill-rule:nonzero;fill:url(#linear10);" d="M 295.066406 242.359375 L 280.101562 219.304688 L 280.101562 196.195312 C 280.101562 196.195312 285.070312 198.945312 287.570312 205.917969 C 290.097656 212.917969 294.761719 225.945312 295.371094 228.75 C 295.953125 231.554688 295.566406 241.804688 295.066406 242.359375 Z M 295.066406 242.359375 "/>
<path style="fill:none;stroke-width:1;stroke-linecap:butt;stroke-linejoin:miter;stroke:url(#linear11);stroke-miterlimit:10;" d="M 1009.502814 706.795312 C 1009.502814 706.795312 1024.896811 713.995312 1034.197936 735.398437 C 1043.499062 756.801562 1061.496248 813.796875 1061.496248 813.796875 C 1061.496248 813.796875 1070.501876 835.804687 1063.395872 872.1 " transform="matrix(0.277604,0,0,0.277778,0,0)"/>
<path style="fill:none;stroke-width:1;stroke-linecap:butt;stroke-linejoin:miter;stroke:url(#linear12);stroke-miterlimit:10;" d="M 934.094747 702 C 934.094747 702 918.70075 709.2 909.399625 730.603125 C 900.098499 752.00625 882.101313 809.001562 882.101313 809.001562 C 882.101313 809.001562 873.095685 830.995312 880.201689 867.304687 " transform="matrix(0.277604,0,0,0.277778,0,0)"/>
<path style=" stroke:none;fill-rule:nonzero;fill:url(#linear13);" d="M 259.617188 170.832031 L 258.089844 170.832031 C 258.089844 170.832031 260.308594 170.554688 261.976562 175 C 261.976562 175 264.75 183.054688 258.921875 185.277344 C 259.753906 185.277344 261.726562 185.027344 261.726562 185.027344 C 261.726562 185.027344 264.558594 183.890625 263.917969 177.5 C 263.28125 171.109375 260.03125 170.832031 260.03125 170.832031 Z M 259.617188 170.832031 "/>
<path style="fill:none;stroke-width:2;stroke-linecap:butt;stroke-linejoin:miter;stroke:url(#linear14);stroke-miterlimit:10;" d="M 945.196998 639.295312 C 946.393058 653.104687 941.594747 665.1 933.194184 666 C 924.793621 666.9 917.195122 657.50625 916.19606 642.501562 C 915.295497 628.70625 920.797373 616.401562 929.197936 615.501562 C 937.598499 614.601562 944.000938 625.5 945.196998 639.295312 Z M 945.196998 639.295312 " transform="matrix(0.277604,0,0,0.277778,0,0)"/>
<path style=" stroke:none;fill-rule:nonzero;fill:url(#linear15);" d="M 258.117188 220.5 C 258.117188 220.5 254.839844 222.5 256.785156 230.832031 C 258.449219 227.777344 258.726562 227.222656 258.726562 227.222656 C 258.726562 227.222656 254.425781 245.695312 256.144531 255.472656 C 258.78125 252.582031 260.949219 250.554688 260.949219 250.554688 C 260.949219 250.554688 258.0625 260.640625 259.644531 264.082031 C 260.863281 259.554688 260.863281 259.554688 260.863281 259.554688 C 260.863281 259.554688 261.585938 277.082031 262.503906 279.109375 C 265.222656 267.582031 265.667969 267.222656 265.667969 267.222656 C 265.667969 267.222656 267.886719 279.167969 269.277344 286.390625 C 269.277344 286.390625 271.496094 282.222656 275.660156 268.332031 C 277.882812 276.945312 278.160156 279.167969 278.160156 279.167969 C 278.160156 279.167969 281.769531 251.390625 278.714844 245.554688 C 282.601562 251.667969 282.628906 253.445312 282.628906 253.445312 C 282.628906 253.445312 285.183594 232.890625 280.4375 226.027344 C 285.070312 230.640625 286.847656 231.890625 286.847656 231.890625 C 286.847656 231.890625 282.90625 221.054688 280.796875 219.832031 C 280.796875 219.832031 275.992188 222.667969 270.191406 222.667969 C 264.390625 222.667969 260.949219 221.445312 258.617188 219.695312 C 258.199219 220.332031 258.117188 220.5 258.117188 220.5 Z M 258.117188 220.5 "/>
<path style=" stroke:none;fill-rule:nonzero;fill:url(#linear16);" d="M 276.578125 221.667969 C 279.019531 226.527344 276.910156 232.640625 276.910156 232.640625 C 276.910156 232.640625 276.910156 232.640625 274.132812 229.582031 C 276.078125 232.640625 275.523438 235.417969 275.523438 235.417969 C 275.523438 235.417969 275.523438 235.140625 273.023438 232.359375 C 274.410156 234.582031 274.96875 240.140625 274.96875 240.140625 C 274.96875 240.140625 274.96875 239.859375 273.300781 238.472656 C 274.96875 242.640625 273.578125 248.195312 273.578125 248.195312 C 273.578125 248.195312 273.855469 246.804688 272.746094 244.859375 C 272.46875 249.304688 271.636719 254.582031 268.859375 259.304688 C 269.96875 252.640625 268.304688 236.804688 268.304688 236.804688 L 265.25 239.859375 C 266.359375 236.25 264.558594 223.945312 264.558594 223.945312 L 261.640625 226.25 L 262.503906 221.667969 C 262.503906 221.667969 264.445312 222.695312 269.691406 222.667969 C 272.191406 222.609375 273.21875 222.609375 276.578125 221.667969 Z M 276.578125 221.667969 "/>
</g>
</svg>
