<?xml version="1.0" encoding="UTF-8"?><svg id="a" xmlns="http://www.w3.org/2000/svg" viewBox="0 0 769 726.73"><defs><style>.b{fill:#e9e1f4;}</style></defs><path class="b" d="M2,568.83s57.59,5.25,44.43,57.52c35.57,8.8,53.6,18.71,58.96,63.27,0,0,46.29-28.61,90.63,22.56,13.16-15.41,49.19,13.78,40.36,14-19,.48-234.38,0-234.38,0v-157.36Z"/><path class="b" d="M400.81,726.73s-7.91-69.45,58.7-29.98c6.17-11.1,14.18-17.68,31.02-12.26-1.42-24.51,13.38-46.95,47.3-41.03,1.85-26.24,28.35-34.53,55.51-22.95,0,0,37-33.55,60.44,7.82,2.47-33.47,18.39-80.54,115.22-79.88l-.51,177.98-367.68,.3Z"/></svg>