<?xml version="1.0" encoding="UTF-8"?><svg id="a" xmlns="http://www.w3.org/2000/svg" viewBox="0 0 1024 652.66"><defs><style>.d{fill:#ccb7ea;}</style></defs><g id="b"><g id="c"><path class="d" d="M0,380.92s50.13-10.64,56,28.37c0,0,44.8-4.06,34.67,35.96,12.27,1.52,30.27,18.74,15.67,45.58,2.46,0,11.25,7.48,8.33,10.64,0,0,38.4-17.22,59.2,17.22-.53-9.62,54.4-50.15,92.01,0,9.86-13.17,56.79-3.04,45.59,30.39,0,0,18.13,5.06,16.53,18.23,11.2-2.53,16.53-3.04,28.27,5.06,4.84-11.02,43.51-29.18,73.22,0,3.02-2.68,14.25-6.08,20.12-3.04,.03-6.59,44.8-34.95,69.87,0,0,0,12.27-1.02,17.07,5.06,0,0,2.67,2.53,3.2,8.1,8-10.13,51.73-36.97,69.33-14.69,0,0,10.67-19.25,34.13-14.69,2.67-8.61,36.27-16.21,46.93,1.52,6.4-12.66,11.2-21.27,33.07-22.8,0-13.68,4.27-28.37,11.73-33.43s21.87-14.18,40,2.53c8-3.04,5.87-4.06,17.6-3.04,2.13-10.13,28.51-43.14,53.33-11.14,0,0,16-10.13,33.07,0,0,0-4.8-15.19,10.67-24.31,4.82-2.84,13.33-5.06,13.33-5.06,0,0-5.87-28.37,16.53-36.47,0,0,21.33-7.6,38.4,11.14,2.13-7.09,16-26.34,39.47-25.33,0-4.56,4.27-29.5,26.67-27.16v273.09H0V380.92Z"/><polygon class="d" points="0 .03 0 0 0 0 0 .03"/></g></g></svg>