<?xml version="1.0" encoding="utf-8"?>
<!-- Generator: Adobe Illustrator 26.1.0, SVG Export Plug-In . SVG Version: 6.00 Build 0)  -->
<svg version="1.1" id="Layer_1" xmlns="http://www.w3.org/2000/svg" xmlns:xlink="http://www.w3.org/1999/xlink" x="0px" y="0px"
	 viewBox="0 0 1024 1080" enable-background="new 0 0 1024 1080" xml:space="preserve">
<path fill="#E9E1F4" d="M1.5,871.3c0,0,76.5,7,59,76.4c47.3,11.7,71.2,24.9,78.3,84.1c0,0,61.5-38,120.4,30
	c17.5-20.5,65.4,18.3,53.6,18.6c-25.3,0.6-311.4,0-311.4,0V871.3z"/>
<path fill="#E9E1F4" d="M532.8,1079.8c0,0-10.5-92.3,78-39.8c8.2-14.8,18.8-23.5,41.2-16.3c-1.9-32.6,17.8-62.4,62.9-54.5
	c2.5-34.9,37.7-45.9,73.8-30.5c0,0,49.2-44.6,80.3,10.4c3.3-44.5,24.4-107,153.1-106.1l-0.7,236.5L532.8,1079.8z"/>
</svg>
