<?xml version="1.0" encoding="UTF-8"?><svg id="a" xmlns="http://www.w3.org/2000/svg" viewBox="0 0 1024 576"><defs><style>.d{fill:#8566b2;}</style></defs><g id="b"><g id="c"><path class="d" d="M1024,289.07s-49.6-11.18-55.47,29.89c0,0-44.8-4.27-34.67,37.87-12.27,1.6-30.27,19.73-15.67,48-2.46,0-11.25,7.88-8.33,11.2,0,0-38.4-18.13-59.2,18.13,.53-10.13-54.4-52.8-92.01,0-9.86-13.87-56.79-3.2-45.59,32,0,0-18.13,5.33-16.53,19.2-11.2-2.67-16.53-3.2-28.27,5.33-4.84-11.61-43.51-30.73-73.22,0-3.02-2.82-14.25-6.4-20.12-3.2-.03-6.93-44.8-36.8-69.87,0,0,0-12.27-1.07-17.07,5.33,0,0-2.67,2.67-3.2,8.53-8-10.67-51.73-38.93-69.33-15.47,0,0-10.67-20.27-34.13-15.47-2.67-9.07-36.27-17.07-46.93,1.6-6.4-13.33-11.2-22.4-33.07-24,0-14.4-4.27-29.87-11.73-35.2s-21.87-14.93-40,2.67c-8-3.2-5.87-4.27-17.6-3.2-2.13-10.67-28.51-45.42-53.33-11.73,0,0-16-10.67-33.07,0,0,0,4.8-16-10.67-25.6-4.82-2.99-13.33-5.33-13.33-5.33,0,0,5.87-29.87-16.53-38.4,0,0-21.33-8-38.4,11.73-2.13-7.47-16-27.73-39.47-26.67,0-4.8-4.8-31.29-27.2-28.82v288.53H1024V289.07Z"/><polyline class="d" points="0 .02 0 0 0 0 0 .02"/></g></g></svg>