<?xml version="1.0" encoding="utf-8"?>
<!-- Generator: Adobe Illustrator 26.1.0, SVG Export Plug-In . SVG Version: 6.00 Build 0)  -->
<svg version="1.1" xmlns="http://www.w3.org/2000/svg" xmlns:xlink="http://www.w3.org/1999/xlink" x="0px" y="0px"
	 viewBox="0 0 768 1080" enable-background="new 0 0 768 1080" xml:space="preserve">
<g id="Layer_1" display="none">
	<g id="a" display="inline">
	</g>
	<g id="b" display="inline">
		<g id="c">
			<path fill="#8566B2" d="M768,689.9c0,0-37.2-15.2-41.6,40.6c0,0-33.6-5.8-26,51.4c-9.2,2.2-22.7,26.8-11.8,65.2
				c-1.8,0-8.4,10.7-6.2,15.2c0,0-28.8-24.6-44.4,24.6c0.4-13.8-40.8-71.7-69,0c-7.4-18.8-42.6-4.3-34.2,43.4
				c0,0-13.6,7.2-12.4,26.1c-8.4-3.6-12.4-4.3-21.2,7.2c-3.6-15.8-32.6-41.7-54.9,0c-2.3-3.8-10.7-8.7-15.1-4.3
				c0-9.4-33.6-49.9-52.4,0c0,0-9.2-1.4-12.8,7.2c0,0-2,3.6-2.4,11.6c-6-14.5-38.8-52.8-52-21c0,0-8-27.5-25.6-21
				c-2-12.3-27.2-23.2-35.2,2.2c-4.8-18.1-8.4-30.4-24.8-32.6c0-19.5-3.2-40.5-8.8-47.8c-5.6-7.2-16.4-20.3-30,3.6
				c-6-4.3-4.4-5.8-13.2-4.3c-1.6-14.5-21.4-61.7-40-15.9c0,0-12-14.5-24.8,0c0,0,3.6-21.7-8-34.7c-3.6-4.1-10-7.2-10-7.2
				s4.4-40.5-12.4-52.1c0,0-16-10.9-28.8,15.9c-1.6-10.1-12-37.6-29.6-36.2c0-6.5-3.6-42.5-20.4-39.1v391.6h768V689.9z"/>
			<polyline fill="#8566B2" points="0,295.4 0,295.4 0,295.4 0,295.4 			"/>
		</g>
	</g>
</g>
<g id="Layer_3">
	<g id="b_00000035492689468546480270000000676596995899650228_">
		<g id="c_00000064346988838202206610000008011310391226487942_">
			<path fill="#CCB7EA" d="M0,828c0,0,37.6-9.9,42,26.3c0,0,33.6-3.8,26,33.3c9.2,1.4,22.7,17.4,11.8,42.3c1.8,0,8.4,6.9,6.2,9.9
				c0,0,28.8-16,44.4,16c-0.4-8.9,40.8-46.5,69,0c7.4-12.2,42.6-2.8,34.2,28.2c0,0,13.6,4.7,12.4,16.9c8.4-2.3,12.4-2.8,21.2,4.7
				c3.6-10.2,32.6-27.1,54.9,0c2.3-2.5,10.7-5.6,15.1-2.8c0-6.1,33.6-32.4,52.4,0c0,0,9.2-0.9,12.8,4.7c0,0,2,2.3,2.4,7.5
				c6-9.4,38.8-34.3,52-13.6c0,0,8-17.8,25.6-13.6c2-8,27.2-15,35.2,1.4c4.8-11.7,8.4-19.7,24.8-21.1c0-12.7,3.2-26.3,8.8-31
				c5.6-4.7,16.4-13.2,30,2.3c6-2.8,4.4-3.8,13.2-2.8c1.6-9.4,21.4-40,40-10.3c0,0,12-9.4,24.8,0c0,0-3.6-14.1,8-22.5
				c3.6-2.6,10-4.7,10-4.7s-4.4-26.3,12.4-33.8c0,0,16-7,28.8,10.3c1.6-6.6,12-24.4,29.6-23.5c0-4.2,3.2-27.4,20-25.2V1080H0V828
				L0,828z"/>
		</g>
	</g>
</g>
<g id="Layer_2" display="none">
	<path display="inline" fill="#E9E1F4" d="M2,922.4c0,0,57.6,5.3,44.4,57.5c35.6,8.8,53.6,18.7,59,63.3c0,0,46.3-28.6,90.6,22.6
		c13.2-15.4,49.2,13.8,40.4,14c-19,0.5-234.4,0-234.4,0V922.4z"/>
	<path display="inline" fill="#E9E1F4" d="M400.8,1080.2c0,0-7.9-69.5,58.7-30c6.2-11.1,14.2-17.7,31-12.3
		c-1.4-24.5,13.4-47,47.3-41c1.9-26.2,28.4-34.5,55.5-22.9c0,0,37-33.6,60.4,7.8c2.5-33.5,18.4-80.5,115.2-79.9l-0.5,178
		L400.8,1080.2z"/>
</g>
</svg>
