<?xml version="1.0" encoding="UTF-8"?><svg xmlns="http://www.w3.org/2000/svg" viewBox="0 0 1920 1080"><defs><style>.d{fill:#8566b2;}</style></defs><g id="a"/><g id="b"><g id="c"><path class="d" d="M1920,542s-93-20.96-104,56.04c0,0-84-8-65,71-23,3-56.75,37-29.38,90-4.62,0-21.1,14.77-15.62,21,0,0-72-34-111,34,1-19-102-99-172.52,0-18.48-26-106.48-6-85.48,60,0,0-34,10-31,36-21-5-31-6-53,10-9.07-21.76-81.58-57.61-137.28,0-5.67-5.28-26.72-12-37.72-6-.05-13-84-69-131,0,0,0-23-2-32,10,0,0-5,5-6,16-15-20-97-73-130-29,0,0-20-38-64-29-5-17-68-32-88,3-12-25-21-42-62-45,0-27-8-56-22-66-14-10-41-28-75,5-15-6-11-8-33-6-4-20-53.46-85.17-100-22,0,0-30-20-62,0,0,0,9-30-20-48-9.03-5.61-25-10-25-10,0,0,11-56-31-72,0,0-40-15-72,22-4-14-30-52-74-50,0-9-9-58.66-51-54.04v541H1920V542Z"/><polyline class="d" points="0 .03 .01 0 0 0 0 .03"/></g></g></svg>