<?xml version="1.0" encoding="UTF-8"?><svg id="a" xmlns="http://www.w3.org/2000/svg" viewBox="0 0 425 914.22"><defs><style>.d{fill:#ccb7ea;}</style></defs><g id="b"><g id="c"><path class="d" d="M0,533.57s20.81-14.9,23.24,39.74c0,0,18.59-5.68,14.39,50.38,5.09,2.12,12.56,26.25,6.5,63.85,1.02,0,4.67,10.48,3.46,14.9,0,0,15.94-24.13,24.57,24.13-.22-13.48,22.58-70.24,38.19,0,4.09-18.45,23.57-4.26,18.92,42.57,0,0,7.53,7.09,6.86,25.54,4.65-3.55,6.86-4.26,11.73,7.09,2.01-15.44,18.06-40.88,30.39,0,1.26-3.75,5.91-8.52,8.35-4.26,.01-9.23,18.59-48.95,29,0,0,0,5.09-1.42,7.08,7.09,0,0,1.11,3.55,1.33,11.35,3.32-14.19,21.47-51.79,28.78-20.58,0,0,4.43-26.96,14.17-20.58,1.11-12.06,15.05-22.7,19.48,2.12,2.66-17.73,4.65-29.8,13.72-31.93,0-19.16,1.77-39.74,4.87-46.83,3.1-7.09,9.08-19.87,16.6,3.55,3.32-4.26,2.43-5.68,7.3-4.26,.89-14.19,11.83-60.43,22.14-15.61,0,0,6.64-14.19,13.72,0,0,0-1.99-21.28,4.43-34.06,2-3.98,5.53-7.09,5.53-7.09,0,0-2.43-39.74,6.86-51.09,0,0,8.85-10.64,15.94,15.61,.89-9.93,6.64-36.89,16.38-35.48,0-6.38,1.77-41.32,11.07-38.04v382.53H0v-380.65Z"/><polygon class="d" points="0 .04 0 0 0 0 0 .04"/></g></g></svg>