<?xml version="1.0" encoding="utf-8"?>
<!-- Generator: Adobe Illustrator 26.1.0, SVG Export Plug-In . SVG Version: 6.00 Build 0)  -->
<svg version="1.1" xmlns="http://www.w3.org/2000/svg" xmlns:xlink="http://www.w3.org/1999/xlink" x="0px" y="0px"
	 viewBox="0 0 425 878" enable-background="new 0 0 425 878" xml:space="preserve">
<g id="Layer_3">
	<g id="b">
		<g id="c">
			<path fill="#8566B2" d="M425,472c0,0-20.6-15.9-23,42.4c0,0-18.6-6.1-14.4,53.7c-5.1,2.3-12.6,28-6.5,68.1
				c-1,0-4.7,11.2-3.5,15.9c0,0-15.9-25.7-24.6,25.7c0.2-14.4-22.6-74.9-38.2,0c-4.1-19.7-23.6-4.5-18.9,45.4c0,0-7.5,7.6-6.9,27.2
				c-4.6-3.8-6.9-4.5-11.7,7.6c-2-16.5-18.1-43.6-30.4,0c-1.3-4-5.9-9.1-8.3-4.5c0-9.8-18.6-52.2-29,0c0,0-5.1-1.5-7.1,7.6
				c0,0-1.1,3.8-1.3,12.1c-3.3-15.1-21.5-55.2-28.8-21.9c0,0-4.4-28.7-14.2-21.9c-1.1-12.9-15.1-24.2-19.5,2.3
				c-2.7-18.9-4.6-31.8-13.7-34c0-20.4-1.8-42.4-4.9-49.9s-9.1-21.2-16.6,3.8c-3.3-4.5-2.4-6.1-7.3-4.5
				c-0.9-15.1-11.8-64.4-22.1-16.6c0,0-6.6-15.1-13.7,0c0,0,2-22.7-4.4-36.3c-2-4.2-5.5-7.6-5.5-7.6s2.4-42.4-6.9-54.5
				c0,0-8.9-11.3-15.9,16.6c-0.9-10.6-6.6-39.3-16.4-37.8c0-6.8-2-44.4-11.3-40.9V879h425V472z"/>
		</g>
	</g>
</g>
<g id="a" display="none">
	<g id="b_00000000216391740073612710000005272845432583179704_" display="inline">
		<g id="c_00000008840403698436928570000015861243735693992066_">
			<path fill="#CCB7EA" d="M1.6,633.1c0,0,20.7-9.6,23.1,25.6c0,0,18.5-3.7,14.3,32.4c5.1,1.4,12.5,16.9,6.5,41.1
				c1,0,4.6,6.7,3.4,9.6c0,0,15.8-15.5,24.4,15.5c-0.2-8.7,22.4-45.2,37.9,0c4.1-11.9,23.4-2.7,18.8,27.4c0,0,7.5,4.6,6.8,16.4
				c4.6-2.3,6.8-2.7,11.6,4.6c2-9.9,17.9-26.3,30.2,0c1.2-2.4,5.9-5.5,8.3-2.7c0-5.9,18.5-31.5,28.8,0c0,0,5.1-0.9,7,4.6
				c0,0,1.1,2.3,1.3,7.3c3.3-9.1,21.3-33.3,28.6-13.2c0,0,4.4-17.3,14.1-13.2c1.1-7.8,14.9-14.6,19.3,1.4
				c2.6-11.4,4.6-19.2,13.6-20.5c0-12.3,1.8-25.6,4.8-30.1c3.1-4.6,9-12.8,16.5,2.3c3.3-2.7,2.4-3.7,7.3-2.7
				c0.9-9.1,11.7-38.9,22-10c0,0,6.6-9.1,13.6,0c0,0-2-13.7,4.4-21.9c2-2.6,5.5-4.6,5.5-4.6s-2.4-25.6,6.8-32.9c0,0,8.8-6.8,15.8,10
				c0.9-6.4,6.6-23.7,16.3-22.8c0-4.1,1.8-26.6,11-24.5V878H1.6V633.1L1.6,633.1z"/>
		</g>
	</g>
</g>
<g id="Layer_2" display="none">
	<path display="inline" fill="#DED6EA" d="M2.4,693.8c0,0,64.8,6.1,50,66.9c0,0,0,0,0,0c40,10.2,60.3,21.8,66.3,73.6
		c0,0,44.5-35.7,69.2,14.1c0,0,0,0,0,0l4.9,14.6l-4.9,14c0,0,0,0,0,0c-7.6,0.1-186.6,0.2-186.7,0.2c0,0,0.4,0.8,0.4,0.8L2.4,693.8
		L2.4,693.8z"/>
	<path display="inline" fill="#E9E1F4" d="M254.2,876.1c0,0-13.5,1.3-19.7-0.7c0,0,19.7-51.5,29.7-45.1c-1.2-26.6,11-50.9,38.7-44.5
		c1.5-28.5,23.2-37.5,45.5-24.9c0,0-2.8-27,23.1-21.7c1.7-21.3,2-48.3,53.5-56.5L423.4,878L254.2,876.1L254.2,876.1z"/>
</g>
</svg>
