<?xml version="1.0" encoding="utf-8"?>
<!-- Generator: Adobe Illustrator 26.1.0, SVG Export Plug-In . SVG Version: 6.00 Build 0)  -->
<svg version="1.1" xmlns="http://www.w3.org/2000/svg" xmlns:xlink="http://www.w3.org/1999/xlink" x="0px" y="0px"
	 viewBox="0 0 425 878" enable-background="new 0 0 425 878" xml:space="preserve">
<g id="Layer_3" display="none">
	<g id="b" display="inline">
		<g id="c">
			<path fill="#8566B2" d="M425,537.7c0,0-20.6-13.3-23,35.5c0,0-18.6-5.1-14.4,45c-5.1,1.9-12.6,23.5-6.5,57.1
				c-1,0-4.7,9.4-3.5,13.3c0,0-15.9-21.6-24.6,21.6c0.2-12.1-22.6-62.8-38.2,0c-4.1-16.5-23.6-3.8-18.9,38.1c0,0-7.5,6.3-6.9,22.8
				c-4.6-3.2-6.9-3.8-11.7,6.3c-2-13.8-18.1-36.5-30.4,0c-1.3-3.3-5.9-7.6-8.3-3.8c0-8.2-18.6-43.8-29,0c0,0-5.1-1.3-7.1,6.3
				c0,0-1.1,3.2-1.3,10.1c-3.3-12.7-21.5-46.3-28.8-18.4c0,0-4.4-24.1-14.2-18.4c-1.1-10.8-15.1-20.3-19.5,1.9
				c-2.7-15.9-4.6-26.6-13.7-28.5c0-17.1-1.8-35.5-4.9-41.9s-9.1-17.8-16.6,3.2c-3.3-3.8-2.4-5.1-7.3-3.8c-0.9-12.7-11.8-54-22.1-14
				c0,0-6.6-12.7-13.7,0c0,0,2-19-4.4-30.4c-2-3.6-5.5-6.3-5.5-6.3s2.4-35.5-6.9-45.7c0,0-8.9-9.5-15.9,14
				c-0.9-8.9-6.6-33-16.4-31.7c0-5.7-2-37.2-11.3-34.3V879h425V537.7z"/>
		</g>
	</g>
</g>
<g id="a" display="none">
	<g id="b_00000000216391740073612710000005272845432583179704_" display="inline">
		<g id="c_00000008840403698436928570000015861243735693992066_">
			<path fill="#CCB7EA" d="M1.6,633.1c0,0,20.7-9.6,23.1,25.6c0,0,18.5-3.7,14.3,32.4c5.1,1.4,12.5,16.9,6.5,41.1
				c1,0,4.6,6.7,3.4,9.6c0,0,15.8-15.5,24.4,15.5c-0.2-8.7,22.4-45.2,37.9,0c4.1-11.9,23.4-2.7,18.8,27.4c0,0,7.5,4.6,6.8,16.4
				c4.6-2.3,6.8-2.7,11.6,4.6c2-9.9,17.9-26.3,30.2,0c1.2-2.4,5.9-5.5,8.3-2.7c0-5.9,18.5-31.5,28.8,0c0,0,5.1-0.9,7,4.6
				c0,0,1.1,2.3,1.3,7.3c3.3-9.1,21.3-33.3,28.6-13.2c0,0,4.4-17.3,14.1-13.2c1.1-7.8,14.9-14.6,19.3,1.4
				c2.6-11.4,4.6-19.2,13.6-20.5c0-12.3,1.8-25.6,4.8-30.1c3.1-4.6,9-12.8,16.5,2.3c3.3-2.7,2.4-3.7,7.3-2.7
				c0.9-9.1,11.7-38.9,22-10c0,0,6.6-9.1,13.6,0c0,0-2-13.7,4.4-21.9c2-2.6,5.5-4.6,5.5-4.6s-2.4-25.6,6.8-32.9c0,0,8.8-6.8,15.8,10
				c0.9-6.4,6.6-23.7,16.3-22.8c0-4.1,1.8-26.6,11-24.5V878H1.6V633.1L1.6,633.1z"/>
		</g>
	</g>
</g>
<g id="Layer_2">
	<path fill="#DED6EA" d="M2.4,693.8c0,0,64.8,6.1,50,66.9c0,0,0,0,0,0c40,10.2,60.3,21.8,66.3,73.6c0,0,44.5-35.7,69.2,14.1
		c0,0,0,0,0,0l4.9,14.6l-4.9,14c0,0,0,0,0,0c-7.6,0.1-186.6,0.2-186.7,0.2c0,0,0.4,0.8,0.4,0.8L2.4,693.8L2.4,693.8z"/>
	<path fill="#E9E1F4" d="M254.2,876.1c0,0-13.5,1.3-19.7-0.7c0,0,19.7-51.5,29.7-45.1c-1.2-26.6,11-50.9,38.7-44.5
		c1.5-28.5,23.2-37.5,45.5-24.9c0,0-2.8-27,23.1-21.7c1.7-21.3,2-48.3,53.5-56.5L423.4,878L254.2,876.1L254.2,876.1z"/>
</g>
</svg>
